<ttFont>
<head>
    <!-- Most of this table will be recalculated by the compiler -->
    <tableVersion value="1.0"/>
    <fontRevision value="0.0"/>
    <checkSumAdjustment value="0xc8338e31"/>
    <magicNumber value="0x5f0f3cf5"/>
    <flags value="00001000 00011111"/>
    <unitsPerEm value="2048"/>
    <created value="Thu Mar 10 17:54:08 2016"/>
    <modified value="Thu Mar 10 17:54:08 2016"/>
    <xMin value="-70"/>
    <yMin value="-498"/>
    <xMax value="1823"/>
    <yMax value="2036"/>
    <macStyle value="00000000 00000000"/>
    <lowestRecPPEM value="8"/>
    <fontDirectionHint value="2"/>
    <indexToLocFormat value="0"/>
    <glyphDataFormat value="0"/>
  </head>
    <TTGlyph name=".notdef" xMin="68" yMin="0" xMax="612" yMax="1365">
      <contour>
        <pt x="68" y="0" on="1"/>
        <pt x="68" y="1365" on="1"/>
        <pt x="612" y="1365" on="1"/>
        <pt x="612" y="0" on="1"/>
      </contour>
      <contour>
        <pt x="136" y="68" on="1"/>
        <pt x="544" y="68" on="1"/>
        <pt x="544" y="1297" on="1"/>
        <pt x="136" y="1297" on="1"/>
      </contour>
    </TTGlyph>
    <TTGlyph name="A" xMin="86" yMin="0" xMax="1409" yMax="1495">
      <contour>
        <pt x="86" y="0" on="1"/>
        <pt x="610" y="1495" on="1"/>
        <pt x="862" y="1495" on="1"/>
        <pt x="1409" y="0" on="1"/>
        <pt x="1257" y="0" on="1"/>
        <pt x="1100" y="414" on="1"/>
        <pt x="494" y="414" on="1"/>
        <pt x="332" y="0" on="1"/>
      </contour>
      <contour>
        <pt x="555" y="569" on="1"/>
        <pt x="1040" y="569" on="1"/>
        <pt x="801" y="1194" on="1"/>
      </contour>
    </TTGlyph>
    <TTGlyph name="AE" xMin="63" yMin="0" xMax="1772" yMax="1495">
      <contour>
        <pt x="63" y="0" on="1"/>
        <pt x="592" y="1495" on="1"/>
        <pt x="1757" y="1495" on="1"/>
        <pt x="1757" y="1128" on="1"/>
        <pt x="1079" y="1128" on="1"/>
        <pt x="1079" y="815" on="1"/>
        <pt x="1573" y="815" on="1"/>
        <pt x="1573" y="639" on="1"/>
        <pt x="1079" y="639" on="1"/>
        <pt x="1079" y="268" on="1"/>
        <pt x="1772" y="268" on="1"/>
        <pt x="1772" y="0" on="1"/>
        <pt x="936" y="0" on="1"/>
        <pt x="936" y="414" on="1"/>
        <pt x="471" y="414" on="1"/>
        <pt x="307" y="0" on="1"/>
      </contour>
      <contour>
        <pt x="524" y="549" on="1"/>
        <pt x="936" y="549" on="1"/>
        <pt x="936" y="1139" on="1"/>
        <pt x="758" y="1139" on="1"/>
      </contour>
    </TTGlyph>
    <TTGlyph name="Aacute" xMin="66" yMin="0" xMax="1389" yMax="1925">
      <contour>
        <pt x="66" y="0" on="1"/>
        <pt x="590" y="1495" on="1"/>
        <pt x="842" y="1495" on="1"/>
        <pt x="1389" y="0" on="1"/>
        <pt x="1237" y="0" on="1"/>
        <pt x="1079" y="414" on="1"/>
        <pt x="473" y="414" on="1"/>
        <pt x="311" y="0" on="1"/>
      </contour>
      <contour>
        <pt x="420" y="1628" on="1"/>
        <pt x="455" y="1730" on="0"/>
        <pt x="646" y="1884" on="0"/>
        <pt x="886" y="1946" on="0"/>
        <pt x="995" y="1925" on="1"/>
        <pt x="985" y="1667" on="1"/>
        <pt x="866" y="1728" on="0"/>
        <pt x="526" y="1677" on="0"/>
        <pt x="444" y="1583" on="1"/>
      </contour>
      <contour>
        <pt x="535" y="569" on="1"/>
        <pt x="1020" y="569" on="1"/>
        <pt x="780" y="1194" on="1"/>
      </contour>
    </TTGlyph>
    <TTGlyph name="Acircumflex" xMin="66" yMin="0" xMax="1389" yMax="1966">
      <contour>
        <pt x="66" y="0" on="1"/>
        <pt x="590" y="1495" on="1"/>
        <pt x="842" y="1495" on="1"/>
        <pt x="1389" y="0" on="1"/>
        <pt x="1237" y="0" on="1"/>
        <pt x="1079" y="414" on="1"/>
        <pt x="473" y="414" on="1"/>
        <pt x="311" y="0" on="1"/>
      </contour>
      <contour>
        <pt x="375" y="1608" on="1"/>
        <pt x="375" y="1677" on="1"/>
        <pt x="469" y="1693" on="0"/>
        <pt x="674" y="1869" on="0"/>
        <pt x="727" y="1966" on="1"/>
        <pt x="768" y="1966" on="1"/>
        <pt x="821" y="1869" on="0"/>
        <pt x="1026" y="1693" on="0"/>
        <pt x="1120" y="1677" on="1"/>
        <pt x="1120" y="1608" on="1"/>
        <pt x="1006" y="1600" on="0"/>
        <pt x="777" y="1660" on="0"/>
        <pt x="748" y="1718" on="1"/>
        <pt x="719" y="1660" on="0"/>
        <pt x="489" y="1600" on="0"/>
      </contour>
      <contour>
        <pt x="535" y="569" on="1"/>
        <pt x="1020" y="569" on="1"/>
        <pt x="780" y="1194" on="1"/>
      </contour>
    </TTGlyph>
    <TTGlyph name="Adieresis" xMin="66" yMin="0" xMax="1389" yMax="1878">
      <contour>
        <pt x="66" y="0" on="1"/>
        <pt x="590" y="1495" on="1"/>
        <pt x="842" y="1495" on="1"/>
        <pt x="1389" y="0" on="1"/>
        <pt x="1237" y="0" on="1"/>
        <pt x="1079" y="414" on="1"/>
        <pt x="473" y="414" on="1"/>
        <pt x="311" y="0" on="1"/>
      </contour>
      <contour>
        <pt x="375" y="1741" on="1"/>
        <pt x="375" y="1812" on="0"/>
        <pt x="456" y="1878" on="0"/>
        <pt x="539" y="1878" on="1"/>
        <pt x="690" y="1878" on="0"/>
        <pt x="690" y="1741" on="1"/>
        <pt x="690" y="1676" on="0"/>
        <pt x="611" y="1610" on="0"/>
        <pt x="539" y="1610" on="1"/>
        <pt x="375" y="1610" on="0"/>
      </contour>
      <contour>
        <pt x="535" y="569" on="1"/>
        <pt x="1020" y="569" on="1"/>
        <pt x="780" y="1194" on="1"/>
      </contour>
      <contour>
        <pt x="805" y="1741" on="1"/>
        <pt x="805" y="1812" on="0"/>
        <pt x="886" y="1878" on="0"/>
        <pt x="969" y="1878" on="1"/>
        <pt x="1120" y="1878" on="0"/>
        <pt x="1120" y="1741" on="1"/>
        <pt x="1120" y="1676" on="0"/>
        <pt x="1041" y="1610" on="0"/>
        <pt x="969" y="1610" on="1"/>
        <pt x="805" y="1610" on="0"/>
      </contour>
    </TTGlyph>
    <TTGlyph name="Agrave" xMin="66" yMin="0" xMax="1389" yMax="1925">
      <contour>
        <pt x="66" y="0" on="1"/>
        <pt x="590" y="1495" on="1"/>
        <pt x="842" y="1495" on="1"/>
        <pt x="1389" y="0" on="1"/>
        <pt x="1237" y="0" on="1"/>
        <pt x="1079" y="414" on="1"/>
        <pt x="473" y="414" on="1"/>
        <pt x="311" y="0" on="1"/>
      </contour>
      <contour>
        <pt x="483" y="1925" on="1"/>
        <pt x="593" y="1947" on="0"/>
        <pt x="833" y="1886" on="0"/>
        <pt x="1024" y="1731" on="0"/>
        <pt x="1059" y="1628" on="1"/>
        <pt x="1034" y="1583" on="1"/>
        <pt x="952" y="1677" on="0"/>
        <pt x="612" y="1728" on="0"/>
        <pt x="494" y="1667" on="1"/>
      </contour>
      <contour>
        <pt x="535" y="569" on="1"/>
        <pt x="1020" y="569" on="1"/>
        <pt x="780" y="1194" on="1"/>
      </contour>
    </TTGlyph>
    <TTGlyph name="Aring" xMin="66" yMin="0" xMax="1389" yMax="2036">
      <contour>
        <pt x="66" y="0" on="1"/>
        <pt x="590" y="1495" on="1"/>
        <pt x="842" y="1495" on="1"/>
        <pt x="1389" y="0" on="1"/>
        <pt x="1237" y="0" on="1"/>
        <pt x="1079" y="414" on="1"/>
        <pt x="473" y="414" on="1"/>
        <pt x="311" y="0" on="1"/>
      </contour>
      <contour>
        <pt x="532" y="1812" on="1"/>
        <pt x="533" y="1926" on="0"/>
        <pt x="647" y="2036" on="0"/>
        <pt x="745" y="2036" on="1"/>
        <pt x="838" y="2036" on="0"/>
        <pt x="962" y="1924" on="0"/>
        <pt x="963" y="1812" on="1"/>
        <pt x="962" y="1707" on="0"/>
        <pt x="847" y="1604" on="0"/>
        <pt x="750" y="1604" on="1"/>
        <pt x="659" y="1604" on="0"/>
        <pt x="533" y="1710" on="0"/>
      </contour>
      <contour>
        <pt x="535" y="569" on="1"/>
        <pt x="1020" y="569" on="1"/>
        <pt x="780" y="1194" on="1"/>
      </contour>
      <contour>
        <pt x="604" y="1812" on="1"/>
        <pt x="604" y="1769" on="0"/>
        <pt x="678" y="1720" on="0"/>
        <pt x="750" y="1720" on="1"/>
        <pt x="820" y="1720" on="0"/>
        <pt x="895" y="1769" on="0"/>
        <pt x="893" y="1812" on="1"/>
        <pt x="891" y="1856" on="0"/>
        <pt x="816" y="1915" on="0"/>
        <pt x="745" y="1915" on="1"/>
        <pt x="676" y="1915" on="0"/>
        <pt x="604" y="1859" on="0"/>
      </contour>
    </TTGlyph>
    <TTGlyph name="Atilde" xMin="66" yMin="0" xMax="1389" yMax="1864">
      <contour>
        <pt x="66" y="0" on="1"/>
        <pt x="590" y="1495" on="1"/>
        <pt x="842" y="1495" on="1"/>
        <pt x="1389" y="0" on="1"/>
        <pt x="1237" y="0" on="1"/>
        <pt x="1079" y="414" on="1"/>
        <pt x="473" y="414" on="1"/>
        <pt x="311" y="0" on="1"/>
      </contour>
      <contour>
        <pt x="383" y="1636" on="1"/>
        <pt x="426" y="1759" on="0"/>
        <pt x="629" y="1888" on="0"/>
        <pt x="752" y="1855" on="1"/>
        <pt x="871" y="1825" on="0"/>
        <pt x="1070" y="1831" on="0"/>
        <pt x="1100" y="1864" on="1"/>
        <pt x="1114" y="1837" on="1"/>
        <pt x="1063" y="1708" on="0"/>
        <pt x="850" y="1592" on="0"/>
        <pt x="745" y="1628" on="1"/>
        <pt x="615" y="1667" on="0"/>
        <pt x="434" y="1652" on="0"/>
        <pt x="397" y="1610" on="1"/>
      </contour>
      <contour>
        <pt x="535" y="569" on="1"/>
        <pt x="1020" y="569" on="1"/>
        <pt x="780" y="1194" on="1"/>
      </contour>
    </TTGlyph>
    <TTGlyph name="B" xMin="172" yMin="0" xMax="1229" yMax="1495">
      <contour>
        <pt x="172" y="0" on="1"/>
        <pt x="172" y="1495" on="1"/>
        <pt x="705" y="1495" on="1"/>
        <pt x="945" y="1495" on="0"/>
        <pt x="1196" y="1279" on="0"/>
        <pt x="1196" y="1104" on="1"/>
        <pt x="1196" y="990" on="0"/>
        <pt x="1159" y="848" on="0"/>
        <pt x="1091" y="774" on="0"/>
        <pt x="1032" y="750" on="1"/>
        <pt x="1140" y="712" on="0"/>
        <pt x="1229" y="554" on="0"/>
        <pt x="1229" y="406" on="1"/>
        <pt x="1229" y="226" on="0"/>
        <pt x="974" y="0" on="0"/>
        <pt x="743" y="0" on="1"/>
      </contour>
      <contour>
        <pt x="319" y="328" on="1"/>
        <pt x="813" y="328" on="1"/>
        <pt x="942" y="328" on="0"/>
        <pt x="1075" y="432" on="0"/>
        <pt x="1075" y="588" on="0"/>
        <pt x="952" y="674" on="0"/>
        <pt x="807" y="674" on="1"/>
        <pt x="319" y="674" on="1"/>
      </contour>
      <contour>
        <pt x="319" y="821" on="1"/>
        <pt x="813" y="821" on="1"/>
        <pt x="947" y="821" on="0"/>
        <pt x="1049" y="914" on="0"/>
        <pt x="1049" y="997" on="1"/>
        <pt x="1049" y="1070" on="0"/>
        <pt x="921" y="1167" on="0"/>
        <pt x="772" y="1167" on="1"/>
        <pt x="319" y="1167" on="1"/>
      </contour>
    </TTGlyph>
    <TTGlyph name="C" xMin="154" yMin="-20" xMax="1362" yMax="1516">
      <contour>
        <pt x="154" y="725" on="1"/>
        <pt x="154" y="933" on="0"/>
        <pt x="244" y="1242" on="0"/>
        <pt x="410" y="1428" on="0"/>
        <pt x="520" y="1472" on="1"/>
        <pt x="627" y="1516" on="0"/>
        <pt x="760" y="1516" on="1"/>
        <pt x="763" y="1516" on="0"/>
        <pt x="766" y="1516" on="1"/>
        <pt x="880" y="1515" on="0"/>
        <pt x="1058" y="1473" on="0"/>
        <pt x="1210" y="1380" on="0"/>
        <pt x="1317" y="1218" on="0"/>
        <pt x="1346" y="1102" on="1"/>
        <pt x="1206" y="985" on="1"/>
        <pt x="1088" y="1133" on="0"/>
        <pt x="766" y="1133" on="1"/>
        <pt x="537" y="1133" on="0"/>
        <pt x="283" y="902" on="0"/>
        <pt x="281" y="700" on="1"/>
        <pt x="281" y="697" on="0"/>
        <pt x="281" y="694" on="1"/>
        <pt x="281" y="493" on="0"/>
        <pt x="404" y="379" on="1"/>
        <pt x="529" y="264" on="0"/>
        <pt x="774" y="264" on="1"/>
        <pt x="949" y="264" on="0"/>
        <pt x="1201" y="402" on="0"/>
        <pt x="1241" y="522" on="1"/>
        <pt x="1362" y="430" on="1"/>
        <pt x="1310" y="211" on="0"/>
        <pt x="1000" y="-20" on="0"/>
        <pt x="745" y="-20" on="1"/>
        <pt x="472" y="-20" on="0"/>
        <pt x="154" y="358" on="0"/>
      </contour>
    </TTGlyph>
    <TTGlyph name="Ccedilla" xMin="133" yMin="-430" xMax="1341" yMax="1516">
      <contour>
        <pt x="133" y="725" on="1"/>
        <pt x="133" y="933" on="0"/>
        <pt x="223" y="1242" on="0"/>
        <pt x="389" y="1428" on="0"/>
        <pt x="608" y="1517" on="0"/>
        <pt x="745" y="1516" on="1"/>
        <pt x="859" y="1515" on="0"/>
        <pt x="1037" y="1473" on="0"/>
        <pt x="1189" y="1380" on="0"/>
        <pt x="1296" y="1218" on="0"/>
        <pt x="1325" y="1102" on="1"/>
        <pt x="1186" y="985" on="1"/>
        <pt x="1068" y="1133" on="0"/>
        <pt x="745" y="1133" on="1"/>
        <pt x="516" y="1133" on="0"/>
        <pt x="262" y="902" on="0"/>
        <pt x="260" y="700" on="1"/>
        <pt x="258" y="494" on="0"/>
        <pt x="509" y="264" on="0"/>
        <pt x="754" y="264" on="1"/>
        <pt x="929" y="264" on="0"/>
        <pt x="1181" y="402" on="0"/>
        <pt x="1221" y="522" on="1"/>
        <pt x="1341" y="430" on="1"/>
        <pt x="1291" y="217" on="0"/>
        <pt x="998" y="-13" on="0"/>
        <pt x="756" y="-20" on="1"/>
        <pt x="752" y="-40" on="0"/>
        <pt x="752" y="-51" on="1"/>
        <pt x="752" y="-64" on="0"/>
        <pt x="768" y="-78" on="0"/>
        <pt x="825" y="-88" on="0"/>
        <pt x="877" y="-88" on="1"/>
        <pt x="932" y="-88" on="0"/>
        <pt x="999" y="-158" on="0"/>
        <pt x="999" y="-229" on="1"/>
        <pt x="999" y="-430" on="0"/>
        <pt x="729" y="-430" on="1"/>
        <pt x="643" y="-430" on="0"/>
        <pt x="500" y="-373" on="0"/>
        <pt x="489" y="-322" on="1"/>
        <pt x="561" y="-207" on="1"/>
        <pt x="577" y="-235" on="0"/>
        <pt x="674" y="-274" on="0"/>
        <pt x="739" y="-274" on="1"/>
        <pt x="836" y="-274" on="0"/>
        <pt x="905" y="-251" on="0"/>
        <pt x="905" y="-223" on="1"/>
        <pt x="905" y="-207" on="0"/>
        <pt x="876" y="-184" on="0"/>
        <pt x="852" y="-184" on="1"/>
        <pt x="833" y="-184" on="0"/>
        <pt x="749" y="-193" on="0"/>
        <pt x="733" y="-193" on="1"/>
        <pt x="687" y="-193" on="0"/>
        <pt x="625" y="-150" on="0"/>
        <pt x="625" y="-113" on="1"/>
        <pt x="625" y="-57" on="0"/>
        <pt x="645" y="-16" on="1"/>
        <pt x="407" y="11" on="0"/>
        <pt x="133" y="386" on="0"/>
      </contour>
    </TTGlyph>
    <TTGlyph name="D" xMin="287" yMin="0" xMax="1415" yMax="1495">
      <contour>
        <pt x="287" y="0" on="1"/>
        <pt x="287" y="1495" on="1"/>
        <pt x="784" y="1495" on="1"/>
        <pt x="925" y="1495" on="0"/>
        <pt x="1151" y="1410" on="0"/>
        <pt x="1322" y="1232" on="0"/>
        <pt x="1415" y="935" on="0"/>
        <pt x="1415" y="735" on="1"/>
        <pt x="1415" y="0" on="0"/>
        <pt x="793" y="0" on="1"/>
      </contour>
      <contour>
        <pt x="434" y="295" on="1"/>
        <pt x="862" y="295" on="1"/>
        <pt x="970" y="295" on="0"/>
        <pt x="1165" y="396" on="0"/>
        <pt x="1290" y="590" on="0"/>
        <pt x="1290" y="709" on="1"/>
        <pt x="1290" y="896" on="0"/>
        <pt x="1035" y="1137" on="0"/>
        <pt x="827" y="1137" on="1"/>
        <pt x="434" y="1137" on="1"/>
      </contour>
    </TTGlyph>
    <TTGlyph name="E" xMin="184" yMin="0" xMax="1106" yMax="1495">
      <contour>
        <pt x="184" y="0" on="1"/>
        <pt x="184" y="1495" on="1"/>
        <pt x="1094" y="1495" on="1"/>
        <pt x="1094" y="1126" on="1"/>
        <pt x="330" y="1126" on="1"/>
        <pt x="330" y="815" on="1"/>
        <pt x="907" y="815" on="1"/>
        <pt x="907" y="639" on="1"/>
        <pt x="330" y="639" on="1"/>
        <pt x="330" y="268" on="1"/>
        <pt x="1106" y="268" on="1"/>
        <pt x="1106" y="0" on="1"/>
      </contour>
    </TTGlyph>
    <TTGlyph name="Eacute" xMin="164" yMin="0" xMax="1085" yMax="1925">
      <contour>
        <pt x="164" y="0" on="1"/>
        <pt x="164" y="1495" on="1"/>
        <pt x="1073" y="1495" on="1"/>
        <pt x="1073" y="1126" on="1"/>
        <pt x="309" y="1126" on="1"/>
        <pt x="309" y="815" on="1"/>
        <pt x="887" y="815" on="1"/>
        <pt x="887" y="639" on="1"/>
        <pt x="309" y="639" on="1"/>
        <pt x="309" y="268" on="1"/>
        <pt x="1085" y="268" on="1"/>
        <pt x="1085" y="0" on="1"/>
      </contour>
      <contour>
        <pt x="317" y="1628" on="1"/>
        <pt x="352" y="1730" on="0"/>
        <pt x="544" y="1884" on="0"/>
        <pt x="784" y="1946" on="0"/>
        <pt x="893" y="1925" on="1"/>
        <pt x="883" y="1667" on="1"/>
        <pt x="764" y="1728" on="0"/>
        <pt x="424" y="1677" on="0"/>
        <pt x="342" y="1583" on="1"/>
      </contour>
    </TTGlyph>
    <TTGlyph name="Ecircumflex" xMin="164" yMin="0" xMax="1085" yMax="1966">
      <contour>
        <pt x="164" y="0" on="1"/>
        <pt x="164" y="1495" on="1"/>
        <pt x="1073" y="1495" on="1"/>
        <pt x="1073" y="1126" on="1"/>
        <pt x="309" y="1126" on="1"/>
        <pt x="309" y="815" on="1"/>
        <pt x="887" y="815" on="1"/>
        <pt x="887" y="639" on="1"/>
        <pt x="309" y="639" on="1"/>
        <pt x="309" y="268" on="1"/>
        <pt x="1085" y="268" on="1"/>
        <pt x="1085" y="0" on="1"/>
      </contour>
      <contour>
        <pt x="252" y="1608" on="1"/>
        <pt x="252" y="1677" on="1"/>
        <pt x="346" y="1693" on="0"/>
        <pt x="551" y="1869" on="0"/>
        <pt x="604" y="1966" on="1"/>
        <pt x="645" y="1966" on="1"/>
        <pt x="698" y="1869" on="0"/>
        <pt x="903" y="1693" on="0"/>
        <pt x="997" y="1677" on="1"/>
        <pt x="997" y="1608" on="1"/>
        <pt x="883" y="1600" on="0"/>
        <pt x="654" y="1660" on="0"/>
        <pt x="625" y="1718" on="1"/>
        <pt x="596" y="1660" on="0"/>
        <pt x="366" y="1600" on="0"/>
      </contour>
    </TTGlyph>
    <TTGlyph name="Edieresis" xMin="164" yMin="0" xMax="1085" yMax="1878">
      <contour>
        <pt x="164" y="0" on="1"/>
        <pt x="164" y="1495" on="1"/>
        <pt x="1073" y="1495" on="1"/>
        <pt x="1073" y="1126" on="1"/>
        <pt x="309" y="1126" on="1"/>
        <pt x="309" y="815" on="1"/>
        <pt x="887" y="815" on="1"/>
        <pt x="887" y="639" on="1"/>
        <pt x="309" y="639" on="1"/>
        <pt x="309" y="268" on="1"/>
        <pt x="1085" y="268" on="1"/>
        <pt x="1085" y="0" on="1"/>
      </contour>
      <contour>
        <pt x="252" y="1741" on="1"/>
        <pt x="252" y="1812" on="0"/>
        <pt x="333" y="1878" on="0"/>
        <pt x="416" y="1878" on="1"/>
        <pt x="567" y="1878" on="0"/>
        <pt x="567" y="1741" on="1"/>
        <pt x="567" y="1676" on="0"/>
        <pt x="488" y="1610" on="0"/>
        <pt x="416" y="1610" on="1"/>
        <pt x="252" y="1610" on="0"/>
      </contour>
      <contour>
        <pt x="682" y="1741" on="1"/>
        <pt x="682" y="1812" on="0"/>
        <pt x="763" y="1878" on="0"/>
        <pt x="846" y="1878" on="1"/>
        <pt x="997" y="1878" on="0"/>
        <pt x="997" y="1741" on="1"/>
        <pt x="997" y="1676" on="0"/>
        <pt x="918" y="1610" on="0"/>
        <pt x="846" y="1610" on="1"/>
        <pt x="682" y="1610" on="0"/>
      </contour>
    </TTGlyph>
    <TTGlyph name="Egrave" xMin="164" yMin="0" xMax="1085" yMax="1925">
      <contour>
        <pt x="164" y="0" on="1"/>
        <pt x="164" y="1495" on="1"/>
        <pt x="1073" y="1495" on="1"/>
        <pt x="1073" y="1126" on="1"/>
        <pt x="309" y="1126" on="1"/>
        <pt x="309" y="815" on="1"/>
        <pt x="887" y="815" on="1"/>
        <pt x="887" y="639" on="1"/>
        <pt x="309" y="639" on="1"/>
        <pt x="309" y="268" on="1"/>
        <pt x="1085" y="268" on="1"/>
        <pt x="1085" y="0" on="1"/>
      </contour>
      <contour>
        <pt x="360" y="1925" on="1"/>
        <pt x="470" y="1947" on="0"/>
        <pt x="710" y="1886" on="0"/>
        <pt x="901" y="1731" on="0"/>
        <pt x="936" y="1628" on="1"/>
        <pt x="911" y="1583" on="1"/>
        <pt x="829" y="1677" on="0"/>
        <pt x="489" y="1728" on="0"/>
        <pt x="371" y="1667" on="1"/>
      </contour>
    </TTGlyph>
    <TTGlyph name="Eth" xMin="102" yMin="0" xMax="1395" yMax="1495">
      <contour>
        <pt x="102" y="598" on="1"/>
        <pt x="102" y="825" on="1"/>
        <pt x="266" y="825" on="1"/>
        <pt x="266" y="1495" on="1"/>
        <pt x="764" y="1495" on="1"/>
        <pt x="905" y="1495" on="0"/>
        <pt x="1131" y="1410" on="0"/>
        <pt x="1302" y="1232" on="0"/>
        <pt x="1395" y="935" on="0"/>
        <pt x="1395" y="735" on="1"/>
        <pt x="1395" y="0" on="0"/>
        <pt x="772" y="0" on="1"/>
        <pt x="266" y="0" on="1"/>
        <pt x="266" y="598" on="1"/>
      </contour>
      <contour>
        <pt x="414" y="295" on="1"/>
        <pt x="842" y="295" on="1"/>
        <pt x="950" y="295" on="0"/>
        <pt x="1145" y="396" on="0"/>
        <pt x="1270" y="590" on="0"/>
        <pt x="1270" y="709" on="1"/>
        <pt x="1270" y="896" on="0"/>
        <pt x="1015" y="1137" on="0"/>
        <pt x="807" y="1137" on="1"/>
        <pt x="414" y="1137" on="1"/>
        <pt x="414" y="825" on="1"/>
        <pt x="856" y="825" on="1"/>
        <pt x="856" y="598" on="1"/>
        <pt x="414" y="598" on="1"/>
      </contour>
    </TTGlyph>
    <TTGlyph name="Euro" xMin="41" yMin="-20" xMax="1403" yMax="1516">
      <contour>
        <pt x="41" y="457" on="1"/>
        <pt x="41" y="623" on="1"/>
        <pt x="199" y="623" on="1"/>
        <pt x="195" y="689" on="0"/>
        <pt x="195" y="725" on="1"/>
        <pt x="195" y="743" on="1"/>
        <pt x="41" y="743" on="1"/>
        <pt x="41" y="909" on="1"/>
        <pt x="205" y="909" on="1"/>
        <pt x="224" y="1068" on="0"/>
        <pt x="328" y="1304" on="0"/>
        <pt x="487" y="1448" on="0"/>
        <pt x="686" y="1517" on="0"/>
        <pt x="807" y="1516" on="1"/>
        <pt x="921" y="1515" on="0"/>
        <pt x="1099" y="1473" on="0"/>
        <pt x="1251" y="1380" on="0"/>
        <pt x="1357" y="1218" on="0"/>
        <pt x="1386" y="1102" on="1"/>
        <pt x="1247" y="985" on="1"/>
        <pt x="1129" y="1133" on="0"/>
        <pt x="807" y="1133" on="1"/>
        <pt x="646" y="1133" on="0"/>
        <pt x="422" y="1016" on="0"/>
        <pt x="369" y="909" on="1"/>
        <pt x="836" y="909" on="1"/>
        <pt x="836" y="743" on="1"/>
        <pt x="324" y="743" on="1"/>
        <pt x="322" y="729" on="0"/>
        <pt x="322" y="700" on="1"/>
        <pt x="322" y="673" on="0"/>
        <pt x="326" y="623" on="1"/>
        <pt x="836" y="623" on="1"/>
        <pt x="836" y="457" on="1"/>
        <pt x="381" y="457" on="1"/>
        <pt x="497" y="264" on="0"/>
        <pt x="815" y="264" on="1"/>
        <pt x="990" y="264" on="0"/>
        <pt x="1242" y="402" on="0"/>
        <pt x="1282" y="522" on="1"/>
        <pt x="1403" y="430" on="1"/>
        <pt x="1351" y="211" on="0"/>
        <pt x="1041" y="-20" on="0"/>
        <pt x="786" y="-20" on="1"/>
        <pt x="569" y="-20" on="0"/>
        <pt x="274" y="220" on="0"/>
        <pt x="221" y="457" on="1"/>
      </contour>
    </TTGlyph>
    <TTGlyph name="F" xMin="266" yMin="0" xMax="1147" yMax="1495">
      <contour>
        <pt x="266" y="0" on="1"/>
        <pt x="266" y="1495" on="1"/>
        <pt x="1147" y="1495" on="1"/>
        <pt x="1147" y="1120" on="1"/>
        <pt x="414" y="1120" on="1"/>
        <pt x="414" y="811" on="1"/>
        <pt x="987" y="811" on="1"/>
        <pt x="987" y="549" on="1"/>
        <pt x="414" y="549" on="1"/>
        <pt x="414" y="0" on="1"/>
      </contour>
    </TTGlyph>
    <TTGlyph name="G" xMin="184" yMin="-20" xMax="1403" yMax="1516">
      <contour>
        <pt x="184" y="725" on="1"/>
        <pt x="184" y="934" on="0"/>
        <pt x="276" y="1243" on="0"/>
        <pt x="445" y="1428" on="0"/>
        <pt x="666" y="1516" on="0"/>
        <pt x="803" y="1516" on="1"/>
        <pt x="1029" y="1516" on="0"/>
        <pt x="1323" y="1311" on="0"/>
        <pt x="1384" y="1110" on="1"/>
        <pt x="1243" y="993" on="1"/>
        <pt x="1113" y="1153" on="0"/>
        <pt x="803" y="1153" on="1"/>
        <pt x="680" y="1153" on="0"/>
        <pt x="490" y="1080" on="0"/>
        <pt x="373" y="950" on="0"/>
        <pt x="314" y="783" on="0"/>
        <pt x="313" y="684" on="1"/>
        <pt x="313" y="489" on="0"/>
        <pt x="570" y="264" on="0"/>
        <pt x="803" y="264" on="1"/>
        <pt x="1017" y="264" on="0"/>
        <pt x="1267" y="428" on="0"/>
        <pt x="1280" y="596" on="1"/>
        <pt x="860" y="596" on="1"/>
        <pt x="860" y="745" on="1"/>
        <pt x="1403" y="745" on="1"/>
        <pt x="1403" y="0" on="1"/>
        <pt x="1292" y="0" on="1"/>
        <pt x="1272" y="166" on="1"/>
        <pt x="1131" y="-20" on="0"/>
        <pt x="799" y="-20" on="1"/>
        <pt x="513" y="-20" on="0"/>
        <pt x="184" y="356" on="0"/>
      </contour>
    </TTGlyph>
    <TTGlyph name="H" xMin="256" yMin="0" xMax="1341" yMax="1495">
      <contour>
        <pt x="256" y="0" on="1"/>
        <pt x="256" y="1495" on="1"/>
        <pt x="401" y="1495" on="1"/>
        <pt x="401" y="922" on="1"/>
        <pt x="1196" y="922" on="1"/>
        <pt x="1196" y="1495" on="1"/>
        <pt x="1341" y="1495" on="1"/>
        <pt x="1341" y="0" on="1"/>
        <pt x="1196" y="0" on="1"/>
        <pt x="1196" y="563" on="1"/>
        <pt x="401" y="563" on="1"/>
        <pt x="401" y="0" on="1"/>
      </contour>
    </TTGlyph>
    <TTGlyph name="I" xMin="123" yMin="0" xMax="860" yMax="1495">
      <contour>
        <pt x="123" y="0" on="1"/>
        <pt x="123" y="289" on="1"/>
        <pt x="422" y="289" on="1"/>
        <pt x="422" y="1126" on="1"/>
        <pt x="135" y="1126" on="1"/>
        <pt x="135" y="1495" on="1"/>
        <pt x="848" y="1495" on="1"/>
        <pt x="848" y="1126" on="1"/>
        <pt x="569" y="1126" on="1"/>
        <pt x="569" y="289" on="1"/>
        <pt x="860" y="289" on="1"/>
        <pt x="860" y="0" on="1"/>
      </contour>
    </TTGlyph>
    <TTGlyph name="Iacute" xMin="102" yMin="0" xMax="840" yMax="1925">
      <contour>
        <pt x="102" y="0" on="1"/>
        <pt x="102" y="289" on="1"/>
        <pt x="401" y="289" on="1"/>
        <pt x="401" y="1126" on="1"/>
        <pt x="115" y="1126" on="1"/>
        <pt x="115" y="1495" on="1"/>
        <pt x="827" y="1495" on="1"/>
        <pt x="827" y="1126" on="1"/>
        <pt x="549" y="1126" on="1"/>
        <pt x="549" y="289" on="1"/>
        <pt x="840" y="289" on="1"/>
        <pt x="840" y="0" on="1"/>
      </contour>
      <contour>
        <pt x="195" y="1628" on="1"/>
        <pt x="230" y="1730" on="0"/>
        <pt x="421" y="1884" on="0"/>
        <pt x="661" y="1946" on="0"/>
        <pt x="770" y="1925" on="1"/>
        <pt x="760" y="1667" on="1"/>
        <pt x="641" y="1728" on="0"/>
        <pt x="301" y="1677" on="0"/>
        <pt x="219" y="1583" on="1"/>
      </contour>
    </TTGlyph>
    <TTGlyph name="Icircumflex" xMin="102" yMin="0" xMax="854" yMax="1966">
      <contour>
        <pt x="102" y="0" on="1"/>
        <pt x="102" y="289" on="1"/>
        <pt x="401" y="289" on="1"/>
        <pt x="401" y="1126" on="1"/>
        <pt x="115" y="1126" on="1"/>
        <pt x="115" y="1495" on="1"/>
        <pt x="827" y="1495" on="1"/>
        <pt x="827" y="1126" on="1"/>
        <pt x="549" y="1126" on="1"/>
        <pt x="549" y="289" on="1"/>
        <pt x="840" y="289" on="1"/>
        <pt x="840" y="0" on="1"/>
      </contour>
      <contour>
        <pt x="109" y="1608" on="1"/>
        <pt x="109" y="1677" on="1"/>
        <pt x="203" y="1693" on="0"/>
        <pt x="408" y="1869" on="0"/>
        <pt x="461" y="1966" on="1"/>
        <pt x="502" y="1966" on="1"/>
        <pt x="555" y="1869" on="0"/>
        <pt x="760" y="1693" on="0"/>
        <pt x="854" y="1677" on="1"/>
        <pt x="854" y="1608" on="1"/>
        <pt x="740" y="1600" on="0"/>
        <pt x="510" y="1660" on="0"/>
        <pt x="481" y="1718" on="1"/>
        <pt x="452" y="1660" on="0"/>
        <pt x="223" y="1600" on="0"/>
      </contour>
    </TTGlyph>
    <TTGlyph name="Idieresis" xMin="102" yMin="0" xMax="854" yMax="1878">
      <contour>
        <pt x="102" y="0" on="1"/>
        <pt x="102" y="289" on="1"/>
        <pt x="401" y="289" on="1"/>
        <pt x="401" y="1126" on="1"/>
        <pt x="115" y="1126" on="1"/>
        <pt x="115" y="1495" on="1"/>
        <pt x="827" y="1495" on="1"/>
        <pt x="827" y="1126" on="1"/>
        <pt x="549" y="1126" on="1"/>
        <pt x="549" y="289" on="1"/>
        <pt x="840" y="289" on="1"/>
        <pt x="840" y="0" on="1"/>
      </contour>
      <contour>
        <pt x="109" y="1741" on="1"/>
        <pt x="109" y="1812" on="0"/>
        <pt x="189" y="1878" on="0"/>
        <pt x="272" y="1878" on="1"/>
        <pt x="424" y="1878" on="0"/>
        <pt x="424" y="1741" on="1"/>
        <pt x="424" y="1676" on="0"/>
        <pt x="344" y="1610" on="0"/>
        <pt x="272" y="1610" on="1"/>
        <pt x="109" y="1610" on="0"/>
      </contour>
      <contour>
        <pt x="539" y="1741" on="1"/>
        <pt x="539" y="1812" on="0"/>
        <pt x="619" y="1878" on="0"/>
        <pt x="702" y="1878" on="1"/>
        <pt x="854" y="1878" on="0"/>
        <pt x="854" y="1741" on="1"/>
        <pt x="854" y="1676" on="0"/>
        <pt x="774" y="1610" on="0"/>
        <pt x="702" y="1610" on="1"/>
        <pt x="539" y="1610" on="0"/>
      </contour>
    </TTGlyph>
    <TTGlyph name="Igrave" xMin="102" yMin="0" xMax="840" yMax="1925">
      <contour>
        <pt x="102" y="0" on="1"/>
        <pt x="102" y="289" on="1"/>
        <pt x="401" y="289" on="1"/>
        <pt x="401" y="1126" on="1"/>
        <pt x="115" y="1126" on="1"/>
        <pt x="115" y="1495" on="1"/>
        <pt x="827" y="1495" on="1"/>
        <pt x="827" y="1126" on="1"/>
        <pt x="549" y="1126" on="1"/>
        <pt x="549" y="289" on="1"/>
        <pt x="840" y="289" on="1"/>
        <pt x="840" y="0" on="1"/>
      </contour>
      <contour>
        <pt x="197" y="1925" on="1"/>
        <pt x="307" y="1947" on="0"/>
        <pt x="546" y="1886" on="0"/>
        <pt x="737" y="1731" on="0"/>
        <pt x="772" y="1628" on="1"/>
        <pt x="748" y="1583" on="1"/>
        <pt x="666" y="1677" on="0"/>
        <pt x="325" y="1728" on="0"/>
        <pt x="207" y="1667" on="1"/>
      </contour>
    </TTGlyph>
    <TTGlyph name="J" xMin="205" yMin="-20" xMax="973" yMax="1495">
      <contour>
        <pt x="205" y="119" on="1"/>
        <pt x="258" y="352" on="1"/>
        <pt x="315" y="310" on="0"/>
        <pt x="477" y="264" on="0"/>
        <pt x="557" y="264" on="1"/>
        <pt x="687" y="264" on="0"/>
        <pt x="829" y="443" on="0"/>
        <pt x="829" y="627" on="1"/>
        <pt x="829" y="1137" on="1"/>
        <pt x="397" y="1137" on="1"/>
        <pt x="397" y="1495" on="1"/>
        <pt x="973" y="1495" on="1"/>
        <pt x="973" y="565" on="1"/>
        <pt x="973" y="254" on="0"/>
        <pt x="777" y="-20" on="0"/>
        <pt x="565" y="-20" on="1"/>
        <pt x="454" y="-20" on="0"/>
        <pt x="247" y="54" on="0"/>
      </contour>
    </TTGlyph>
    <TTGlyph name="K" xMin="184" yMin="0" xMax="1315" yMax="1499">
      <contour>
        <pt x="184" y="0" on="1"/>
        <pt x="184" y="1499" on="1"/>
        <pt x="330" y="1499" on="1"/>
        <pt x="330" y="838" on="1"/>
        <pt x="903" y="1495" on="1"/>
        <pt x="1315" y="1495" on="1"/>
        <pt x="672" y="799" on="1"/>
        <pt x="1235" y="0" on="1"/>
        <pt x="1053" y="0" on="1"/>
        <pt x="565" y="682" on="1"/>
        <pt x="330" y="428" on="1"/>
        <pt x="330" y="0" on="1"/>
      </contour>
    </TTGlyph>
    <TTGlyph name="L" xMin="174" yMin="0" xMax="932" yMax="1495">
      <contour>
        <pt x="174" y="0" on="1"/>
        <pt x="174" y="1495" on="1"/>
        <pt x="313" y="1495" on="1"/>
        <pt x="313" y="297" on="1"/>
        <pt x="932" y="297" on="1"/>
        <pt x="932" y="0" on="1"/>
      </contour>
    </TTGlyph>
    <TTGlyph name="M" xMin="184" yMin="0" xMax="1618" yMax="1495">
      <contour>
        <pt x="184" y="0" on="1"/>
        <pt x="184" y="1495" on="1"/>
        <pt x="522" y="1495" on="1"/>
        <pt x="911" y="244" on="1"/>
        <pt x="1307" y="1495" on="1"/>
        <pt x="1618" y="1495" on="1"/>
        <pt x="1618" y="0" on="1"/>
        <pt x="1475" y="0" on="1"/>
        <pt x="1475" y="1202" on="1"/>
        <pt x="1042" y="0" on="1"/>
        <pt x="797" y="0" on="1"/>
        <pt x="338" y="1210" on="1"/>
        <pt x="338" y="0" on="1"/>
      </contour>
    </TTGlyph>
    <TTGlyph name="N" xMin="215" yMin="0" xMax="1382" yMax="1495">
      <contour>
        <pt x="215" y="0" on="1"/>
        <pt x="215" y="1495" on="1"/>
        <pt x="555" y="1495" on="1"/>
        <pt x="1235" y="217" on="1"/>
        <pt x="1235" y="1495" on="1"/>
        <pt x="1382" y="1495" on="1"/>
        <pt x="1382" y="0" on="1"/>
        <pt x="1083" y="0" on="1"/>
        <pt x="362" y="1208" on="1"/>
        <pt x="362" y="0" on="1"/>
      </contour>
    </TTGlyph>
    <TTGlyph name="Ntilde" xMin="195" yMin="0" xMax="1362" yMax="1864">
      <contour>
        <pt x="195" y="0" on="1"/>
        <pt x="195" y="1495" on="1"/>
        <pt x="535" y="1495" on="1"/>
        <pt x="1214" y="217" on="1"/>
        <pt x="1214" y="1495" on="1"/>
        <pt x="1362" y="1495" on="1"/>
        <pt x="1362" y="0" on="1"/>
        <pt x="1063" y="0" on="1"/>
        <pt x="342" y="1208" on="1"/>
        <pt x="342" y="0" on="1"/>
      </contour>
      <contour>
        <pt x="383" y="1636" on="1"/>
        <pt x="426" y="1759" on="0"/>
        <pt x="629" y="1888" on="0"/>
        <pt x="752" y="1855" on="1"/>
        <pt x="871" y="1825" on="0"/>
        <pt x="1070" y="1831" on="0"/>
        <pt x="1100" y="1864" on="1"/>
        <pt x="1114" y="1837" on="1"/>
        <pt x="1063" y="1708" on="0"/>
        <pt x="850" y="1592" on="0"/>
        <pt x="745" y="1628" on="1"/>
        <pt x="615" y="1667" on="0"/>
        <pt x="434" y="1652" on="0"/>
        <pt x="397" y="1610" on="1"/>
      </contour>
    </TTGlyph>
    <TTGlyph name="O" xMin="139" yMin="-20" xMax="1356" yMax="1516">
      <contour>
        <pt x="139" y="719" on="1"/>
        <pt x="139" y="930" on="0"/>
        <pt x="227" y="1241" on="0"/>
        <pt x="391" y="1427" on="0"/>
        <pt x="609" y="1516" on="0"/>
        <pt x="748" y="1516" on="1"/>
        <pt x="858" y="1516" on="0"/>
        <pt x="1041" y="1461" on="0"/>
        <pt x="1194" y="1340" on="0"/>
        <pt x="1298" y="1156" on="0"/>
        <pt x="1356" y="888" on="0"/>
        <pt x="1356" y="719" on="1"/>
        <pt x="1356" y="530" on="0"/>
        <pt x="1266" y="243" on="0"/>
        <pt x="1102" y="67" on="0"/>
        <pt x="883" y="-20" on="0"/>
        <pt x="748" y="-20" on="1"/>
        <pt x="641" y="-20" on="0"/>
        <pt x="458" y="34" on="0"/>
        <pt x="305" y="150" on="0"/>
        <pt x="198" y="321" on="0"/>
        <pt x="139" y="567" on="0"/>
      </contour>
      <contour>
        <pt x="266" y="719" on="1"/>
        <pt x="266" y="716" on="0"/>
        <pt x="266" y="713" on="1"/>
        <pt x="266" y="594" on="0"/>
        <pt x="303" y="506" on="1"/>
        <pt x="341" y="416" on="0"/>
        <pt x="478" y="312" on="0"/>
        <pt x="646" y="264" on="0"/>
        <pt x="748" y="264" on="1"/>
        <pt x="852" y="264" on="0"/>
        <pt x="1020" y="311" on="0"/>
        <pt x="1088" y="362" on="1"/>
        <pt x="1156" y="414" on="0"/>
        <pt x="1194" y="504" on="1"/>
        <pt x="1231" y="592" on="0"/>
        <pt x="1231" y="713" on="1"/>
        <pt x="1231" y="716" on="0"/>
        <pt x="1231" y="719" on="1"/>
        <pt x="1228" y="898" on="0"/>
        <pt x="978" y="1114" on="0"/>
        <pt x="748" y="1114" on="1"/>
        <pt x="517" y="1114" on="0"/>
        <pt x="268" y="898" on="0"/>
      </contour>
    </TTGlyph>
    <TTGlyph name="OE" xMin="137" yMin="-20" xMax="1790" yMax="1516">
      <contour>
        <pt x="137" y="721" on="1"/>
        <pt x="137" y="932" on="0"/>
        <pt x="227" y="1242" on="0"/>
        <pt x="397" y="1428" on="0"/>
        <pt x="622" y="1516" on="0"/>
        <pt x="766" y="1516" on="1"/>
        <pt x="878" y="1516" on="0"/>
        <pt x="981" y="1491" on="1"/>
        <pt x="981" y="1495" on="1"/>
        <pt x="1778" y="1495" on="1"/>
        <pt x="1778" y="1128" on="1"/>
        <pt x="1122" y="1128" on="1"/>
        <pt x="1122" y="815" on="1"/>
        <pt x="1591" y="815" on="1"/>
        <pt x="1591" y="639" on="1"/>
        <pt x="1122" y="639" on="1"/>
        <pt x="1122" y="268" on="1"/>
        <pt x="1790" y="268" on="1"/>
        <pt x="1790" y="0" on="1"/>
        <pt x="981" y="0" on="1"/>
        <pt x="981" y="4" on="1"/>
        <pt x="886" y="-20" on="0"/>
        <pt x="768" y="-20" on="1"/>
        <pt x="471" y="-20" on="0"/>
        <pt x="137" y="349" on="0"/>
      </contour>
      <contour>
        <pt x="266" y="713" on="1"/>
        <pt x="264" y="499" on="0"/>
        <pt x="521" y="264" on="0"/>
        <pt x="766" y="264" on="1"/>
        <pt x="875" y="264" on="0"/>
        <pt x="981" y="303" on="1"/>
        <pt x="981" y="1075" on="1"/>
        <pt x="875" y="1114" on="0"/>
        <pt x="756" y="1114" on="1"/>
        <pt x="516" y="1114" on="0"/>
        <pt x="268" y="898" on="0"/>
      </contour>
    </TTGlyph>
    <TTGlyph name="Oacute" xMin="119" yMin="-20" xMax="1335" yMax="1925">
      <contour>
        <pt x="119" y="719" on="1"/>
        <pt x="119" y="888" on="0"/>
        <pt x="177" y="1156" on="0"/>
        <pt x="281" y="1340" on="0"/>
        <pt x="434" y="1461" on="0"/>
        <pt x="617" y="1516" on="0"/>
        <pt x="837" y="1516" on="0"/>
        <pt x="1020" y="1461" on="0"/>
        <pt x="1173" y="1340" on="0"/>
        <pt x="1277" y="1156" on="0"/>
        <pt x="1335" y="888" on="0"/>
        <pt x="1335" y="719" on="1"/>
        <pt x="1335" y="530" on="0"/>
        <pt x="1245" y="243" on="0"/>
        <pt x="1081" y="67" on="0"/>
        <pt x="862" y="-20" on="0"/>
        <pt x="592" y="-20" on="0"/>
        <pt x="374" y="67" on="0"/>
        <pt x="209" y="243" on="0"/>
        <pt x="119" y="530" on="0"/>
      </contour>
      <contour>
        <pt x="246" y="719" on="1"/>
        <pt x="245" y="596" on="0"/>
        <pt x="321" y="415" on="0"/>
        <pt x="457" y="312" on="0"/>
        <pt x="625" y="264" on="0"/>
        <pt x="727" y="264" on="1"/>
        <pt x="831" y="264" on="0"/>
        <pt x="999" y="311" on="0"/>
        <pt x="1136" y="414" on="0"/>
        <pt x="1211" y="595" on="0"/>
        <pt x="1210" y="719" on="1"/>
        <pt x="1207" y="898" on="0"/>
        <pt x="957" y="1114" on="0"/>
        <pt x="727" y="1114" on="1"/>
        <pt x="496" y="1114" on="0"/>
        <pt x="248" y="898" on="0"/>
      </contour>
      <contour>
        <pt x="420" y="1628" on="1"/>
        <pt x="455" y="1730" on="0"/>
        <pt x="646" y="1884" on="0"/>
        <pt x="886" y="1946" on="0"/>
        <pt x="995" y="1925" on="1"/>
        <pt x="985" y="1667" on="1"/>
        <pt x="866" y="1728" on="0"/>
        <pt x="526" y="1677" on="0"/>
        <pt x="444" y="1583" on="1"/>
      </contour>
    </TTGlyph>
    <TTGlyph name="Ocircumflex" xMin="119" yMin="-20" xMax="1335" yMax="1966">
      <contour>
        <pt x="119" y="719" on="1"/>
        <pt x="119" y="888" on="0"/>
        <pt x="177" y="1156" on="0"/>
        <pt x="281" y="1340" on="0"/>
        <pt x="434" y="1461" on="0"/>
        <pt x="617" y="1516" on="0"/>
        <pt x="837" y="1516" on="0"/>
        <pt x="1020" y="1461" on="0"/>
        <pt x="1173" y="1340" on="0"/>
        <pt x="1277" y="1156" on="0"/>
        <pt x="1335" y="888" on="0"/>
        <pt x="1335" y="719" on="1"/>
        <pt x="1335" y="530" on="0"/>
        <pt x="1245" y="243" on="0"/>
        <pt x="1081" y="67" on="0"/>
        <pt x="862" y="-20" on="0"/>
        <pt x="592" y="-20" on="0"/>
        <pt x="374" y="67" on="0"/>
        <pt x="209" y="243" on="0"/>
        <pt x="119" y="530" on="0"/>
      </contour>
      <contour>
        <pt x="246" y="719" on="1"/>
        <pt x="245" y="596" on="0"/>
        <pt x="321" y="415" on="0"/>
        <pt x="457" y="312" on="0"/>
        <pt x="625" y="264" on="0"/>
        <pt x="727" y="264" on="1"/>
        <pt x="831" y="264" on="0"/>
        <pt x="999" y="311" on="0"/>
        <pt x="1136" y="414" on="0"/>
        <pt x="1211" y="595" on="0"/>
        <pt x="1210" y="719" on="1"/>
        <pt x="1207" y="898" on="0"/>
        <pt x="957" y="1114" on="0"/>
        <pt x="727" y="1114" on="1"/>
        <pt x="496" y="1114" on="0"/>
        <pt x="248" y="898" on="0"/>
      </contour>
      <contour>
        <pt x="375" y="1608" on="1"/>
        <pt x="375" y="1677" on="1"/>
        <pt x="469" y="1693" on="0"/>
        <pt x="674" y="1869" on="0"/>
        <pt x="727" y="1966" on="1"/>
        <pt x="768" y="1966" on="1"/>
        <pt x="821" y="1869" on="0"/>
        <pt x="1026" y="1693" on="0"/>
        <pt x="1120" y="1677" on="1"/>
        <pt x="1120" y="1608" on="1"/>
        <pt x="1006" y="1600" on="0"/>
        <pt x="777" y="1660" on="0"/>
        <pt x="748" y="1718" on="1"/>
        <pt x="719" y="1660" on="0"/>
        <pt x="489" y="1600" on="0"/>
      </contour>
    </TTGlyph>
    <TTGlyph name="Odieresis" xMin="119" yMin="-20" xMax="1335" yMax="1878">
      <contour>
        <pt x="119" y="719" on="1"/>
        <pt x="119" y="888" on="0"/>
        <pt x="177" y="1156" on="0"/>
        <pt x="281" y="1340" on="0"/>
        <pt x="434" y="1461" on="0"/>
        <pt x="617" y="1516" on="0"/>
        <pt x="837" y="1516" on="0"/>
        <pt x="1020" y="1461" on="0"/>
        <pt x="1173" y="1340" on="0"/>
        <pt x="1277" y="1156" on="0"/>
        <pt x="1335" y="888" on="0"/>
        <pt x="1335" y="719" on="1"/>
        <pt x="1335" y="530" on="0"/>
        <pt x="1245" y="243" on="0"/>
        <pt x="1081" y="67" on="0"/>
        <pt x="862" y="-20" on="0"/>
        <pt x="592" y="-20" on="0"/>
        <pt x="374" y="67" on="0"/>
        <pt x="209" y="243" on="0"/>
        <pt x="119" y="530" on="0"/>
      </contour>
      <contour>
        <pt x="246" y="719" on="1"/>
        <pt x="245" y="596" on="0"/>
        <pt x="321" y="415" on="0"/>
        <pt x="457" y="312" on="0"/>
        <pt x="625" y="264" on="0"/>
        <pt x="727" y="264" on="1"/>
        <pt x="831" y="264" on="0"/>
        <pt x="999" y="311" on="0"/>
        <pt x="1136" y="414" on="0"/>
        <pt x="1211" y="595" on="0"/>
        <pt x="1210" y="719" on="1"/>
        <pt x="1207" y="898" on="0"/>
        <pt x="957" y="1114" on="0"/>
        <pt x="727" y="1114" on="1"/>
        <pt x="496" y="1114" on="0"/>
        <pt x="248" y="898" on="0"/>
      </contour>
      <contour>
        <pt x="375" y="1741" on="1"/>
        <pt x="375" y="1812" on="0"/>
        <pt x="456" y="1878" on="0"/>
        <pt x="539" y="1878" on="1"/>
        <pt x="690" y="1878" on="0"/>
        <pt x="690" y="1741" on="1"/>
        <pt x="690" y="1676" on="0"/>
        <pt x="611" y="1610" on="0"/>
        <pt x="539" y="1610" on="1"/>
        <pt x="375" y="1610" on="0"/>
      </contour>
      <contour>
        <pt x="805" y="1741" on="1"/>
        <pt x="805" y="1812" on="0"/>
        <pt x="886" y="1878" on="0"/>
        <pt x="969" y="1878" on="1"/>
        <pt x="1120" y="1878" on="0"/>
        <pt x="1120" y="1741" on="1"/>
        <pt x="1120" y="1676" on="0"/>
        <pt x="1041" y="1610" on="0"/>
        <pt x="969" y="1610" on="1"/>
        <pt x="805" y="1610" on="0"/>
      </contour>
    </TTGlyph>
    <TTGlyph name="Ograve" xMin="119" yMin="-20" xMax="1335" yMax="1925">
      <contour>
        <pt x="119" y="719" on="1"/>
        <pt x="119" y="888" on="0"/>
        <pt x="177" y="1156" on="0"/>
        <pt x="281" y="1340" on="0"/>
        <pt x="434" y="1461" on="0"/>
        <pt x="617" y="1516" on="0"/>
        <pt x="837" y="1516" on="0"/>
        <pt x="1020" y="1461" on="0"/>
        <pt x="1173" y="1340" on="0"/>
        <pt x="1277" y="1156" on="0"/>
        <pt x="1335" y="888" on="0"/>
        <pt x="1335" y="719" on="1"/>
        <pt x="1335" y="530" on="0"/>
        <pt x="1245" y="243" on="0"/>
        <pt x="1081" y="67" on="0"/>
        <pt x="862" y="-20" on="0"/>
        <pt x="592" y="-20" on="0"/>
        <pt x="374" y="67" on="0"/>
        <pt x="209" y="243" on="0"/>
        <pt x="119" y="530" on="0"/>
      </contour>
      <contour>
        <pt x="246" y="719" on="1"/>
        <pt x="245" y="596" on="0"/>
        <pt x="321" y="415" on="0"/>
        <pt x="457" y="312" on="0"/>
        <pt x="625" y="264" on="0"/>
        <pt x="727" y="264" on="1"/>
        <pt x="831" y="264" on="0"/>
        <pt x="999" y="311" on="0"/>
        <pt x="1136" y="414" on="0"/>
        <pt x="1211" y="595" on="0"/>
        <pt x="1210" y="719" on="1"/>
        <pt x="1207" y="898" on="0"/>
        <pt x="957" y="1114" on="0"/>
        <pt x="727" y="1114" on="1"/>
        <pt x="496" y="1114" on="0"/>
        <pt x="248" y="898" on="0"/>
      </contour>
      <contour>
        <pt x="483" y="1925" on="1"/>
        <pt x="593" y="1947" on="0"/>
        <pt x="833" y="1886" on="0"/>
        <pt x="1024" y="1731" on="0"/>
        <pt x="1059" y="1628" on="1"/>
        <pt x="1034" y="1583" on="1"/>
        <pt x="952" y="1677" on="0"/>
        <pt x="612" y="1728" on="0"/>
        <pt x="494" y="1667" on="1"/>
      </contour>
    </TTGlyph>
    <TTGlyph name="Oslash" xMin="119" yMin="-164" xMax="1335" yMax="1606">
      <contour>
        <pt x="119" y="719" on="1"/>
        <pt x="119" y="888" on="0"/>
        <pt x="177" y="1156" on="0"/>
        <pt x="281" y="1340" on="0"/>
        <pt x="434" y="1461" on="0"/>
        <pt x="617" y="1516" on="0"/>
        <pt x="727" y="1516" on="1"/>
        <pt x="908" y="1516" on="0"/>
        <pt x="1036" y="1442" on="1"/>
        <pt x="1112" y="1606" on="1"/>
        <pt x="1270" y="1577" on="1"/>
        <pt x="1159" y="1341" on="1"/>
        <pt x="1335" y="1140" on="0"/>
        <pt x="1335" y="719" on="1"/>
        <pt x="1335" y="530" on="0"/>
        <pt x="1245" y="243" on="0"/>
        <pt x="1081" y="67" on="0"/>
        <pt x="862" y="-20" on="0"/>
        <pt x="727" y="-20" on="1"/>
        <pt x="626" y="-20" on="0"/>
        <pt x="537" y="4" on="1"/>
        <pt x="459" y="-164" on="1"/>
        <pt x="301" y="-135" on="1"/>
        <pt x="395" y="68" on="1"/>
        <pt x="263" y="150" on="0"/>
        <pt x="119" y="476" on="0"/>
      </contour>
      <contour>
        <pt x="246" y="719" on="1"/>
        <pt x="243" y="397" on="0"/>
        <pt x="504" y="299" on="1"/>
        <pt x="877" y="1100" on="1"/>
        <pt x="814" y="1114" on="0"/>
        <pt x="727" y="1114" on="1"/>
        <pt x="496" y="1114" on="0"/>
        <pt x="248" y="898" on="0"/>
      </contour>
      <contour>
        <pt x="659" y="266" on="1"/>
        <pt x="682" y="264" on="0"/>
        <pt x="727" y="264" on="1"/>
        <pt x="831" y="264" on="0"/>
        <pt x="999" y="311" on="0"/>
        <pt x="1136" y="414" on="0"/>
        <pt x="1211" y="595" on="0"/>
        <pt x="1210" y="719" on="1"/>
        <pt x="1208" y="828" on="0"/>
        <pt x="1113" y="997" on="0"/>
        <pt x="1022" y="1047" on="1"/>
      </contour>
    </TTGlyph>
    <TTGlyph name="Otilde" xMin="119" yMin="-20" xMax="1335" yMax="1864">
      <contour>
        <pt x="119" y="719" on="1"/>
        <pt x="119" y="888" on="0"/>
        <pt x="177" y="1156" on="0"/>
        <pt x="281" y="1340" on="0"/>
        <pt x="434" y="1461" on="0"/>
        <pt x="617" y="1516" on="0"/>
        <pt x="837" y="1516" on="0"/>
        <pt x="1020" y="1461" on="0"/>
        <pt x="1173" y="1340" on="0"/>
        <pt x="1277" y="1156" on="0"/>
        <pt x="1335" y="888" on="0"/>
        <pt x="1335" y="719" on="1"/>
        <pt x="1335" y="530" on="0"/>
        <pt x="1245" y="243" on="0"/>
        <pt x="1081" y="67" on="0"/>
        <pt x="862" y="-20" on="0"/>
        <pt x="592" y="-20" on="0"/>
        <pt x="374" y="67" on="0"/>
        <pt x="209" y="243" on="0"/>
        <pt x="119" y="530" on="0"/>
      </contour>
      <contour>
        <pt x="246" y="719" on="1"/>
        <pt x="245" y="596" on="0"/>
        <pt x="321" y="415" on="0"/>
        <pt x="457" y="312" on="0"/>
        <pt x="625" y="264" on="0"/>
        <pt x="727" y="264" on="1"/>
        <pt x="831" y="264" on="0"/>
        <pt x="999" y="311" on="0"/>
        <pt x="1136" y="414" on="0"/>
        <pt x="1211" y="595" on="0"/>
        <pt x="1210" y="719" on="1"/>
        <pt x="1207" y="898" on="0"/>
        <pt x="957" y="1114" on="0"/>
        <pt x="727" y="1114" on="1"/>
        <pt x="496" y="1114" on="0"/>
        <pt x="248" y="898" on="0"/>
      </contour>
      <contour>
        <pt x="383" y="1636" on="1"/>
        <pt x="426" y="1759" on="0"/>
        <pt x="629" y="1888" on="0"/>
        <pt x="752" y="1855" on="1"/>
        <pt x="871" y="1825" on="0"/>
        <pt x="1070" y="1831" on="0"/>
        <pt x="1100" y="1864" on="1"/>
        <pt x="1114" y="1837" on="1"/>
        <pt x="1063" y="1708" on="0"/>
        <pt x="850" y="1592" on="0"/>
        <pt x="745" y="1628" on="1"/>
        <pt x="615" y="1667" on="0"/>
        <pt x="434" y="1652" on="0"/>
        <pt x="397" y="1610" on="1"/>
      </contour>
    </TTGlyph>
    <TTGlyph name="P" xMin="215" yMin="0" xMax="1229" yMax="1495">
      <contour>
        <pt x="215" y="0" on="1"/>
        <pt x="215" y="1495" on="1"/>
        <pt x="666" y="1495" on="1"/>
        <pt x="947" y="1495" on="0"/>
        <pt x="1229" y="1225" on="0"/>
        <pt x="1229" y="922" on="1"/>
        <pt x="1229" y="648" on="0"/>
        <pt x="947" y="389" on="0"/>
        <pt x="664" y="389" on="1"/>
        <pt x="360" y="389" on="1"/>
        <pt x="360" y="0" on="1"/>
      </contour>
      <contour>
        <pt x="360" y="692" on="1"/>
        <pt x="745" y="692" on="1"/>
        <pt x="914" y="692" on="0"/>
        <pt x="1010" y="758" on="1"/>
        <pt x="1105" y="822" on="0"/>
        <pt x="1104" y="918" on="1"/>
        <pt x="1104" y="1028" on="0"/>
        <pt x="1010" y="1094" on="1"/>
        <pt x="918" y="1158" on="0"/>
        <pt x="745" y="1159" on="1"/>
        <pt x="360" y="1159" on="1"/>
      </contour>
    </TTGlyph>
    <TTGlyph name="Q" xMin="119" yMin="-174" xMax="1346" yMax="1516">
      <contour>
        <pt x="119" y="719" on="1"/>
        <pt x="119" y="888" on="0"/>
        <pt x="177" y="1156" on="0"/>
        <pt x="281" y="1340" on="0"/>
        <pt x="434" y="1461" on="0"/>
        <pt x="617" y="1516" on="0"/>
        <pt x="837" y="1516" on="0"/>
        <pt x="1020" y="1461" on="0"/>
        <pt x="1173" y="1340" on="0"/>
        <pt x="1277" y="1156" on="0"/>
        <pt x="1335" y="888" on="0"/>
        <pt x="1335" y="719" on="1"/>
        <pt x="1335" y="325" on="0"/>
        <pt x="1143" y="133" on="1"/>
        <pt x="1346" y="-174" on="1"/>
        <pt x="1161" y="-174" on="1"/>
        <pt x="1024" y="47" on="1"/>
        <pt x="896" y="-20" on="0"/>
        <pt x="727" y="-20" on="1"/>
        <pt x="592" y="-20" on="0"/>
        <pt x="374" y="67" on="0"/>
        <pt x="209" y="243" on="0"/>
        <pt x="119" y="530" on="0"/>
      </contour>
      <contour>
        <pt x="246" y="719" on="1"/>
        <pt x="246" y="716" on="0"/>
        <pt x="246" y="713" on="1"/>
        <pt x="246" y="594" on="0"/>
        <pt x="283" y="506" on="1"/>
        <pt x="321" y="415" on="0"/>
        <pt x="457" y="312" on="0"/>
        <pt x="625" y="264" on="0"/>
        <pt x="727" y="264" on="1"/>
        <pt x="809" y="264" on="0"/>
        <pt x="879" y="279" on="1"/>
        <pt x="692" y="578" on="1"/>
        <pt x="852" y="578" on="1"/>
        <pt x="1016" y="328" on="1"/>
        <pt x="1210" y="435" on="0"/>
        <pt x="1210" y="711" on="1"/>
        <pt x="1210" y="715" on="0"/>
        <pt x="1210" y="719" on="1"/>
        <pt x="1207" y="898" on="0"/>
        <pt x="957" y="1114" on="0"/>
        <pt x="727" y="1114" on="1"/>
        <pt x="496" y="1114" on="0"/>
        <pt x="248" y="898" on="0"/>
      </contour>
    </TTGlyph>
    <TTGlyph name="R" xMin="215" yMin="-20" xMax="1346" yMax="1495">
      <contour>
        <pt x="215" y="0" on="1"/>
        <pt x="215" y="1495" on="1"/>
        <pt x="707" y="1495" on="1"/>
        <pt x="1227" y="1495" on="0"/>
        <pt x="1227" y="1016" on="1"/>
        <pt x="1227" y="835" on="0"/>
        <pt x="1098" y="639" on="0"/>
        <pt x="952" y="610" on="1"/>
        <pt x="1051" y="541" on="0"/>
        <pt x="1073" y="406" on="1"/>
        <pt x="1088" y="316" on="0"/>
        <pt x="1141" y="242" on="0"/>
        <pt x="1190" y="242" on="1"/>
        <pt x="1266" y="242" on="0"/>
        <pt x="1294" y="270" on="1"/>
        <pt x="1346" y="80" on="1"/>
        <pt x="1330" y="30" on="0"/>
        <pt x="1226" y="-20" on="0"/>
        <pt x="1171" y="-20" on="1"/>
        <pt x="1002" y="-20" on="0"/>
        <pt x="944" y="340" on="1"/>
        <pt x="932" y="416" on="0"/>
        <pt x="811" y="500" on="0"/>
        <pt x="719" y="500" on="1"/>
        <pt x="360" y="500" on="1"/>
        <pt x="360" y="0" on="1"/>
      </contour>
      <contour>
        <pt x="360" y="784" on="1"/>
        <pt x="786" y="784" on="1"/>
        <pt x="948" y="784" on="0"/>
        <pt x="1026" y="832" on="1"/>
        <pt x="1102" y="879" on="0"/>
        <pt x="1102" y="965" on="1"/>
        <pt x="1102" y="1165" on="0"/>
        <pt x="786" y="1165" on="1"/>
        <pt x="360" y="1165" on="1"/>
      </contour>
    </TTGlyph>
    <TTGlyph name="S" xMin="150" yMin="-20" xMax="1346" yMax="1556">
      <contour>
        <pt x="150" y="254" on="1"/>
        <pt x="242" y="535" on="1"/>
        <pt x="286" y="430" on="0"/>
        <pt x="598" y="281" on="0"/>
        <pt x="764" y="281" on="1"/>
        <pt x="963" y="281" on="0"/>
        <pt x="1151" y="388" on="0"/>
        <pt x="1151" y="479" on="1"/>
        <pt x="1151" y="558" on="0"/>
        <pt x="958" y="666" on="0"/>
        <pt x="758" y="680" on="1"/>
        <pt x="599" y="692" on="0"/>
        <pt x="385" y="758" on="0"/>
        <pt x="264" y="873" on="0"/>
        <pt x="215" y="1018" on="0"/>
        <pt x="215" y="1120" on="1"/>
        <pt x="215" y="1310" on="0"/>
        <pt x="502" y="1556" on="0"/>
        <pt x="750" y="1556" on="1"/>
        <pt x="943" y="1556" on="0"/>
        <pt x="1228" y="1424" on="0"/>
        <pt x="1286" y="1331" on="1"/>
        <pt x="1221" y="1063" on="1"/>
        <pt x="1150" y="1122" on="0"/>
        <pt x="914" y="1210" on="0"/>
        <pt x="754" y="1210" on="1"/>
        <pt x="655" y="1210" on="0"/>
        <pt x="510" y="1176" on="0"/>
        <pt x="432" y="1115" on="0"/>
        <pt x="397" y="1046" on="0"/>
        <pt x="397" y="1004" on="1"/>
        <pt x="397" y="966" on="0"/>
        <pt x="426" y="913" on="0"/>
        <pt x="504" y="863" on="0"/>
        <pt x="655" y="829" on="0"/>
        <pt x="770" y="819" on="1"/>
        <pt x="1076" y="794" on="0"/>
        <pt x="1212" y="683" on="1"/>
        <pt x="1346" y="574" on="0"/>
        <pt x="1346" y="388" on="1"/>
        <pt x="1346" y="385" on="0"/>
        <pt x="1346" y="383" on="1"/>
        <pt x="1346" y="189" on="0"/>
        <pt x="1042" y="-20" on="0"/>
        <pt x="764" y="-20" on="1"/>
        <pt x="550" y="-20" on="0"/>
        <pt x="198" y="139" on="0"/>
      </contour>
    </TTGlyph>
    <TTGlyph name="T" xMin="72" yMin="0" xMax="1116" yMax="1495">
      <contour>
        <pt x="72" y="1126" on="1"/>
        <pt x="72" y="1495" on="1"/>
        <pt x="1116" y="1495" on="1"/>
        <pt x="1116" y="1126" on="1"/>
        <pt x="670" y="1126" on="1"/>
        <pt x="670" y="0" on="1"/>
        <pt x="524" y="0" on="1"/>
        <pt x="524" y="1126" on="1"/>
      </contour>
    </TTGlyph>
    <TTGlyph name="Thorn" xMin="238" yMin="0" xMax="1204" yMax="1495">
      <contour>
        <pt x="238" y="0" on="1"/>
        <pt x="238" y="1495" on="1"/>
        <pt x="381" y="1495" on="1"/>
        <pt x="381" y="1266" on="1"/>
        <pt x="698" y="1266" on="1"/>
        <pt x="949" y="1266" on="0"/>
        <pt x="1204" y="1026" on="0"/>
        <pt x="1204" y="758" on="1"/>
        <pt x="1204" y="527" on="0"/>
        <pt x="951" y="307" on="0"/>
        <pt x="696" y="307" on="1"/>
        <pt x="381" y="307" on="1"/>
        <pt x="381" y="0" on="1"/>
      </contour>
      <contour>
        <pt x="381" y="586" on="1"/>
        <pt x="819" y="586" on="1"/>
        <pt x="942" y="586" on="0"/>
        <pt x="1083" y="684" on="0"/>
        <pt x="1081" y="758" on="1"/>
        <pt x="1079" y="839" on="0"/>
        <pt x="945" y="938" on="0"/>
        <pt x="819" y="938" on="1"/>
        <pt x="381" y="938" on="1"/>
      </contour>
    </TTGlyph>
    <TTGlyph name="U" xMin="164" yMin="-20" xMax="1331" yMax="1495">
      <contour>
        <pt x="164" y="602" on="1"/>
        <pt x="164" y="1495" on="1"/>
        <pt x="299" y="1495" on="1"/>
        <pt x="299" y="756" on="1"/>
        <pt x="299" y="530" on="0"/>
        <pt x="387" y="440" on="1"/>
        <pt x="510" y="317" on="0"/>
        <pt x="754" y="317" on="1"/>
        <pt x="992" y="317" on="0"/>
        <pt x="1106" y="440" on="1"/>
        <pt x="1192" y="536" on="0"/>
        <pt x="1192" y="739" on="1"/>
        <pt x="1192" y="1495" on="1"/>
        <pt x="1331" y="1495" on="1"/>
        <pt x="1331" y="606" on="1"/>
        <pt x="1331" y="288" on="0"/>
        <pt x="1026" y="-20" on="0"/>
        <pt x="748" y="-20" on="1"/>
        <pt x="617" y="-20" on="0"/>
        <pt x="407" y="54" on="0"/>
        <pt x="250" y="202" on="0"/>
        <pt x="164" y="443" on="0"/>
      </contour>
    </TTGlyph>
    <TTGlyph name="Uacute" xMin="143" yMin="-20" xMax="1311" yMax="1925">
      <contour>
        <pt x="143" y="602" on="1"/>
        <pt x="143" y="1495" on="1"/>
        <pt x="279" y="1495" on="1"/>
        <pt x="279" y="756" on="1"/>
        <pt x="279" y="530" on="0"/>
        <pt x="367" y="440" on="1"/>
        <pt x="490" y="317" on="0"/>
        <pt x="733" y="317" on="1"/>
        <pt x="971" y="317" on="0"/>
        <pt x="1085" y="440" on="1"/>
        <pt x="1171" y="536" on="0"/>
        <pt x="1171" y="739" on="1"/>
        <pt x="1171" y="1495" on="1"/>
        <pt x="1311" y="1495" on="1"/>
        <pt x="1311" y="606" on="1"/>
        <pt x="1311" y="288" on="0"/>
        <pt x="1005" y="-20" on="0"/>
        <pt x="727" y="-20" on="1"/>
        <pt x="596" y="-20" on="0"/>
        <pt x="386" y="54" on="0"/>
        <pt x="229" y="202" on="0"/>
        <pt x="143" y="443" on="0"/>
      </contour>
      <contour>
        <pt x="420" y="1628" on="1"/>
        <pt x="455" y="1730" on="0"/>
        <pt x="646" y="1884" on="0"/>
        <pt x="886" y="1946" on="0"/>
        <pt x="995" y="1925" on="1"/>
        <pt x="985" y="1667" on="1"/>
        <pt x="866" y="1728" on="0"/>
        <pt x="526" y="1677" on="0"/>
        <pt x="444" y="1583" on="1"/>
      </contour>
    </TTGlyph>
    <TTGlyph name="Ucircumflex" xMin="143" yMin="-20" xMax="1311" yMax="1966">
      <contour>
        <pt x="143" y="602" on="1"/>
        <pt x="143" y="1495" on="1"/>
        <pt x="279" y="1495" on="1"/>
        <pt x="279" y="756" on="1"/>
        <pt x="279" y="530" on="0"/>
        <pt x="367" y="440" on="1"/>
        <pt x="490" y="317" on="0"/>
        <pt x="733" y="317" on="1"/>
        <pt x="971" y="317" on="0"/>
        <pt x="1085" y="440" on="1"/>
        <pt x="1171" y="536" on="0"/>
        <pt x="1171" y="739" on="1"/>
        <pt x="1171" y="1495" on="1"/>
        <pt x="1311" y="1495" on="1"/>
        <pt x="1311" y="606" on="1"/>
        <pt x="1311" y="288" on="0"/>
        <pt x="1005" y="-20" on="0"/>
        <pt x="727" y="-20" on="1"/>
        <pt x="596" y="-20" on="0"/>
        <pt x="386" y="54" on="0"/>
        <pt x="229" y="202" on="0"/>
        <pt x="143" y="443" on="0"/>
      </contour>
      <contour>
        <pt x="344" y="1608" on="1"/>
        <pt x="344" y="1677" on="1"/>
        <pt x="438" y="1693" on="0"/>
        <pt x="643" y="1869" on="0"/>
        <pt x="696" y="1966" on="1"/>
        <pt x="737" y="1966" on="1"/>
        <pt x="790" y="1870" on="0"/>
        <pt x="996" y="1693" on="0"/>
        <pt x="1090" y="1677" on="1"/>
        <pt x="1090" y="1608" on="1"/>
        <pt x="976" y="1600" on="0"/>
        <pt x="746" y="1660" on="0"/>
        <pt x="717" y="1718" on="1"/>
        <pt x="688" y="1660" on="0"/>
        <pt x="458" y="1600" on="0"/>
      </contour>
    </TTGlyph>
    <TTGlyph name="Udieresis" xMin="143" yMin="-20" xMax="1311" yMax="1878">
      <contour>
        <pt x="143" y="602" on="1"/>
        <pt x="143" y="1495" on="1"/>
        <pt x="279" y="1495" on="1"/>
        <pt x="279" y="756" on="1"/>
        <pt x="279" y="530" on="0"/>
        <pt x="367" y="440" on="1"/>
        <pt x="490" y="317" on="0"/>
        <pt x="733" y="317" on="1"/>
        <pt x="971" y="317" on="0"/>
        <pt x="1085" y="440" on="1"/>
        <pt x="1171" y="536" on="0"/>
        <pt x="1171" y="739" on="1"/>
        <pt x="1171" y="1495" on="1"/>
        <pt x="1311" y="1495" on="1"/>
        <pt x="1311" y="606" on="1"/>
        <pt x="1311" y="288" on="0"/>
        <pt x="1005" y="-20" on="0"/>
        <pt x="727" y="-20" on="1"/>
        <pt x="596" y="-20" on="0"/>
        <pt x="386" y="54" on="0"/>
        <pt x="229" y="202" on="0"/>
        <pt x="143" y="443" on="0"/>
      </contour>
      <contour>
        <pt x="344" y="1741" on="1"/>
        <pt x="344" y="1812" on="0"/>
        <pt x="425" y="1878" on="0"/>
        <pt x="508" y="1878" on="1"/>
        <pt x="659" y="1878" on="0"/>
        <pt x="659" y="1741" on="1"/>
        <pt x="659" y="1676" on="0"/>
        <pt x="580" y="1610" on="0"/>
        <pt x="508" y="1610" on="1"/>
        <pt x="344" y="1610" on="0"/>
      </contour>
      <contour>
        <pt x="774" y="1741" on="1"/>
        <pt x="774" y="1812" on="0"/>
        <pt x="855" y="1878" on="0"/>
        <pt x="938" y="1878" on="1"/>
        <pt x="1090" y="1878" on="0"/>
        <pt x="1090" y="1741" on="1"/>
        <pt x="1090" y="1676" on="0"/>
        <pt x="1010" y="1610" on="0"/>
        <pt x="938" y="1610" on="1"/>
        <pt x="774" y="1610" on="0"/>
      </contour>
    </TTGlyph>
    <TTGlyph name="Ugrave" xMin="143" yMin="-20" xMax="1311" yMax="1925">
      <contour>
        <pt x="143" y="602" on="1"/>
        <pt x="143" y="1495" on="1"/>
        <pt x="279" y="1495" on="1"/>
        <pt x="279" y="756" on="1"/>
        <pt x="279" y="530" on="0"/>
        <pt x="367" y="440" on="1"/>
        <pt x="490" y="317" on="0"/>
        <pt x="733" y="317" on="1"/>
        <pt x="971" y="317" on="0"/>
        <pt x="1085" y="440" on="1"/>
        <pt x="1171" y="536" on="0"/>
        <pt x="1171" y="739" on="1"/>
        <pt x="1171" y="1495" on="1"/>
        <pt x="1311" y="1495" on="1"/>
        <pt x="1311" y="606" on="1"/>
        <pt x="1311" y="288" on="0"/>
        <pt x="1005" y="-20" on="0"/>
        <pt x="727" y="-20" on="1"/>
        <pt x="596" y="-20" on="0"/>
        <pt x="386" y="54" on="0"/>
        <pt x="229" y="202" on="0"/>
        <pt x="143" y="443" on="0"/>
      </contour>
      <contour>
        <pt x="432" y="1925" on="1"/>
        <pt x="542" y="1947" on="0"/>
        <pt x="782" y="1886" on="0"/>
        <pt x="973" y="1731" on="0"/>
        <pt x="1008" y="1628" on="1"/>
        <pt x="983" y="1583" on="1"/>
        <pt x="901" y="1677" on="0"/>
        <pt x="560" y="1728" on="0"/>
        <pt x="442" y="1667" on="1"/>
      </contour>
    </TTGlyph>
    <TTGlyph name="V" xMin="41" yMin="0" xMax="1454" yMax="1495">
      <contour>
        <pt x="41" y="1495" on="1"/>
        <pt x="201" y="1495" on="1"/>
        <pt x="670" y="272" on="1"/>
        <pt x="1147" y="1493" on="1"/>
        <pt x="1454" y="1493" on="1"/>
        <pt x="852" y="0" on="1"/>
        <pt x="600" y="0" on="1"/>
      </contour>
    </TTGlyph>
    <TTGlyph name="W" xMin="-20" yMin="0" xMax="1823" yMax="1495">
      <contour>
        <pt x="-20" y="1495" on="1"/>
        <pt x="131" y="1495" on="1"/>
        <pt x="485" y="281" on="1"/>
        <pt x="811" y="1227" on="1"/>
        <pt x="930" y="1227" on="1"/>
        <pt x="1219" y="299" on="1"/>
        <pt x="1561" y="1493" on="1"/>
        <pt x="1823" y="1493" on="1"/>
        <pt x="1372" y="0" on="1"/>
        <pt x="1149" y="0" on="1"/>
        <pt x="913" y="758" on="1"/>
        <pt x="643" y="0" on="1"/>
        <pt x="412" y="0" on="1"/>
      </contour>
    </TTGlyph>
    <TTGlyph name="X" xMin="143" yMin="0" xMax="1425" yMax="1536">
      <contour>
        <pt x="143" y="0" on="1"/>
        <pt x="664" y="829" on="1"/>
        <pt x="188" y="1536" on="1"/>
        <pt x="350" y="1536" on="1"/>
        <pt x="745" y="963" on="1"/>
        <pt x="1104" y="1536" on="1"/>
        <pt x="1425" y="1536" on="1"/>
        <pt x="920" y="711" on="1"/>
        <pt x="1409" y="0" on="1"/>
        <pt x="1221" y="0" on="1"/>
        <pt x="836" y="573" on="1"/>
        <pt x="485" y="0" on="1"/>
      </contour>
    </TTGlyph>
    <TTGlyph name="Y" xMin="61" yMin="0" xMax="1331" yMax="1495">
      <contour>
        <pt x="61" y="1495" on="1"/>
        <pt x="211" y="1495" on="1"/>
        <pt x="618" y="731" on="1"/>
        <pt x="1026" y="1495" on="1"/>
        <pt x="1331" y="1495" on="1"/>
        <pt x="756" y="475" on="1"/>
        <pt x="756" y="0" on="1"/>
        <pt x="610" y="0" on="1"/>
        <pt x="610" y="516" on="1"/>
      </contour>
    </TTGlyph>
    <TTGlyph name="Yacute" xMin="41" yMin="0" xMax="1311" yMax="1925">
      <contour>
        <pt x="41" y="1495" on="1"/>
        <pt x="190" y="1495" on="1"/>
        <pt x="598" y="731" on="1"/>
        <pt x="1006" y="1495" on="1"/>
        <pt x="1311" y="1495" on="1"/>
        <pt x="735" y="475" on="1"/>
        <pt x="735" y="0" on="1"/>
        <pt x="590" y="0" on="1"/>
        <pt x="590" y="516" on="1"/>
      </contour>
      <contour>
        <pt x="297" y="1628" on="1"/>
        <pt x="332" y="1730" on="0"/>
        <pt x="523" y="1884" on="0"/>
        <pt x="763" y="1946" on="0"/>
        <pt x="872" y="1925" on="1"/>
        <pt x="862" y="1667" on="1"/>
        <pt x="743" y="1728" on="0"/>
        <pt x="404" y="1677" on="0"/>
        <pt x="322" y="1583" on="1"/>
      </contour>
    </TTGlyph>
    <TTGlyph name="Ydieresis" xMin="41" yMin="0" xMax="1311" yMax="1878">
      <contour>
        <pt x="41" y="1495" on="1"/>
        <pt x="190" y="1495" on="1"/>
        <pt x="598" y="731" on="1"/>
        <pt x="1006" y="1495" on="1"/>
        <pt x="1311" y="1495" on="1"/>
        <pt x="735" y="475" on="1"/>
        <pt x="735" y="0" on="1"/>
        <pt x="590" y="0" on="1"/>
        <pt x="590" y="516" on="1"/>
      </contour>
      <contour>
        <pt x="252" y="1741" on="1"/>
        <pt x="252" y="1812" on="0"/>
        <pt x="333" y="1878" on="0"/>
        <pt x="416" y="1878" on="1"/>
        <pt x="567" y="1878" on="0"/>
        <pt x="567" y="1741" on="1"/>
        <pt x="567" y="1676" on="0"/>
        <pt x="488" y="1610" on="0"/>
        <pt x="416" y="1610" on="1"/>
        <pt x="252" y="1610" on="0"/>
      </contour>
      <contour>
        <pt x="682" y="1741" on="1"/>
        <pt x="682" y="1812" on="0"/>
        <pt x="763" y="1878" on="0"/>
        <pt x="846" y="1878" on="1"/>
        <pt x="997" y="1878" on="0"/>
        <pt x="997" y="1741" on="1"/>
        <pt x="997" y="1676" on="0"/>
        <pt x="918" y="1610" on="0"/>
        <pt x="846" y="1610" on="1"/>
        <pt x="682" y="1610" on="0"/>
      </contour>
    </TTGlyph>
    <TTGlyph name="Z" xMin="143" yMin="0" xMax="1352" yMax="1495">
      <contour>
        <pt x="143" y="0" on="1"/>
        <pt x="143" y="84" on="1"/>
        <pt x="938" y="1116" on="1"/>
        <pt x="211" y="1116" on="1"/>
        <pt x="211" y="1495" on="1"/>
        <pt x="1352" y="1495" on="1"/>
        <pt x="1352" y="1432" on="1"/>
        <pt x="492" y="289" on="1"/>
        <pt x="1311" y="289" on="1"/>
        <pt x="1311" y="0" on="1"/>
      </contour>
    </TTGlyph>
    <TTGlyph name="a" xMin="96" yMin="-20" xMax="963" yMax="1147">
      <contour>
        <pt x="96" y="317" on="1"/>
        <pt x="96" y="485" on="0"/>
        <pt x="314" y="670" on="0"/>
        <pt x="506" y="670" on="1"/>
        <pt x="591" y="670" on="0"/>
        <pt x="772" y="632" on="0"/>
        <pt x="831" y="592" on="1"/>
        <pt x="824" y="736" on="0"/>
        <pt x="685" y="864" on="0"/>
        <pt x="539" y="864" on="1"/>
        <pt x="308" y="864" on="0"/>
        <pt x="207" y="743" on="1"/>
        <pt x="199" y="1008" on="1"/>
        <pt x="317" y="1147" on="0"/>
        <pt x="559" y="1147" on="1"/>
        <pt x="667" y="1147" on="0"/>
        <pt x="814" y="1097" on="0"/>
        <pt x="916" y="981" on="0"/>
        <pt x="963" y="789" on="0"/>
        <pt x="963" y="647" on="1"/>
        <pt x="963" y="0" on="1"/>
        <pt x="881" y="0" on="1"/>
        <pt x="854" y="72" on="1"/>
        <pt x="745" y="-20" on="0"/>
        <pt x="526" y="-20" on="1"/>
        <pt x="314" y="-20" on="0"/>
        <pt x="96" y="162" on="0"/>
      </contour>
      <contour>
        <pt x="256" y="354" on="1"/>
        <pt x="256" y="290" on="0"/>
        <pt x="413" y="195" on="0"/>
        <pt x="528" y="195" on="1"/>
        <pt x="737" y="195" on="0"/>
        <pt x="834" y="285" on="1"/>
        <pt x="834" y="430" on="1"/>
        <pt x="709" y="524" on="0"/>
        <pt x="543" y="524" on="1"/>
        <pt x="404" y="524" on="0"/>
        <pt x="256" y="432" on="0"/>
      </contour>
    </TTGlyph>
    <TTGlyph name="aacute" xMin="76" yMin="-20" xMax="942" yMax="1597">
      <contour>
        <pt x="76" y="317" on="1"/>
        <pt x="76" y="485" on="0"/>
        <pt x="293" y="670" on="0"/>
        <pt x="485" y="670" on="1"/>
        <pt x="570" y="670" on="0"/>
        <pt x="752" y="632" on="0"/>
        <pt x="811" y="592" on="1"/>
        <pt x="804" y="736" on="0"/>
        <pt x="664" y="864" on="0"/>
        <pt x="518" y="864" on="1"/>
        <pt x="287" y="864" on="0"/>
        <pt x="186" y="743" on="1"/>
        <pt x="178" y="1008" on="1"/>
        <pt x="296" y="1147" on="0"/>
        <pt x="539" y="1147" on="1"/>
        <pt x="683" y="1147" on="0"/>
        <pt x="855" y="1055" on="0"/>
        <pt x="942" y="835" on="0"/>
        <pt x="942" y="647" on="1"/>
        <pt x="942" y="0" on="1"/>
        <pt x="860" y="0" on="1"/>
        <pt x="834" y="72" on="1"/>
        <pt x="725" y="-20" on="0"/>
        <pt x="506" y="-20" on="1"/>
        <pt x="294" y="-20" on="0"/>
        <pt x="76" y="162" on="0"/>
      </contour>
      <contour>
        <pt x="233" y="1300" on="1"/>
        <pt x="268" y="1402" on="0"/>
        <pt x="460" y="1556" on="0"/>
        <pt x="700" y="1618" on="0"/>
        <pt x="809" y="1597" on="1"/>
        <pt x="799" y="1339" on="1"/>
        <pt x="680" y="1400" on="0"/>
        <pt x="340" y="1349" on="0"/>
        <pt x="258" y="1255" on="1"/>
      </contour>
      <contour>
        <pt x="236" y="354" on="1"/>
        <pt x="236" y="290" on="0"/>
        <pt x="393" y="195" on="0"/>
        <pt x="508" y="195" on="1"/>
        <pt x="716" y="195" on="0"/>
        <pt x="813" y="285" on="1"/>
        <pt x="813" y="430" on="1"/>
        <pt x="688" y="524" on="0"/>
        <pt x="522" y="524" on="1"/>
        <pt x="383" y="524" on="0"/>
        <pt x="236" y="433" on="0"/>
      </contour>
    </TTGlyph>
    <TTGlyph name="acircumflex" xMin="76" yMin="-20" xMax="942" yMax="1638">
      <contour>
        <pt x="76" y="317" on="1"/>
        <pt x="76" y="485" on="0"/>
        <pt x="293" y="670" on="0"/>
        <pt x="485" y="670" on="1"/>
        <pt x="570" y="670" on="0"/>
        <pt x="752" y="632" on="0"/>
        <pt x="811" y="592" on="1"/>
        <pt x="804" y="736" on="0"/>
        <pt x="664" y="864" on="0"/>
        <pt x="518" y="864" on="1"/>
        <pt x="287" y="864" on="0"/>
        <pt x="186" y="743" on="1"/>
        <pt x="178" y="1008" on="1"/>
        <pt x="296" y="1147" on="0"/>
        <pt x="539" y="1147" on="1"/>
        <pt x="683" y="1147" on="0"/>
        <pt x="855" y="1055" on="0"/>
        <pt x="942" y="835" on="0"/>
        <pt x="942" y="647" on="1"/>
        <pt x="942" y="0" on="1"/>
        <pt x="860" y="0" on="1"/>
        <pt x="834" y="72" on="1"/>
        <pt x="725" y="-20" on="0"/>
        <pt x="506" y="-20" on="1"/>
        <pt x="294" y="-20" on="0"/>
        <pt x="76" y="162" on="0"/>
      </contour>
      <contour>
        <pt x="164" y="1280" on="1"/>
        <pt x="164" y="1350" on="1"/>
        <pt x="258" y="1366" on="0"/>
        <pt x="463" y="1542" on="0"/>
        <pt x="516" y="1638" on="1"/>
        <pt x="557" y="1638" on="1"/>
        <pt x="610" y="1542" on="0"/>
        <pt x="815" y="1366" on="0"/>
        <pt x="909" y="1350" on="1"/>
        <pt x="909" y="1280" on="1"/>
        <pt x="796" y="1272" on="0"/>
        <pt x="566" y="1333" on="0"/>
        <pt x="537" y="1391" on="1"/>
        <pt x="508" y="1333" on="0"/>
        <pt x="277" y="1272" on="0"/>
      </contour>
      <contour>
        <pt x="236" y="354" on="1"/>
        <pt x="236" y="290" on="0"/>
        <pt x="393" y="195" on="0"/>
        <pt x="508" y="195" on="1"/>
        <pt x="716" y="195" on="0"/>
        <pt x="813" y="285" on="1"/>
        <pt x="813" y="430" on="1"/>
        <pt x="688" y="524" on="0"/>
        <pt x="522" y="524" on="1"/>
        <pt x="383" y="524" on="0"/>
        <pt x="236" y="433" on="0"/>
      </contour>
    </TTGlyph>
    <TTGlyph name="acute" xMin="254" yMin="1255" xMax="829" yMax="1597">
      <contour>
        <pt x="254" y="1300" on="1"/>
        <pt x="289" y="1402" on="0"/>
        <pt x="480" y="1556" on="0"/>
        <pt x="720" y="1618" on="0"/>
        <pt x="829" y="1597" on="1"/>
        <pt x="819" y="1339" on="1"/>
        <pt x="700" y="1400" on="0"/>
        <pt x="361" y="1349" on="0"/>
        <pt x="279" y="1255" on="1"/>
      </contour>
    </TTGlyph>
    <TTGlyph name="adieresis" xMin="76" yMin="-20" xMax="942" yMax="1632">
      <contour>
        <pt x="76" y="317" on="1"/>
        <pt x="76" y="485" on="0"/>
        <pt x="293" y="670" on="0"/>
        <pt x="485" y="670" on="1"/>
        <pt x="570" y="670" on="0"/>
        <pt x="752" y="632" on="0"/>
        <pt x="811" y="592" on="1"/>
        <pt x="804" y="736" on="0"/>
        <pt x="664" y="864" on="0"/>
        <pt x="518" y="864" on="1"/>
        <pt x="287" y="864" on="0"/>
        <pt x="186" y="743" on="1"/>
        <pt x="178" y="1008" on="1"/>
        <pt x="296" y="1147" on="0"/>
        <pt x="539" y="1147" on="1"/>
        <pt x="683" y="1147" on="0"/>
        <pt x="855" y="1055" on="0"/>
        <pt x="942" y="835" on="0"/>
        <pt x="942" y="647" on="1"/>
        <pt x="942" y="0" on="1"/>
        <pt x="860" y="0" on="1"/>
        <pt x="834" y="72" on="1"/>
        <pt x="725" y="-20" on="0"/>
        <pt x="506" y="-20" on="1"/>
        <pt x="294" y="-20" on="0"/>
        <pt x="76" y="162" on="0"/>
      </contour>
      <contour>
        <pt x="156" y="1495" on="1"/>
        <pt x="156" y="1566" on="0"/>
        <pt x="236" y="1632" on="0"/>
        <pt x="319" y="1632" on="1"/>
        <pt x="471" y="1632" on="0"/>
        <pt x="471" y="1495" on="1"/>
        <pt x="471" y="1430" on="0"/>
        <pt x="391" y="1364" on="0"/>
        <pt x="319" y="1364" on="1"/>
        <pt x="156" y="1364" on="0"/>
      </contour>
      <contour>
        <pt x="236" y="354" on="1"/>
        <pt x="236" y="290" on="0"/>
        <pt x="393" y="195" on="0"/>
        <pt x="508" y="195" on="1"/>
        <pt x="716" y="195" on="0"/>
        <pt x="813" y="285" on="1"/>
        <pt x="813" y="430" on="1"/>
        <pt x="688" y="524" on="0"/>
        <pt x="522" y="524" on="1"/>
        <pt x="383" y="524" on="0"/>
        <pt x="236" y="433" on="0"/>
      </contour>
      <contour>
        <pt x="586" y="1495" on="1"/>
        <pt x="586" y="1566" on="0"/>
        <pt x="667" y="1632" on="0"/>
        <pt x="750" y="1632" on="1"/>
        <pt x="901" y="1632" on="0"/>
        <pt x="901" y="1495" on="1"/>
        <pt x="901" y="1430" on="0"/>
        <pt x="822" y="1364" on="0"/>
        <pt x="750" y="1364" on="1"/>
        <pt x="586" y="1364" on="0"/>
      </contour>
    </TTGlyph>
    <TTGlyph name="ae" xMin="72" yMin="-20" xMax="1720" yMax="1147">
      <contour>
        <pt x="72" y="317" on="1"/>
        <pt x="72" y="485" on="0"/>
        <pt x="289" y="670" on="0"/>
        <pt x="481" y="670" on="1"/>
        <pt x="562" y="670" on="0"/>
        <pt x="740" y="635" on="0"/>
        <pt x="799" y="598" on="1"/>
        <pt x="800" y="606" on="0"/>
        <pt x="802" y="636" on="0"/>
        <pt x="803" y="643" on="1"/>
        <pt x="784" y="759" on="0"/>
        <pt x="645" y="864" on="0"/>
        <pt x="514" y="864" on="1"/>
        <pt x="283" y="864" on="0"/>
        <pt x="182" y="743" on="1"/>
        <pt x="174" y="1008" on="1"/>
        <pt x="292" y="1147" on="0"/>
        <pt x="535" y="1147" on="1"/>
        <pt x="675" y="1147" on="0"/>
        <pt x="850" y="1055" on="0"/>
        <pt x="893" y="950" on="1"/>
        <pt x="955" y="1050" on="0"/>
        <pt x="1146" y="1147" on="0"/>
        <pt x="1260" y="1147" on="1"/>
        <pt x="1477" y="1147" on="0"/>
        <pt x="1720" y="815" on="0"/>
        <pt x="1720" y="475" on="1"/>
        <pt x="924" y="475" on="1"/>
        <pt x="944" y="342" on="0"/>
        <pt x="1116" y="209" on="0"/>
        <pt x="1260" y="207" on="1"/>
        <pt x="1390" y="206" on="0"/>
        <pt x="1539" y="266" on="0"/>
        <pt x="1585" y="330" on="1"/>
        <pt x="1681" y="258" on="1"/>
        <pt x="1627" y="135" on="0"/>
        <pt x="1408" y="-20" on="0"/>
        <pt x="1264" y="-20" on="1"/>
        <pt x="1024" y="-20" on="0"/>
        <pt x="901" y="158" on="1"/>
        <pt x="843" y="65" on="0"/>
        <pt x="662" y="-20" on="0"/>
        <pt x="502" y="-20" on="1"/>
        <pt x="290" y="-20" on="0"/>
        <pt x="72" y="162" on="0"/>
      </contour>
      <contour>
        <pt x="231" y="354" on="1"/>
        <pt x="231" y="290" on="0"/>
        <pt x="389" y="195" on="0"/>
        <pt x="504" y="195" on="1"/>
        <pt x="712" y="195" on="0"/>
        <pt x="809" y="285" on="1"/>
        <pt x="809" y="408" on="1"/>
        <pt x="808" y="412" on="0"/>
        <pt x="806" y="429" on="0"/>
        <pt x="805" y="434" on="1"/>
        <pt x="684" y="524" on="0"/>
        <pt x="518" y="524" on="1"/>
        <pt x="379" y="524" on="0"/>
        <pt x="231" y="432" on="0"/>
      </contour>
      <contour>
        <pt x="928" y="608" on="1"/>
        <pt x="1587" y="608" on="1"/>
        <pt x="1587" y="707" on="0"/>
        <pt x="1399" y="856" on="0"/>
        <pt x="1249" y="856" on="1"/>
        <pt x="1144" y="856" on="0"/>
        <pt x="973" y="749" on="0"/>
        <pt x="938" y="657" on="1"/>
        <pt x="938" y="647" on="1"/>
      </contour>
    </TTGlyph>
    <TTGlyph name="agrave" xMin="76" yMin="-20" xMax="942" yMax="1597">
      <contour>
        <pt x="76" y="317" on="1"/>
        <pt x="76" y="485" on="0"/>
        <pt x="293" y="670" on="0"/>
        <pt x="485" y="670" on="1"/>
        <pt x="570" y="670" on="0"/>
        <pt x="752" y="632" on="0"/>
        <pt x="811" y="592" on="1"/>
        <pt x="804" y="736" on="0"/>
        <pt x="664" y="864" on="0"/>
        <pt x="518" y="864" on="1"/>
        <pt x="287" y="864" on="0"/>
        <pt x="186" y="743" on="1"/>
        <pt x="178" y="1008" on="1"/>
        <pt x="296" y="1147" on="0"/>
        <pt x="539" y="1147" on="1"/>
        <pt x="683" y="1147" on="0"/>
        <pt x="855" y="1055" on="0"/>
        <pt x="942" y="835" on="0"/>
        <pt x="942" y="647" on="1"/>
        <pt x="942" y="0" on="1"/>
        <pt x="860" y="0" on="1"/>
        <pt x="834" y="72" on="1"/>
        <pt x="725" y="-20" on="0"/>
        <pt x="506" y="-20" on="1"/>
        <pt x="294" y="-20" on="0"/>
        <pt x="76" y="162" on="0"/>
      </contour>
      <contour>
        <pt x="236" y="354" on="1"/>
        <pt x="236" y="290" on="0"/>
        <pt x="393" y="195" on="0"/>
        <pt x="508" y="195" on="1"/>
        <pt x="716" y="195" on="0"/>
        <pt x="813" y="285" on="1"/>
        <pt x="813" y="430" on="1"/>
        <pt x="688" y="524" on="0"/>
        <pt x="522" y="524" on="1"/>
        <pt x="383" y="524" on="0"/>
        <pt x="236" y="433" on="0"/>
      </contour>
      <contour>
        <pt x="276" y="1597" on="1"/>
        <pt x="386" y="1619" on="0"/>
        <pt x="626" y="1558" on="0"/>
        <pt x="817" y="1403" on="0"/>
        <pt x="852" y="1300" on="1"/>
        <pt x="827" y="1255" on="1"/>
        <pt x="745" y="1349" on="0"/>
        <pt x="405" y="1400" on="0"/>
        <pt x="287" y="1339" on="1"/>
      </contour>
    </TTGlyph>
    <TTGlyph name="ampersand" xMin="123" yMin="-20" xMax="1362" yMax="1520">
      <contour>
        <pt x="123" y="356" on="1"/>
        <pt x="123" y="481" on="0"/>
        <pt x="243" y="672" on="0"/>
        <pt x="360" y="717" on="1"/>
        <pt x="281" y="771" on="0"/>
        <pt x="211" y="953" on="0"/>
        <pt x="211" y="1087" on="1"/>
        <pt x="211" y="1297" on="0"/>
        <pt x="449" y="1520" on="0"/>
        <pt x="641" y="1520" on="1"/>
        <pt x="739" y="1520" on="0"/>
        <pt x="815" y="1483" on="1"/>
        <pt x="776" y="1182" on="1"/>
        <pt x="748" y="1202" on="0"/>
        <pt x="646" y="1227" on="0"/>
        <pt x="600" y="1227" on="1"/>
        <pt x="459" y="1227" on="0"/>
        <pt x="316" y="1156" on="0"/>
        <pt x="315" y="1077" on="1"/>
        <pt x="312" y="1010" on="0"/>
        <pt x="437" y="932" on="0"/>
        <pt x="545" y="932" on="1"/>
        <pt x="797" y="932" on="1"/>
        <pt x="797" y="1085" on="1"/>
        <pt x="924" y="1085" on="1"/>
        <pt x="924" y="932" on="1"/>
        <pt x="1135" y="932" on="1"/>
        <pt x="1135" y="635" on="1"/>
        <pt x="924" y="635" on="1"/>
        <pt x="924" y="422" on="1"/>
        <pt x="924" y="320" on="0"/>
        <pt x="1007" y="238" on="0"/>
        <pt x="1092" y="236" on="1"/>
        <pt x="1256" y="236" on="0"/>
        <pt x="1303" y="299" on="1"/>
        <pt x="1362" y="106" on="1"/>
        <pt x="1338" y="58" on="0"/>
        <pt x="1190" y="-19" on="0"/>
        <pt x="1090" y="-20" on="1"/>
        <pt x="914" y="-23" on="0"/>
        <pt x="848" y="80" on="1"/>
        <pt x="802" y="28" on="0"/>
        <pt x="633" y="-20" on="0"/>
        <pt x="541" y="-20" on="1"/>
        <pt x="347" y="-20" on="0"/>
        <pt x="123" y="190" on="0"/>
      </contour>
      <contour>
        <pt x="309" y="455" on="1"/>
        <pt x="309" y="355" on="0"/>
        <pt x="440" y="236" on="0"/>
        <pt x="561" y="236" on="1"/>
        <pt x="730" y="236" on="0"/>
        <pt x="797" y="311" on="1"/>
        <pt x="797" y="313" on="1"/>
        <pt x="797" y="635" on="1"/>
        <pt x="709" y="635" on="1"/>
        <pt x="596" y="635" on="0"/>
        <pt x="510" y="653" on="1"/>
        <pt x="428" y="649" on="0"/>
        <pt x="309" y="528" on="0"/>
      </contour>
    </TTGlyph>
    <TTGlyph name="aring" xMin="76" yMin="-20" xMax="942" yMax="1647">
      <contour>
        <pt x="76" y="317" on="1"/>
        <pt x="76" y="485" on="0"/>
        <pt x="293" y="670" on="0"/>
        <pt x="485" y="670" on="1"/>
        <pt x="570" y="670" on="0"/>
        <pt x="752" y="632" on="0"/>
        <pt x="811" y="592" on="1"/>
        <pt x="804" y="736" on="0"/>
        <pt x="664" y="864" on="0"/>
        <pt x="518" y="864" on="1"/>
        <pt x="287" y="864" on="0"/>
        <pt x="186" y="743" on="1"/>
        <pt x="178" y="1008" on="1"/>
        <pt x="296" y="1147" on="0"/>
        <pt x="539" y="1147" on="1"/>
        <pt x="683" y="1147" on="0"/>
        <pt x="855" y="1055" on="0"/>
        <pt x="942" y="835" on="0"/>
        <pt x="942" y="647" on="1"/>
        <pt x="942" y="0" on="1"/>
        <pt x="860" y="0" on="1"/>
        <pt x="834" y="72" on="1"/>
        <pt x="725" y="-20" on="0"/>
        <pt x="506" y="-20" on="1"/>
        <pt x="294" y="-20" on="0"/>
        <pt x="76" y="162" on="0"/>
      </contour>
      <contour>
        <pt x="236" y="354" on="1"/>
        <pt x="236" y="290" on="0"/>
        <pt x="393" y="195" on="0"/>
        <pt x="508" y="195" on="1"/>
        <pt x="716" y="195" on="0"/>
        <pt x="813" y="285" on="1"/>
        <pt x="813" y="430" on="1"/>
        <pt x="688" y="524" on="0"/>
        <pt x="522" y="524" on="1"/>
        <pt x="383" y="524" on="0"/>
        <pt x="236" y="433" on="0"/>
      </contour>
      <contour>
        <pt x="307" y="1423" on="1"/>
        <pt x="308" y="1537" on="0"/>
        <pt x="422" y="1647" on="0"/>
        <pt x="520" y="1647" on="1"/>
        <pt x="613" y="1647" on="0"/>
        <pt x="736" y="1535" on="0"/>
        <pt x="737" y="1423" on="1"/>
        <pt x="736" y="1318" on="0"/>
        <pt x="621" y="1214" on="0"/>
        <pt x="524" y="1214" on="1"/>
        <pt x="434" y="1214" on="0"/>
        <pt x="308" y="1320" on="0"/>
      </contour>
      <contour>
        <pt x="379" y="1423" on="1"/>
        <pt x="379" y="1380" on="0"/>
        <pt x="453" y="1331" on="0"/>
        <pt x="524" y="1331" on="1"/>
        <pt x="594" y="1331" on="0"/>
        <pt x="670" y="1380" on="0"/>
        <pt x="668" y="1423" on="1"/>
        <pt x="666" y="1467" on="0"/>
        <pt x="591" y="1526" on="0"/>
        <pt x="520" y="1526" on="1"/>
        <pt x="451" y="1526" on="0"/>
        <pt x="379" y="1470" on="0"/>
      </contour>
    </TTGlyph>
    <TTGlyph name="asciicircum" xMin="164" yMin="481" xMax="909" yMax="840">
      <contour>
        <pt x="164" y="481" on="1"/>
        <pt x="164" y="551" on="1"/>
        <pt x="258" y="567" on="0"/>
        <pt x="463" y="743" on="0"/>
        <pt x="516" y="840" on="1"/>
        <pt x="557" y="840" on="1"/>
        <pt x="610" y="743" on="0"/>
        <pt x="815" y="567" on="0"/>
        <pt x="909" y="551" on="1"/>
        <pt x="909" y="481" on="1"/>
        <pt x="796" y="473" on="0"/>
        <pt x="566" y="534" on="0"/>
        <pt x="537" y="592" on="1"/>
        <pt x="508" y="534" on="0"/>
        <pt x="277" y="473" on="0"/>
      </contour>
    </TTGlyph>
    <TTGlyph name="asciitilde" xMin="158" yMin="524" xMax="889" yMax="778">
      <contour>
        <pt x="158" y="551" on="1"/>
        <pt x="201" y="674" on="0"/>
        <pt x="403" y="803" on="0"/>
        <pt x="526" y="770" on="1"/>
        <pt x="645" y="740" on="0"/>
        <pt x="844" y="745" on="0"/>
        <pt x="874" y="778" on="1"/>
        <pt x="889" y="752" on="1"/>
        <pt x="838" y="623" on="0"/>
        <pt x="625" y="507" on="0"/>
        <pt x="520" y="543" on="1"/>
        <pt x="389" y="582" on="0"/>
        <pt x="209" y="566" on="0"/>
        <pt x="172" y="524" on="1"/>
      </contour>
    </TTGlyph>
    <TTGlyph name="asterisk" xMin="143" yMin="973" xMax="737" yMax="1540">
      <contour>
        <pt x="143" y="1249" on="1"/>
        <pt x="203" y="1440" on="1"/>
        <pt x="403" y="1309" on="1"/>
        <pt x="324" y="1540" on="1"/>
        <pt x="541" y="1540" on="1"/>
        <pt x="479" y="1309" on="1"/>
        <pt x="678" y="1440" on="1"/>
        <pt x="737" y="1249" on="1"/>
        <pt x="487" y="1249" on="1"/>
        <pt x="690" y="1094" on="1"/>
        <pt x="520" y="973" on="1"/>
        <pt x="440" y="1200" on="1"/>
        <pt x="354" y="973" on="1"/>
        <pt x="190" y="1094" on="1"/>
        <pt x="391" y="1249" on="1"/>
      </contour>
    </TTGlyph>
    <TTGlyph name="at" xMin="61" yMin="-410" xMax="1628" yMax="1475">
      <contour>
        <pt x="61" y="459" on="1"/>
        <pt x="61" y="678" on="0"/>
        <pt x="198" y="1060" on="0"/>
        <pt x="429" y="1324" on="0"/>
        <pt x="739" y="1475" on="0"/>
        <pt x="909" y="1475" on="1"/>
        <pt x="1259" y="1475" on="0"/>
        <pt x="1628" y="1113" on="0"/>
        <pt x="1628" y="745" on="1"/>
        <pt x="1628" y="593" on="0"/>
        <pt x="1570" y="341" on="0"/>
        <pt x="1479" y="182" on="0"/>
        <pt x="1364" y="73" on="0"/>
        <pt x="1256" y="27" on="0"/>
        <pt x="1206" y="27" on="1"/>
        <pt x="1122" y="27" on="0"/>
        <pt x="1023" y="90" on="0"/>
        <pt x="1004" y="170" on="1"/>
        <pt x="955" y="100" on="0"/>
        <pt x="779" y="23" on="0"/>
        <pt x="666" y="23" on="1"/>
        <pt x="537" y="23" on="0"/>
        <pt x="377" y="217" on="0"/>
        <pt x="377" y="393" on="1"/>
        <pt x="377" y="666" on="0"/>
        <pt x="663" y="1024" on="0"/>
        <pt x="866" y="1024" on="1"/>
        <pt x="982" y="1024" on="0"/>
        <pt x="1189" y="946" on="0"/>
        <pt x="1243" y="887" on="1"/>
        <pt x="1116" y="307" on="1"/>
        <pt x="1105" y="255" on="0"/>
        <pt x="1155" y="197" on="0"/>
        <pt x="1214" y="197" on="1"/>
        <pt x="1297" y="197" on="0"/>
        <pt x="1431" y="335" on="0"/>
        <pt x="1501" y="551" on="0"/>
        <pt x="1501" y="672" on="1"/>
        <pt x="1501" y="941" on="0"/>
        <pt x="1212" y="1225" on="0"/>
        <pt x="893" y="1225" on="1"/>
        <pt x="747" y="1225" on="0"/>
        <pt x="489" y="1115" on="0"/>
        <pt x="299" y="919" on="0"/>
        <pt x="188" y="630" on="0"/>
        <pt x="188" y="459" on="1"/>
        <pt x="188" y="307" on="0"/>
        <pt x="258" y="77" on="0"/>
        <pt x="407" y="-91" on="0"/>
        <pt x="654" y="-178" on="0"/>
        <pt x="825" y="-178" on="1"/>
        <pt x="1053" y="-178" on="0"/>
        <pt x="1233" y="-78" on="1"/>
        <pt x="1294" y="-211" on="1"/>
        <pt x="1215" y="-303" on="0"/>
        <pt x="976" y="-410" on="0"/>
        <pt x="844" y="-410" on="1"/>
        <pt x="638" y="-410" on="0"/>
        <pt x="332" y="-281" on="0"/>
        <pt x="149" y="-44" on="0"/>
        <pt x="61" y="266" on="0"/>
      </contour>
      <contour>
        <pt x="494" y="434" on="1"/>
        <pt x="491" y="348" on="0"/>
        <pt x="616" y="230" on="0"/>
        <pt x="713" y="229" on="1"/>
        <pt x="804" y="227" on="0"/>
        <pt x="957" y="275" on="0"/>
        <pt x="1001" y="324" on="1"/>
        <pt x="1077" y="682" on="1"/>
        <pt x="1033" y="710" on="0"/>
        <pt x="902" y="745" on="0"/>
        <pt x="834" y="745" on="1"/>
        <pt x="685" y="745" on="0"/>
        <pt x="500" y="571" on="0"/>
      </contour>
    </TTGlyph>
    <TTGlyph name="atilde" xMin="76" yMin="-20" xMax="942" yMax="1618">
      <contour>
        <pt x="76" y="317" on="1"/>
        <pt x="76" y="485" on="0"/>
        <pt x="293" y="670" on="0"/>
        <pt x="485" y="670" on="1"/>
        <pt x="570" y="670" on="0"/>
        <pt x="752" y="632" on="0"/>
        <pt x="811" y="592" on="1"/>
        <pt x="804" y="736" on="0"/>
        <pt x="664" y="864" on="0"/>
        <pt x="518" y="864" on="1"/>
        <pt x="287" y="864" on="0"/>
        <pt x="186" y="743" on="1"/>
        <pt x="178" y="1008" on="1"/>
        <pt x="296" y="1147" on="0"/>
        <pt x="539" y="1147" on="1"/>
        <pt x="683" y="1147" on="0"/>
        <pt x="855" y="1055" on="0"/>
        <pt x="942" y="835" on="0"/>
        <pt x="942" y="647" on="1"/>
        <pt x="942" y="0" on="1"/>
        <pt x="860" y="0" on="1"/>
        <pt x="834" y="72" on="1"/>
        <pt x="725" y="-20" on="0"/>
        <pt x="506" y="-20" on="1"/>
        <pt x="294" y="-20" on="0"/>
        <pt x="76" y="162" on="0"/>
      </contour>
      <contour>
        <pt x="158" y="1391" on="1"/>
        <pt x="201" y="1514" on="0"/>
        <pt x="403" y="1643" on="0"/>
        <pt x="526" y="1610" on="1"/>
        <pt x="645" y="1580" on="0"/>
        <pt x="844" y="1585" on="0"/>
        <pt x="874" y="1618" on="1"/>
        <pt x="889" y="1591" on="1"/>
        <pt x="838" y="1462" on="0"/>
        <pt x="625" y="1346" on="0"/>
        <pt x="520" y="1382" on="1"/>
        <pt x="390" y="1421" on="0"/>
        <pt x="209" y="1406" on="0"/>
        <pt x="172" y="1364" on="1"/>
      </contour>
      <contour>
        <pt x="236" y="354" on="1"/>
        <pt x="236" y="290" on="0"/>
        <pt x="393" y="195" on="0"/>
        <pt x="508" y="195" on="1"/>
        <pt x="716" y="195" on="0"/>
        <pt x="813" y="285" on="1"/>
        <pt x="813" y="430" on="1"/>
        <pt x="688" y="524" on="0"/>
        <pt x="522" y="524" on="1"/>
        <pt x="383" y="524" on="0"/>
        <pt x="236" y="433" on="0"/>
      </contour>
    </TTGlyph>
    <TTGlyph name="b" xMin="113" yMin="-20" xMax="1012" yMax="1597">
      <contour>
        <pt x="113" y="0" on="1"/>
        <pt x="113" y="1597" on="1"/>
        <pt x="246" y="1597" on="1"/>
        <pt x="246" y="944" on="1"/>
        <pt x="279" y="1016" on="0"/>
        <pt x="396" y="1110" on="0"/>
        <pt x="519" y="1146" on="0"/>
        <pt x="590" y="1147" on="1"/>
        <pt x="593" y="1147" on="0"/>
        <pt x="595" y="1147" on="1"/>
        <pt x="791" y="1147" on="0"/>
        <pt x="901" y="1005" on="1"/>
        <pt x="1012" y="861" on="0"/>
        <pt x="1012" y="545" on="1"/>
        <pt x="1012" y="276" on="0"/>
        <pt x="785" y="-20" on="0"/>
        <pt x="580" y="-20" on="1"/>
        <pt x="471" y="-20" on="0"/>
        <pt x="291" y="88" on="0"/>
        <pt x="240" y="176" on="1"/>
        <pt x="225" y="0" on="1"/>
      </contour>
      <contour>
        <pt x="246" y="342" on="1"/>
        <pt x="296" y="274" on="0"/>
        <pt x="442" y="221" on="0"/>
        <pt x="567" y="221" on="1"/>
        <pt x="727" y="221" on="0"/>
        <pt x="810" y="307" on="1"/>
        <pt x="891" y="391" on="0"/>
        <pt x="891" y="538" on="1"/>
        <pt x="891" y="542" on="0"/>
        <pt x="891" y="545" on="1"/>
        <pt x="891" y="669" on="0"/>
        <pt x="729" y="815" on="0"/>
        <pt x="575" y="815" on="1"/>
        <pt x="249" y="815" on="0"/>
        <pt x="246" y="545" on="1"/>
      </contour>
    </TTGlyph>
    <TTGlyph name="backslash" xMin="72" yMin="-410" xMax="809" yMax="1638">
      <contour>
        <pt x="72" y="1638" on="1"/>
        <pt x="225" y="1638" on="1"/>
        <pt x="809" y="-410" on="1"/>
        <pt x="655" y="-410" on="1"/>
      </contour>
    </TTGlyph>
    <TTGlyph name="bar" xMin="264" yMin="-410" xMax="412" yMax="1638">
      <contour>
        <pt x="264" y="-410" on="1"/>
        <pt x="264" y="1638" on="1"/>
        <pt x="412" y="1638" on="1"/>
        <pt x="412" y="-410" on="1"/>
      </contour>
    </TTGlyph>
    <TTGlyph name="braceleft" xMin="20" yMin="-430" xMax="555" yMax="1659">
      <contour>
        <pt x="20" y="397" on="1"/>
        <pt x="20" y="750" on="1"/>
        <pt x="104" y="734" on="0"/>
        <pt x="182" y="792" on="0"/>
        <pt x="182" y="834" on="1"/>
        <pt x="175" y="993" on="0"/>
        <pt x="203" y="1246" on="0"/>
        <pt x="265" y="1421" on="0"/>
        <pt x="365" y="1553" on="0"/>
        <pt x="480" y="1632" on="0"/>
        <pt x="555" y="1659" on="1"/>
        <pt x="516" y="1274" on="1"/>
        <pt x="436" y="1254" on="0"/>
        <pt x="330" y="1130" on="0"/>
        <pt x="286" y="904" on="0"/>
        <pt x="305" y="752" on="1"/>
        <pt x="313" y="688" on="0"/>
        <pt x="242" y="601" on="0"/>
        <pt x="152" y="569" on="1"/>
        <pt x="241" y="549" on="0"/>
        <pt x="311" y="443" on="0"/>
        <pt x="303" y="375" on="1"/>
        <pt x="282" y="204" on="0"/>
        <pt x="376" y="7" on="0"/>
        <pt x="485" y="-18" on="1"/>
        <pt x="541" y="-430" on="1"/>
        <pt x="451" y="-399" on="0"/>
        <pt x="317" y="-291" on="0"/>
        <pt x="217" y="-122" on="0"/>
        <pt x="173" y="130" on="0"/>
        <pt x="182" y="293" on="1"/>
        <pt x="182" y="341" on="0"/>
        <pt x="101" y="411" on="0"/>
      </contour>
    </TTGlyph>
    <TTGlyph name="braceright" xMin="225" yMin="-430" xMax="760" yMax="1659">
      <contour>
        <pt x="225" y="1659" on="1"/>
        <pt x="300" y="1632" on="0"/>
        <pt x="415" y="1553" on="0"/>
        <pt x="515" y="1421" on="0"/>
        <pt x="577" y="1246" on="0"/>
        <pt x="605" y="993" on="0"/>
        <pt x="598" y="834" on="1"/>
        <pt x="598" y="792" on="0"/>
        <pt x="676" y="734" on="0"/>
        <pt x="760" y="750" on="1"/>
        <pt x="760" y="397" on="1"/>
        <pt x="679" y="411" on="0"/>
        <pt x="598" y="341" on="0"/>
        <pt x="598" y="293" on="1"/>
        <pt x="607" y="130" on="0"/>
        <pt x="564" y="-122" on="0"/>
        <pt x="464" y="-291" on="0"/>
        <pt x="330" y="-399" on="0"/>
        <pt x="240" y="-430" on="1"/>
        <pt x="295" y="-18" on="1"/>
        <pt x="404" y="7" on="0"/>
        <pt x="498" y="204" on="0"/>
        <pt x="477" y="375" on="1"/>
        <pt x="469" y="443" on="0"/>
        <pt x="540" y="549" on="0"/>
        <pt x="629" y="569" on="1"/>
        <pt x="538" y="601" on="0"/>
        <pt x="467" y="688" on="0"/>
        <pt x="475" y="752" on="1"/>
        <pt x="494" y="904" on="0"/>
        <pt x="450" y="1130" on="0"/>
        <pt x="344" y="1254" on="0"/>
        <pt x="264" y="1274" on="1"/>
      </contour>
    </TTGlyph>
    <TTGlyph name="bracketleft" xMin="123" yMin="-410" xMax="528" yMax="1638">
      <contour>
        <pt x="123" y="-410" on="1"/>
        <pt x="123" y="1638" on="1"/>
        <pt x="528" y="1638" on="1"/>
        <pt x="528" y="1282" on="1"/>
        <pt x="266" y="1282" on="1"/>
        <pt x="266" y="-53" on="1"/>
        <pt x="528" y="-53" on="1"/>
        <pt x="528" y="-410" on="1"/>
      </contour>
    </TTGlyph>
    <TTGlyph name="bracketright" xMin="250" yMin="-410" xMax="655" yMax="1638">
      <contour>
        <pt x="250" y="-53" on="1"/>
        <pt x="512" y="-53" on="1"/>
        <pt x="512" y="1282" on="1"/>
        <pt x="250" y="1282" on="1"/>
        <pt x="250" y="1638" on="1"/>
        <pt x="655" y="1638" on="1"/>
        <pt x="655" y="-410" on="1"/>
        <pt x="250" y="-410" on="1"/>
      </contour>
    </TTGlyph>
    <TTGlyph name="brokenbar" xMin="264" yMin="-410" xMax="412" yMax="1638">
      <contour>
        <pt x="264" y="-410" on="1"/>
        <pt x="264" y="426" on="1"/>
        <pt x="412" y="467" on="1"/>
        <pt x="412" y="-410" on="1"/>
      </contour>
      <contour>
        <pt x="264" y="743" on="1"/>
        <pt x="264" y="1638" on="1"/>
        <pt x="412" y="1638" on="1"/>
        <pt x="412" y="784" on="1"/>
      </contour>
    </TTGlyph>
    <TTGlyph name="bullet" xMin="117" yMin="362" xMax="559" yMax="774">
      <contour>
        <pt x="117" y="565" on="1"/>
        <pt x="117" y="666" on="0"/>
        <pt x="231" y="774" on="0"/>
        <pt x="344" y="774" on="1"/>
        <pt x="445" y="774" on="0"/>
        <pt x="559" y="665" on="0"/>
        <pt x="559" y="565" on="1"/>
        <pt x="559" y="473" on="0"/>
        <pt x="442" y="362" on="0"/>
        <pt x="344" y="362" on="1"/>
        <pt x="234" y="362" on="0"/>
        <pt x="117" y="471" on="0"/>
      </contour>
    </TTGlyph>
    <TTGlyph name="c" xMin="102" yMin="-20" xMax="983" yMax="1147">
      <contour>
        <pt x="102" y="555" on="1"/>
        <pt x="102" y="710" on="0"/>
        <pt x="170" y="943" on="0"/>
        <pt x="292" y="1080" on="0"/>
        <pt x="448" y="1147" on="0"/>
        <pt x="543" y="1147" on="1"/>
        <pt x="863" y="1147" on="0"/>
        <pt x="963" y="870" on="1"/>
        <pt x="868" y="692" on="1"/>
        <pt x="819" y="755" on="0"/>
        <pt x="672" y="823" on="0"/>
        <pt x="553" y="823" on="1"/>
        <pt x="402" y="823" on="0"/>
        <pt x="224" y="676" on="0"/>
        <pt x="223" y="545" on="1"/>
        <pt x="223" y="542" on="0"/>
        <pt x="223" y="538" on="1"/>
        <pt x="224" y="400" on="0"/>
        <pt x="304" y="312" on="1"/>
        <pt x="386" y="220" on="0"/>
        <pt x="553" y="221" on="1"/>
        <pt x="681" y="221" on="0"/>
        <pt x="836" y="294" on="0"/>
        <pt x="877" y="375" on="1"/>
        <pt x="983" y="229" on="1"/>
        <pt x="930" y="108" on="0"/>
        <pt x="707" y="-20" on="0"/>
        <pt x="543" y="-20" on="1"/>
        <pt x="340" y="-20" on="0"/>
        <pt x="102" y="270" on="0"/>
      </contour>
    </TTGlyph>
    <TTGlyph name="ccedilla" xMin="82" yMin="-430" xMax="963" yMax="1147">
      <contour>
        <pt x="82" y="555" on="1"/>
        <pt x="82" y="710" on="0"/>
        <pt x="149" y="943" on="0"/>
        <pt x="271" y="1080" on="0"/>
        <pt x="427" y="1147" on="0"/>
        <pt x="522" y="1147" on="1"/>
        <pt x="842" y="1147" on="0"/>
        <pt x="942" y="870" on="1"/>
        <pt x="848" y="692" on="1"/>
        <pt x="799" y="755" on="0"/>
        <pt x="651" y="823" on="0"/>
        <pt x="532" y="823" on="1"/>
        <pt x="381" y="823" on="0"/>
        <pt x="204" y="676" on="0"/>
        <pt x="203" y="545" on="1"/>
        <pt x="201" y="404" on="0"/>
        <pt x="365" y="221" on="0"/>
        <pt x="532" y="221" on="1"/>
        <pt x="660" y="221" on="0"/>
        <pt x="815" y="294" on="0"/>
        <pt x="856" y="375" on="1"/>
        <pt x="963" y="229" on="1"/>
        <pt x="910" y="108" on="0"/>
        <pt x="691" y="-20" on="0"/>
        <pt x="535" y="-20" on="1"/>
        <pt x="530" y="-45" on="0"/>
        <pt x="530" y="-51" on="1"/>
        <pt x="530" y="-64" on="0"/>
        <pt x="546" y="-78" on="0"/>
        <pt x="603" y="-88" on="0"/>
        <pt x="655" y="-88" on="1"/>
        <pt x="710" y="-88" on="0"/>
        <pt x="778" y="-158" on="0"/>
        <pt x="778" y="-229" on="1"/>
        <pt x="778" y="-430" on="0"/>
        <pt x="508" y="-430" on="1"/>
        <pt x="422" y="-430" on="0"/>
        <pt x="279" y="-373" on="0"/>
        <pt x="268" y="-322" on="1"/>
        <pt x="340" y="-207" on="1"/>
        <pt x="356" y="-235" on="0"/>
        <pt x="453" y="-274" on="0"/>
        <pt x="518" y="-274" on="1"/>
        <pt x="615" y="-274" on="0"/>
        <pt x="684" y="-251" on="0"/>
        <pt x="684" y="-223" on="1"/>
        <pt x="684" y="-207" on="0"/>
        <pt x="655" y="-184" on="0"/>
        <pt x="631" y="-184" on="1"/>
        <pt x="612" y="-184" on="0"/>
        <pt x="528" y="-193" on="0"/>
        <pt x="512" y="-193" on="1"/>
        <pt x="466" y="-193" on="0"/>
        <pt x="403" y="-150" on="0"/>
        <pt x="403" y="-113" on="1"/>
        <pt x="403" y="-60" on="0"/>
        <pt x="426" y="-12" on="1"/>
        <pt x="265" y="21" on="0"/>
        <pt x="82" y="306" on="0"/>
      </contour>
    </TTGlyph>
    <TTGlyph name="cedilla" xMin="289" yMin="-430" xMax="799" yMax="20">
      <contour>
        <pt x="289" y="-322" on="1"/>
        <pt x="360" y="-207" on="1"/>
        <pt x="376" y="-235" on="0"/>
        <pt x="474" y="-274" on="0"/>
        <pt x="539" y="-274" on="1"/>
        <pt x="636" y="-274" on="0"/>
        <pt x="705" y="-251" on="0"/>
        <pt x="705" y="-223" on="1"/>
        <pt x="705" y="-207" on="0"/>
        <pt x="675" y="-184" on="0"/>
        <pt x="651" y="-184" on="1"/>
        <pt x="632" y="-184" on="0"/>
        <pt x="548" y="-193" on="0"/>
        <pt x="532" y="-193" on="1"/>
        <pt x="486" y="-193" on="0"/>
        <pt x="424" y="-150" on="0"/>
        <pt x="424" y="-113" on="1"/>
        <pt x="424" y="-35" on="0"/>
        <pt x="467" y="20" on="1"/>
        <pt x="565" y="0" on="1"/>
        <pt x="551" y="-20" on="0"/>
        <pt x="551" y="-51" on="1"/>
        <pt x="551" y="-64" on="0"/>
        <pt x="567" y="-78" on="0"/>
        <pt x="624" y="-88" on="0"/>
        <pt x="676" y="-88" on="1"/>
        <pt x="731" y="-88" on="0"/>
        <pt x="799" y="-158" on="0"/>
        <pt x="799" y="-229" on="1"/>
        <pt x="799" y="-430" on="0"/>
        <pt x="528" y="-430" on="1"/>
        <pt x="443" y="-430" on="0"/>
        <pt x="300" y="-373" on="0"/>
      </contour>
    </TTGlyph>
    <TTGlyph name="cent" xMin="82" yMin="-174" xMax="963" yMax="1300">
      <contour>
        <pt x="82" y="555" on="1"/>
        <pt x="82" y="710" on="0"/>
        <pt x="149" y="943" on="0"/>
        <pt x="271" y="1080" on="0"/>
        <pt x="427" y="1147" on="0"/>
        <pt x="522" y="1147" on="1"/>
        <pt x="564" y="1147" on="0"/>
        <pt x="582" y="1145" on="1"/>
        <pt x="612" y="1300" on="1"/>
        <pt x="766" y="1300" on="1"/>
        <pt x="729" y="1110" on="1"/>
        <pt x="878" y="1045" on="0"/>
        <pt x="942" y="870" on="1"/>
        <pt x="848" y="692" on="1"/>
        <pt x="776" y="782" on="0"/>
        <pt x="670" y="807" on="1"/>
        <pt x="557" y="221" on="1"/>
        <pt x="672" y="224" on="0"/>
        <pt x="816" y="298" on="0"/>
        <pt x="856" y="375" on="1"/>
        <pt x="963" y="229" on="1"/>
        <pt x="910" y="108" on="0"/>
        <pt x="686" y="-20" on="0"/>
        <pt x="522" y="-20" on="1"/>
        <pt x="510" y="-20" on="1"/>
        <pt x="479" y="-174" on="1"/>
        <pt x="326" y="-174" on="1"/>
        <pt x="360" y="8" on="1"/>
        <pt x="229" y="57" on="0"/>
        <pt x="82" y="332" on="0"/>
      </contour>
      <contour>
        <pt x="203" y="545" on="1"/>
        <pt x="201" y="435" on="0"/>
        <pt x="303" y="271" on="0"/>
        <pt x="406" y="240" on="1"/>
        <pt x="520" y="823" on="1"/>
        <pt x="374" y="820" on="0"/>
        <pt x="204" y="673" on="0"/>
      </contour>
    </TTGlyph>
    <TTGlyph name="circumflex" xMin="184" yMin="1280" xMax="930" yMax="1638">
      <contour>
        <pt x="184" y="1280" on="1"/>
        <pt x="184" y="1350" on="1"/>
        <pt x="278" y="1366" on="0"/>
        <pt x="485" y="1542" on="0"/>
        <pt x="537" y="1638" on="1"/>
        <pt x="578" y="1638" on="1"/>
        <pt x="631" y="1542" on="0"/>
        <pt x="836" y="1366" on="0"/>
        <pt x="930" y="1350" on="1"/>
        <pt x="930" y="1280" on="1"/>
        <pt x="817" y="1272" on="0"/>
        <pt x="586" y="1333" on="0"/>
        <pt x="557" y="1391" on="1"/>
        <pt x="528" y="1333" on="0"/>
        <pt x="297" y="1272" on="0"/>
      </contour>
    </TTGlyph>
    <TTGlyph name="colon" xMin="111" yMin="31" xMax="463" yMax="942">
      <contour>
        <pt x="111" y="176" on="1"/>
        <pt x="111" y="255" on="0"/>
        <pt x="201" y="328" on="0"/>
        <pt x="293" y="328" on="1"/>
        <pt x="463" y="328" on="0"/>
        <pt x="463" y="176" on="1"/>
        <pt x="463" y="104" on="0"/>
        <pt x="373" y="31" on="0"/>
        <pt x="293" y="31" on="1"/>
        <pt x="111" y="31" on="0"/>
      </contour>
      <contour>
        <pt x="111" y="791" on="1"/>
        <pt x="111" y="869" on="0"/>
        <pt x="201" y="942" on="0"/>
        <pt x="293" y="942" on="1"/>
        <pt x="463" y="942" on="0"/>
        <pt x="463" y="791" on="1"/>
        <pt x="463" y="719" on="0"/>
        <pt x="373" y="645" on="0"/>
        <pt x="293" y="645" on="1"/>
        <pt x="111" y="645" on="0"/>
      </contour>
    </TTGlyph>
    <TTGlyph name="comma" xMin="90" yMin="-352" xMax="453" yMax="256">
      <contour>
        <pt x="90" y="-324" on="1"/>
        <pt x="139" y="-284" on="0"/>
        <pt x="208" y="-138" on="0"/>
        <pt x="236" y="24" on="0"/>
        <pt x="223" y="193" on="0"/>
        <pt x="195" y="256" on="1"/>
        <pt x="453" y="256" on="1"/>
        <pt x="472" y="137" on="0"/>
        <pt x="400" y="-121" on="0"/>
        <pt x="236" y="-320" on="0"/>
        <pt x="131" y="-352" on="1"/>
      </contour>
    </TTGlyph>
    <TTGlyph name="copyright" xMin="37" yMin="854" xMax="639" yMax="1507">
      <contour>
        <pt x="37" y="1180" on="1"/>
        <pt x="38" y="1343" on="0"/>
        <pt x="196" y="1507" on="0"/>
        <pt x="332" y="1507" on="1"/>
        <pt x="394" y="1507" on="0"/>
        <pt x="501" y="1468" on="0"/>
        <pt x="588" y="1391" on="0"/>
        <pt x="638" y="1264" on="0"/>
        <pt x="639" y="1182" on="1"/>
        <pt x="638" y="1019" on="0"/>
        <pt x="474" y="854" on="0"/>
        <pt x="338" y="854" on="1"/>
        <pt x="255" y="854" on="0"/>
        <pt x="123" y="921" on="0"/>
        <pt x="38" y="1072" on="0"/>
      </contour>
      <contour>
        <pt x="94" y="1180" on="1"/>
        <pt x="98" y="1061" on="0"/>
        <pt x="230" y="944" on="0"/>
        <pt x="338" y="944" on="1"/>
        <pt x="391" y="944" on="0"/>
        <pt x="471" y="965" on="0"/>
        <pt x="541" y="1016" on="0"/>
        <pt x="580" y="1112" on="0"/>
        <pt x="582" y="1182" on="1"/>
        <pt x="582" y="1282" on="0"/>
        <pt x="436" y="1417" on="0"/>
        <pt x="332" y="1417" on="1"/>
        <pt x="232" y="1417" on="0"/>
        <pt x="94" y="1283" on="0"/>
      </contour>
      <contour>
        <pt x="176" y="1171" on="1"/>
        <pt x="176" y="1271" on="0"/>
        <pt x="262" y="1362" on="0"/>
        <pt x="334" y="1362" on="1"/>
        <pt x="393" y="1362" on="0"/>
        <pt x="465" y="1316" on="0"/>
        <pt x="479" y="1260" on="1"/>
        <pt x="444" y="1229" on="1"/>
        <pt x="415" y="1266" on="0"/>
        <pt x="334" y="1266" on="1"/>
        <pt x="215" y="1266" on="0"/>
        <pt x="215" y="1165" on="1"/>
        <pt x="215" y="1061" on="0"/>
        <pt x="336" y="1061" on="1"/>
        <pt x="381" y="1061" on="0"/>
        <pt x="444" y="1096" on="0"/>
        <pt x="453" y="1126" on="1"/>
        <pt x="483" y="1104" on="1"/>
        <pt x="459" y="991" on="0"/>
        <pt x="330" y="991" on="1"/>
        <pt x="260" y="991" on="0"/>
        <pt x="176" y="1080" on="0"/>
      </contour>
    </TTGlyph>
    <TTGlyph name="currency" xMin="113" yMin="137" xMax="973" yMax="1147">
      <contour>
        <pt x="113" y="250" on="1"/>
        <pt x="215" y="369" on="1"/>
        <pt x="154" y="472" on="0"/>
        <pt x="154" y="631" on="1"/>
        <pt x="154" y="814" on="0"/>
        <pt x="215" y="918" on="1"/>
        <pt x="113" y="1036" on="1"/>
        <pt x="231" y="1147" on="1"/>
        <pt x="328" y="1034" on="1"/>
        <pt x="419" y="1083" on="0"/>
        <pt x="547" y="1083" on="1"/>
        <pt x="676" y="1083" on="0"/>
        <pt x="760" y="1036" on="1"/>
        <pt x="854" y="1147" on="1"/>
        <pt x="973" y="1036" on="1"/>
        <pt x="877" y="922" on="1"/>
        <pt x="940" y="814" on="0"/>
        <pt x="940" y="631" on="1"/>
        <pt x="940" y="464" on="0"/>
        <pt x="874" y="360" on="1"/>
        <pt x="973" y="250" on="1"/>
        <pt x="856" y="137" on="1"/>
        <pt x="756" y="252" on="1"/>
        <pt x="670" y="207" on="0"/>
        <pt x="547" y="207" on="1"/>
        <pt x="420" y="207" on="0"/>
        <pt x="332" y="256" on="1"/>
        <pt x="229" y="137" on="1"/>
      </contour>
      <contour>
        <pt x="264" y="631" on="1"/>
        <pt x="264" y="379" on="0"/>
        <pt x="547" y="379" on="1"/>
        <pt x="680" y="379" on="0"/>
        <pt x="830" y="495" on="0"/>
        <pt x="829" y="631" on="1"/>
        <pt x="827" y="732" on="0"/>
        <pt x="688" y="848" on="0"/>
        <pt x="406" y="848" on="0"/>
        <pt x="266" y="732" on="0"/>
      </contour>
    </TTGlyph>
    <TTGlyph name="d" xMin="72" yMin="-20" xMax="971" yMax="1597">
      <contour>
        <pt x="72" y="545" on="1"/>
        <pt x="72" y="861" on="0"/>
        <pt x="184" y="1005" on="1"/>
        <pt x="295" y="1147" on="0"/>
        <pt x="493" y="1147" on="1"/>
        <pt x="496" y="1147" on="0"/>
        <pt x="498" y="1147" on="1"/>
        <pt x="747" y="1143" on="0"/>
        <pt x="838" y="944" on="1"/>
        <pt x="838" y="1597" on="1"/>
        <pt x="971" y="1597" on="1"/>
        <pt x="971" y="0" on="1"/>
        <pt x="858" y="0" on="1"/>
        <pt x="844" y="176" on="1"/>
        <pt x="795" y="88" on="0"/>
        <pt x="615" y="-20" on="0"/>
        <pt x="506" y="-20" on="1"/>
        <pt x="300" y="-20" on="0"/>
        <pt x="72" y="277" on="0"/>
      </contour>
      <contour>
        <pt x="193" y="545" on="1"/>
        <pt x="193" y="541" on="0"/>
        <pt x="193" y="538" on="1"/>
        <pt x="193" y="394" on="0"/>
        <pt x="274" y="308" on="1"/>
        <pt x="357" y="220" on="0"/>
        <pt x="514" y="221" on="1"/>
        <pt x="636" y="221" on="0"/>
        <pt x="788" y="274" on="0"/>
        <pt x="838" y="344" on="1"/>
        <pt x="838" y="545" on="1"/>
        <pt x="836" y="668" on="0"/>
        <pt x="679" y="815" on="0"/>
        <pt x="510" y="815" on="1"/>
        <pt x="359" y="815" on="0"/>
        <pt x="193" y="664" on="0"/>
      </contour>
    </TTGlyph>
    <TTGlyph name="degree" xMin="41" yMin="1016" xMax="532" yMax="1544">
      <contour>
        <pt x="41" y="1280" on="1"/>
        <pt x="42" y="1411" on="0"/>
        <pt x="176" y="1544" on="0"/>
        <pt x="285" y="1544" on="1"/>
        <pt x="351" y="1544" on="0"/>
        <pt x="459" y="1491" on="0"/>
        <pt x="531" y="1368" on="0"/>
        <pt x="532" y="1280" on="1"/>
        <pt x="531" y="1149" on="0"/>
        <pt x="398" y="1016" on="0"/>
        <pt x="289" y="1016" on="1"/>
        <pt x="223" y="1016" on="0"/>
        <pt x="114" y="1069" on="0"/>
        <pt x="42" y="1192" on="0"/>
      </contour>
      <contour>
        <pt x="129" y="1280" on="1"/>
        <pt x="130" y="1212" on="0"/>
        <pt x="220" y="1143" on="0"/>
        <pt x="289" y="1143" on="1"/>
        <pt x="441" y="1143" on="0"/>
        <pt x="446" y="1280" on="1"/>
        <pt x="443" y="1339" on="0"/>
        <pt x="354" y="1397" on="0"/>
        <pt x="285" y="1397" on="1"/>
        <pt x="132" y="1397" on="0"/>
      </contour>
    </TTGlyph>
    <TTGlyph name="dieresis" xMin="176" yMin="1364" xMax="922" yMax="1632">
      <contour>
        <pt x="176" y="1495" on="1"/>
        <pt x="176" y="1566" on="0"/>
        <pt x="257" y="1632" on="0"/>
        <pt x="340" y="1632" on="1"/>
        <pt x="492" y="1632" on="0"/>
        <pt x="492" y="1495" on="1"/>
        <pt x="492" y="1430" on="0"/>
        <pt x="412" y="1364" on="0"/>
        <pt x="340" y="1364" on="1"/>
        <pt x="176" y="1364" on="0"/>
      </contour>
      <contour>
        <pt x="606" y="1495" on="1"/>
        <pt x="606" y="1566" on="0"/>
        <pt x="687" y="1632" on="0"/>
        <pt x="770" y="1632" on="1"/>
        <pt x="922" y="1632" on="0"/>
        <pt x="922" y="1495" on="1"/>
        <pt x="922" y="1430" on="0"/>
        <pt x="842" y="1364" on="0"/>
        <pt x="770" y="1364" on="1"/>
        <pt x="606" y="1364" on="0"/>
      </contour>
    </TTGlyph>
    <TTGlyph name="divide" xMin="127" yMin="172" xMax="918" yMax="1135">
      <contour>
        <pt x="127" y="547" on="1"/>
        <pt x="127" y="770" on="1"/>
        <pt x="918" y="770" on="1"/>
        <pt x="918" y="547" on="1"/>
      </contour>
      <contour>
        <pt x="387" y="866" on="0"/>
        <pt x="387" y="997" on="1"/>
        <pt x="387" y="1068" on="0"/>
        <pt x="468" y="1135" on="0"/>
        <pt x="551" y="1135" on="1"/>
        <pt x="702" y="1135" on="0"/>
        <pt x="702" y="997" on="1"/>
        <pt x="702" y="932" on="0"/>
        <pt x="623" y="866" on="0"/>
        <pt x="551" y="866" on="1"/>
      </contour>
      <contour>
        <pt x="391" y="303" on="1"/>
        <pt x="391" y="374" on="0"/>
        <pt x="472" y="440" on="0"/>
        <pt x="555" y="440" on="1"/>
        <pt x="707" y="440" on="0"/>
        <pt x="707" y="303" on="1"/>
        <pt x="707" y="238" on="0"/>
        <pt x="627" y="172" on="0"/>
        <pt x="555" y="172" on="1"/>
        <pt x="391" y="172" on="0"/>
      </contour>
    </TTGlyph>
    <TTGlyph name="dollar" xMin="129" yMin="-174" xMax="1325" yMax="1700">
      <contour>
        <pt x="129" y="254" on="1"/>
        <pt x="221" y="535" on="1"/>
        <pt x="262" y="437" on="0"/>
        <pt x="544" y="292" on="0"/>
        <pt x="702" y="283" on="1"/>
        <pt x="702" y="682" on="1"/>
        <pt x="554" y="696" on="0"/>
        <pt x="354" y="764" on="0"/>
        <pt x="241" y="878" on="0"/>
        <pt x="195" y="1020" on="0"/>
        <pt x="195" y="1120" on="1"/>
        <pt x="195" y="1305" on="0"/>
        <pt x="465" y="1549" on="0"/>
        <pt x="702" y="1556" on="1"/>
        <pt x="702" y="1700" on="1"/>
        <pt x="846" y="1700" on="1"/>
        <pt x="846" y="1550" on="1"/>
        <pt x="998" y="1531" on="0"/>
        <pt x="1219" y="1408" on="0"/>
        <pt x="1266" y="1331" on="1"/>
        <pt x="1200" y="1063" on="1"/>
        <pt x="1145" y="1109" on="0"/>
        <pt x="965" y="1188" on="0"/>
        <pt x="846" y="1204" on="1"/>
        <pt x="846" y="809" on="1"/>
        <pt x="1099" y="772" on="0"/>
        <pt x="1327" y="556" on="0"/>
        <pt x="1325" y="383" on="1"/>
        <pt x="1325" y="207" on="0"/>
        <pt x="1076" y="3" on="0"/>
        <pt x="846" y="-16" on="1"/>
        <pt x="846" y="-174" on="1"/>
        <pt x="702" y="-174" on="1"/>
        <pt x="702" y="-20" on="1"/>
        <pt x="501" y="-11" on="0"/>
        <pt x="175" y="146" on="0"/>
      </contour>
      <contour>
        <pt x="377" y="1004" on="1"/>
        <pt x="377" y="956" on="0"/>
        <pt x="423" y="891" on="0"/>
        <pt x="570" y="837" on="0"/>
        <pt x="702" y="823" on="1"/>
        <pt x="702" y="1210" on="1"/>
        <pt x="527" y="1204" on="0"/>
        <pt x="377" y="1090" on="0"/>
      </contour>
      <contour>
        <pt x="846" y="285" on="1"/>
        <pt x="992" y="298" on="0"/>
        <pt x="1130" y="401" on="0"/>
        <pt x="1130" y="479" on="1"/>
        <pt x="1130" y="547" on="0"/>
        <pt x="991" y="646" on="0"/>
        <pt x="846" y="668" on="1"/>
      </contour>
    </TTGlyph>
    <TTGlyph name="e" xMin="92" yMin="-20" xMax="1014" yMax="1147">
      <contour>
        <pt x="92" y="547" on="1"/>
        <pt x="92" y="674" on="0"/>
        <pt x="141" y="879" on="0"/>
        <pt x="225" y="1015" on="0"/>
        <pt x="344" y="1107" on="0"/>
        <pt x="477" y="1147" on="0"/>
        <pt x="553" y="1147" on="1"/>
        <pt x="770" y="1147" on="0"/>
        <pt x="1014" y="814" on="0"/>
        <pt x="1014" y="475" on="1"/>
        <pt x="217" y="475" on="1"/>
        <pt x="237" y="342" on="0"/>
        <pt x="409" y="209" on="0"/>
        <pt x="553" y="207" on="1"/>
        <pt x="557" y="207" on="0"/>
        <pt x="561" y="207" on="1"/>
        <pt x="685" y="207" on="0"/>
        <pt x="758" y="236" on="1"/>
        <pt x="833" y="266" on="0"/>
        <pt x="879" y="330" on="1"/>
        <pt x="975" y="258" on="1"/>
        <pt x="922" y="135" on="0"/>
        <pt x="701" y="-20" on="0"/>
        <pt x="557" y="-20" on="1"/>
        <pt x="333" y="-20" on="0"/>
        <pt x="92" y="290" on="0"/>
      </contour>
      <contour>
        <pt x="217" y="608" on="1"/>
        <pt x="881" y="608" on="1"/>
        <pt x="881" y="707" on="0"/>
        <pt x="693" y="856" on="0"/>
        <pt x="543" y="856" on="1"/>
        <pt x="423" y="856" on="0"/>
        <pt x="238" y="722" on="0"/>
      </contour>
    </TTGlyph>
    <TTGlyph name="eacute" xMin="72" yMin="-20" xMax="993" yMax="1556">
      <contour>
        <pt x="72" y="547" on="1"/>
        <pt x="72" y="705" on="0"/>
        <pt x="145" y="942" on="0"/>
        <pt x="275" y="1080" on="0"/>
        <pt x="436" y="1147" on="0"/>
        <pt x="532" y="1147" on="1"/>
        <pt x="749" y="1147" on="0"/>
        <pt x="993" y="814" on="0"/>
        <pt x="993" y="475" on="1"/>
        <pt x="197" y="475" on="1"/>
        <pt x="237" y="210" on="0"/>
        <pt x="532" y="207" on="1"/>
        <pt x="662" y="206" on="0"/>
        <pt x="812" y="266" on="0"/>
        <pt x="858" y="330" on="1"/>
        <pt x="954" y="258" on="1"/>
        <pt x="900" y="135" on="0"/>
        <pt x="681" y="-20" on="0"/>
        <pt x="537" y="-20" on="1"/>
        <pt x="313" y="-20" on="0"/>
        <pt x="72" y="290" on="0"/>
      </contour>
      <contour>
        <pt x="197" y="608" on="1"/>
        <pt x="860" y="608" on="1"/>
        <pt x="860" y="707" on="0"/>
        <pt x="672" y="856" on="0"/>
        <pt x="522" y="856" on="1"/>
        <pt x="403" y="856" on="0"/>
        <pt x="218" y="722" on="0"/>
      </contour>
      <contour>
        <pt x="213" y="1260" on="1"/>
        <pt x="248" y="1362" on="0"/>
        <pt x="440" y="1516" on="0"/>
        <pt x="679" y="1577" on="0"/>
        <pt x="788" y="1556" on="1"/>
        <pt x="778" y="1298" on="1"/>
        <pt x="659" y="1359" on="0"/>
        <pt x="320" y="1308" on="0"/>
        <pt x="238" y="1214" on="1"/>
      </contour>
    </TTGlyph>
    <TTGlyph name="ecircumflex" xMin="72" yMin="-20" xMax="993" yMax="1638">
      <contour>
        <pt x="72" y="547" on="1"/>
        <pt x="72" y="705" on="0"/>
        <pt x="145" y="942" on="0"/>
        <pt x="275" y="1080" on="0"/>
        <pt x="436" y="1147" on="0"/>
        <pt x="532" y="1147" on="1"/>
        <pt x="749" y="1147" on="0"/>
        <pt x="993" y="814" on="0"/>
        <pt x="993" y="475" on="1"/>
        <pt x="197" y="475" on="1"/>
        <pt x="237" y="210" on="0"/>
        <pt x="532" y="207" on="1"/>
        <pt x="662" y="206" on="0"/>
        <pt x="812" y="266" on="0"/>
        <pt x="858" y="330" on="1"/>
        <pt x="954" y="258" on="1"/>
        <pt x="900" y="135" on="0"/>
        <pt x="681" y="-20" on="0"/>
        <pt x="537" y="-20" on="1"/>
        <pt x="313" y="-20" on="0"/>
        <pt x="72" y="290" on="0"/>
      </contour>
      <contour>
        <pt x="164" y="1280" on="1"/>
        <pt x="164" y="1350" on="1"/>
        <pt x="258" y="1366" on="0"/>
        <pt x="463" y="1542" on="0"/>
        <pt x="516" y="1638" on="1"/>
        <pt x="557" y="1638" on="1"/>
        <pt x="610" y="1542" on="0"/>
        <pt x="815" y="1366" on="0"/>
        <pt x="909" y="1350" on="1"/>
        <pt x="909" y="1280" on="1"/>
        <pt x="796" y="1272" on="0"/>
        <pt x="566" y="1333" on="0"/>
        <pt x="537" y="1391" on="1"/>
        <pt x="508" y="1333" on="0"/>
        <pt x="277" y="1272" on="0"/>
      </contour>
      <contour>
        <pt x="197" y="608" on="1"/>
        <pt x="860" y="608" on="1"/>
        <pt x="860" y="707" on="0"/>
        <pt x="672" y="856" on="0"/>
        <pt x="522" y="856" on="1"/>
        <pt x="403" y="856" on="0"/>
        <pt x="218" y="722" on="0"/>
      </contour>
    </TTGlyph>
    <TTGlyph name="edieresis" xMin="72" yMin="-20" xMax="993" yMax="1632">
      <contour>
        <pt x="72" y="547" on="1"/>
        <pt x="72" y="705" on="0"/>
        <pt x="145" y="942" on="0"/>
        <pt x="275" y="1080" on="0"/>
        <pt x="436" y="1147" on="0"/>
        <pt x="532" y="1147" on="1"/>
        <pt x="749" y="1147" on="0"/>
        <pt x="993" y="814" on="0"/>
        <pt x="993" y="475" on="1"/>
        <pt x="197" y="475" on="1"/>
        <pt x="237" y="210" on="0"/>
        <pt x="532" y="207" on="1"/>
        <pt x="662" y="206" on="0"/>
        <pt x="812" y="266" on="0"/>
        <pt x="858" y="330" on="1"/>
        <pt x="954" y="258" on="1"/>
        <pt x="900" y="135" on="0"/>
        <pt x="681" y="-20" on="0"/>
        <pt x="537" y="-20" on="1"/>
        <pt x="313" y="-20" on="0"/>
        <pt x="72" y="290" on="0"/>
      </contour>
      <contour>
        <pt x="156" y="1495" on="1"/>
        <pt x="156" y="1566" on="0"/>
        <pt x="236" y="1632" on="0"/>
        <pt x="319" y="1632" on="1"/>
        <pt x="471" y="1632" on="0"/>
        <pt x="471" y="1495" on="1"/>
        <pt x="471" y="1430" on="0"/>
        <pt x="391" y="1364" on="0"/>
        <pt x="319" y="1364" on="1"/>
        <pt x="156" y="1364" on="0"/>
      </contour>
      <contour>
        <pt x="197" y="608" on="1"/>
        <pt x="860" y="608" on="1"/>
        <pt x="860" y="707" on="0"/>
        <pt x="672" y="856" on="0"/>
        <pt x="522" y="856" on="1"/>
        <pt x="403" y="856" on="0"/>
        <pt x="218" y="722" on="0"/>
      </contour>
      <contour>
        <pt x="586" y="1495" on="1"/>
        <pt x="586" y="1566" on="0"/>
        <pt x="667" y="1632" on="0"/>
        <pt x="750" y="1632" on="1"/>
        <pt x="901" y="1632" on="0"/>
        <pt x="901" y="1495" on="1"/>
        <pt x="901" y="1430" on="0"/>
        <pt x="822" y="1364" on="0"/>
        <pt x="750" y="1364" on="1"/>
        <pt x="586" y="1364" on="0"/>
      </contour>
    </TTGlyph>
    <TTGlyph name="egrave" xMin="72" yMin="-20" xMax="993" yMax="1597">
      <contour>
        <pt x="72" y="547" on="1"/>
        <pt x="72" y="705" on="0"/>
        <pt x="145" y="942" on="0"/>
        <pt x="275" y="1080" on="0"/>
        <pt x="436" y="1147" on="0"/>
        <pt x="532" y="1147" on="1"/>
        <pt x="749" y="1147" on="0"/>
        <pt x="993" y="814" on="0"/>
        <pt x="993" y="475" on="1"/>
        <pt x="197" y="475" on="1"/>
        <pt x="237" y="210" on="0"/>
        <pt x="532" y="207" on="1"/>
        <pt x="662" y="206" on="0"/>
        <pt x="812" y="266" on="0"/>
        <pt x="858" y="330" on="1"/>
        <pt x="954" y="258" on="1"/>
        <pt x="900" y="135" on="0"/>
        <pt x="681" y="-20" on="0"/>
        <pt x="537" y="-20" on="1"/>
        <pt x="313" y="-20" on="0"/>
        <pt x="72" y="290" on="0"/>
      </contour>
      <contour>
        <pt x="197" y="608" on="1"/>
        <pt x="860" y="608" on="1"/>
        <pt x="860" y="707" on="0"/>
        <pt x="672" y="856" on="0"/>
        <pt x="522" y="856" on="1"/>
        <pt x="403" y="856" on="0"/>
        <pt x="218" y="722" on="0"/>
      </contour>
      <contour>
        <pt x="256" y="1597" on="1"/>
        <pt x="366" y="1619" on="0"/>
        <pt x="605" y="1558" on="0"/>
        <pt x="796" y="1403" on="0"/>
        <pt x="831" y="1300" on="1"/>
        <pt x="807" y="1255" on="1"/>
        <pt x="725" y="1349" on="0"/>
        <pt x="384" y="1400" on="0"/>
        <pt x="266" y="1339" on="1"/>
      </contour>
    </TTGlyph>
    <TTGlyph name="eight" xMin="152" yMin="-20" xMax="1180" yMax="1516">
      <contour>
        <pt x="152" y="426" on="1"/>
        <pt x="152" y="550" on="0"/>
        <pt x="247" y="721" on="0"/>
        <pt x="348" y="776" on="1"/>
        <pt x="170" y="855" on="0"/>
        <pt x="170" y="1104" on="1"/>
        <pt x="170" y="1237" on="0"/>
        <pt x="306" y="1427" on="0"/>
        <pt x="526" y="1516" on="0"/>
        <pt x="664" y="1516" on="1"/>
        <pt x="773" y="1516" on="0"/>
        <pt x="940" y="1469" on="0"/>
        <pt x="1067" y="1367" on="0"/>
        <pt x="1133" y="1190" on="0"/>
        <pt x="1133" y="1067" on="1"/>
        <pt x="1133" y="854" on="0"/>
        <pt x="993" y="731" on="1"/>
        <pt x="1180" y="622" on="0"/>
        <pt x="1180" y="369" on="1"/>
        <pt x="1180" y="191" on="0"/>
        <pt x="913" y="-20" on="0"/>
        <pt x="664" y="-20" on="1"/>
        <pt x="428" y="-20" on="0"/>
        <pt x="152" y="220" on="0"/>
      </contour>
      <contour>
        <pt x="281" y="389" on="1"/>
        <pt x="279" y="314" on="0"/>
        <pt x="477" y="217" on="0"/>
        <pt x="664" y="217" on="1"/>
        <pt x="843" y="217" on="0"/>
        <pt x="1040" y="352" on="0"/>
        <pt x="1040" y="451" on="1"/>
        <pt x="1044" y="526" on="0"/>
        <pt x="969" y="642" on="0"/>
        <pt x="901" y="670" on="1"/>
        <pt x="798" y="616" on="0"/>
        <pt x="664" y="596" on="1"/>
        <pt x="460" y="563" on="0"/>
        <pt x="283" y="463" on="0"/>
      </contour>
      <contour>
        <pt x="301" y="991" on="1"/>
        <pt x="301" y="937" on="0"/>
        <pt x="396" y="848" on="0"/>
        <pt x="483" y="827" on="1"/>
        <pt x="563" y="848" on="0"/>
        <pt x="664" y="860" on="1"/>
        <pt x="753" y="871" on="0"/>
        <pt x="862" y="891" on="0"/>
        <pt x="964" y="928" on="0"/>
        <pt x="1011" y="985" on="0"/>
        <pt x="1012" y="1026" on="1"/>
        <pt x="1014" y="1100" on="0"/>
        <pt x="835" y="1180" on="0"/>
        <pt x="664" y="1180" on="1"/>
        <pt x="502" y="1180" on="0"/>
        <pt x="301" y="1060" on="0"/>
      </contour>
    </TTGlyph>
    <TTGlyph name="ellipsis" xMin="184" yMin="-10" xMax="1516" yMax="287">
      <contour>
        <pt x="184" y="135" on="1"/>
        <pt x="184" y="214" on="0"/>
        <pt x="263" y="287" on="0"/>
        <pt x="344" y="287" on="1"/>
        <pt x="492" y="287" on="0"/>
        <pt x="492" y="135" on="1"/>
        <pt x="492" y="63" on="0"/>
        <pt x="413" y="-10" on="0"/>
        <pt x="344" y="-10" on="1"/>
        <pt x="184" y="-10" on="0"/>
      </contour>
      <contour>
        <pt x="696" y="135" on="1"/>
        <pt x="696" y="214" on="0"/>
        <pt x="775" y="287" on="0"/>
        <pt x="856" y="287" on="1"/>
        <pt x="1004" y="287" on="0"/>
        <pt x="1004" y="135" on="1"/>
        <pt x="1004" y="63" on="0"/>
        <pt x="925" y="-10" on="0"/>
        <pt x="856" y="-10" on="1"/>
        <pt x="696" y="-10" on="0"/>
      </contour>
      <contour>
        <pt x="1208" y="135" on="1"/>
        <pt x="1208" y="214" on="0"/>
        <pt x="1287" y="287" on="0"/>
        <pt x="1368" y="287" on="1"/>
        <pt x="1516" y="287" on="0"/>
        <pt x="1516" y="135" on="1"/>
        <pt x="1516" y="63" on="0"/>
        <pt x="1437" y="-10" on="0"/>
        <pt x="1368" y="-10" on="1"/>
        <pt x="1208" y="-10" on="0"/>
      </contour>
    </TTGlyph>
    <TTGlyph name="emdash" xMin="72" yMin="524" xMax="1628" yMax="676">
      <contour>
        <pt x="72" y="524" on="1"/>
        <pt x="72" y="676" on="1"/>
        <pt x="1628" y="676" on="1"/>
        <pt x="1628" y="524" on="1"/>
      </contour>
    </TTGlyph>
    <TTGlyph name="endash" xMin="72" yMin="524" xMax="1014" yMax="676">
      <contour>
        <pt x="72" y="524" on="1"/>
        <pt x="72" y="676" on="1"/>
        <pt x="1014" y="676" on="1"/>
        <pt x="1014" y="524" on="1"/>
      </contour>
    </TTGlyph>
    <TTGlyph name="equal" xMin="143" yMin="344" xMax="942" yMax="1014">
      <contour>
        <pt x="143" y="344" on="1"/>
        <pt x="143" y="567" on="1"/>
        <pt x="942" y="567" on="1"/>
        <pt x="942" y="344" on="1"/>
      </contour>
      <contour>
        <pt x="143" y="791" on="1"/>
        <pt x="143" y="1014" on="1"/>
        <pt x="942" y="1014" on="1"/>
        <pt x="942" y="791" on="1"/>
      </contour>
    </TTGlyph>
    <TTGlyph name="eth" xMin="72" yMin="-20" xMax="1014" yMax="1597">
      <contour>
        <pt x="72" y="541" on="1"/>
        <pt x="72" y="1147" on="0"/>
        <pt x="551" y="1147" on="1"/>
        <pt x="630" y="1147" on="0"/>
        <pt x="781" y="1101" on="0"/>
        <pt x="823" y="1065" on="1"/>
        <pt x="788" y="1181" on="0"/>
        <pt x="735" y="1264" on="1"/>
        <pt x="578" y="1202" on="1"/>
        <pt x="526" y="1329" on="1"/>
        <pt x="639" y="1374" on="1"/>
        <pt x="570" y="1431" on="0"/>
        <pt x="496" y="1440" on="1"/>
        <pt x="514" y="1597" on="1"/>
        <pt x="692" y="1568" on="0"/>
        <pt x="803" y="1438" on="1"/>
        <pt x="948" y="1495" on="1"/>
        <pt x="999" y="1368" on="1"/>
        <pt x="881" y="1321" on="1"/>
        <pt x="1014" y="1061" on="0"/>
        <pt x="1014" y="545" on="1"/>
        <pt x="1014" y="260" on="0"/>
        <pt x="763" y="-20" on="0"/>
        <pt x="545" y="-20" on="1"/>
        <pt x="467" y="-20" on="0"/>
        <pt x="329" y="20" on="0"/>
        <pt x="209" y="108" on="0"/>
        <pt x="122" y="237" on="0"/>
        <pt x="72" y="426" on="0"/>
      </contour>
      <contour>
        <pt x="193" y="545" on="1"/>
        <pt x="192" y="383" on="0"/>
        <pt x="380" y="219" on="0"/>
        <pt x="545" y="219" on="1"/>
        <pt x="619" y="219" on="0"/>
        <pt x="742" y="254" on="0"/>
        <pt x="841" y="328" on="0"/>
        <pt x="894" y="457" on="0"/>
        <pt x="893" y="545" on="1"/>
        <pt x="891" y="670" on="0"/>
        <pt x="712" y="823" on="0"/>
        <pt x="543" y="823" on="1"/>
        <pt x="375" y="823" on="0"/>
        <pt x="195" y="669" on="0"/>
      </contour>
      <contour>
        <pt x="842" y="1047" on="1"/>
        <pt x="842" y="1049" on="1"/>
      </contour>
    </TTGlyph>
    <TTGlyph name="exclam" xMin="168" yMin="-20" xMax="508" yMax="1516">
      <contour>
        <pt x="168" y="1229" on="1"/>
        <pt x="168" y="1271" on="0"/>
        <pt x="176" y="1345" on="0"/>
        <pt x="199" y="1424" on="0"/>
        <pt x="236" y="1480" on="0"/>
        <pt x="299" y="1516" on="0"/>
        <pt x="340" y="1516" on="1"/>
        <pt x="390" y="1516" on="0"/>
        <pt x="460" y="1463" on="0"/>
        <pt x="494" y="1372" on="0"/>
        <pt x="508" y="1281" on="0"/>
        <pt x="508" y="1229" on="1"/>
        <pt x="508" y="1093" on="0"/>
        <pt x="419" y="716" on="0"/>
        <pt x="408" y="610" on="1"/>
        <pt x="396" y="496" on="0"/>
        <pt x="410" y="381" on="1"/>
        <pt x="258" y="381" on="1"/>
        <pt x="272" y="496" on="0"/>
        <pt x="260" y="610" on="1"/>
        <pt x="250" y="709" on="0"/>
        <pt x="168" y="1089" on="0"/>
      </contour>
      <contour>
        <pt x="195" y="94" on="1"/>
        <pt x="195" y="158" on="0"/>
        <pt x="267" y="217" on="0"/>
        <pt x="340" y="217" on="1"/>
        <pt x="477" y="217" on="0"/>
        <pt x="477" y="94" on="1"/>
        <pt x="477" y="37" on="0"/>
        <pt x="405" y="-20" on="0"/>
        <pt x="340" y="-20" on="1"/>
        <pt x="195" y="-20" on="0"/>
      </contour>
    </TTGlyph>
    <TTGlyph name="exclamdown" xMin="168" yMin="-430" xMax="508" yMax="1137">
      <contour>
        <pt x="168" y="-143" on="1"/>
        <pt x="168" y="-2" on="0"/>
        <pt x="250" y="413" on="0"/>
        <pt x="260" y="506" on="1"/>
        <pt x="272" y="620" on="0"/>
        <pt x="258" y="735" on="1"/>
        <pt x="410" y="735" on="1"/>
        <pt x="396" y="620" on="0"/>
        <pt x="408" y="506" on="1"/>
        <pt x="419" y="404" on="0"/>
        <pt x="508" y="-6" on="0"/>
        <pt x="508" y="-143" on="1"/>
        <pt x="508" y="-195" on="0"/>
        <pt x="494" y="-286" on="0"/>
        <pt x="460" y="-377" on="0"/>
        <pt x="390" y="-430" on="0"/>
        <pt x="340" y="-430" on="1"/>
        <pt x="299" y="-430" on="0"/>
        <pt x="236" y="-394" on="0"/>
        <pt x="199" y="-338" on="0"/>
        <pt x="176" y="-259" on="0"/>
        <pt x="168" y="-185" on="0"/>
      </contour>
      <contour>
        <pt x="195" y="1022" on="1"/>
        <pt x="195" y="1137" on="0"/>
        <pt x="340" y="1137" on="1"/>
        <pt x="405" y="1137" on="0"/>
        <pt x="477" y="1079" on="0"/>
        <pt x="477" y="1022" on="1"/>
        <pt x="477" y="899" on="0"/>
        <pt x="340" y="899" on="1"/>
        <pt x="267" y="899" on="0"/>
        <pt x="195" y="958" on="0"/>
      </contour>
    </TTGlyph>
    <TTGlyph name="f" xMin="45" yMin="0" xMax="686" yMax="1618">
      <contour>
        <pt x="45" y="750" on="1"/>
        <pt x="45" y="1085" on="1"/>
        <pt x="205" y="1085" on="1"/>
        <pt x="198" y="1152" on="0"/>
        <pt x="198" y="1211" on="1"/>
        <pt x="198" y="1385" on="0"/>
        <pt x="262" y="1484" on="1"/>
        <pt x="347" y="1618" on="0"/>
        <pt x="504" y="1618" on="1"/>
        <pt x="602" y="1618" on="0"/>
        <pt x="686" y="1552" on="1"/>
        <pt x="670" y="1288" on="1"/>
        <pt x="627" y="1319" on="0"/>
        <pt x="543" y="1319" on="1"/>
        <pt x="451" y="1319" on="0"/>
        <pt x="390" y="1256" on="1"/>
        <pt x="339" y="1204" on="0"/>
        <pt x="339" y="1123" on="1"/>
        <pt x="339" y="1105" on="0"/>
        <pt x="342" y="1085" on="1"/>
        <pt x="592" y="1085" on="1"/>
        <pt x="592" y="750" on="1"/>
        <pt x="340" y="750" on="1"/>
        <pt x="340" y="0" on="1"/>
        <pt x="207" y="0" on="1"/>
        <pt x="207" y="750" on="1"/>
      </contour>
    </TTGlyph>
    <TTGlyph name="figuredash" xMin="72" yMin="524" xMax="625" yMax="676">
      <contour>
        <pt x="72" y="524" on="1"/>
        <pt x="72" y="676" on="1"/>
        <pt x="625" y="676" on="1"/>
        <pt x="625" y="524" on="1"/>
      </contour>
    </TTGlyph>
    <TTGlyph name="five" xMin="123" yMin="-20" xMax="1167" yMax="1495">
      <contour>
        <pt x="123" y="303" on="1"/>
        <pt x="256" y="426" on="1"/>
        <pt x="296" y="355" on="0"/>
        <pt x="518" y="240" on="0"/>
        <pt x="662" y="240" on="1"/>
        <pt x="852" y="240" on="0"/>
        <pt x="1044" y="363" on="0"/>
        <pt x="1042" y="471" on="1"/>
        <pt x="1040" y="568" on="0"/>
        <pt x="860" y="688" on="0"/>
        <pt x="692" y="688" on="1"/>
        <pt x="435" y="688" on="0"/>
        <pt x="358" y="571" on="1"/>
        <pt x="190" y="713" on="1"/>
        <pt x="334" y="1495" on="1"/>
        <pt x="1057" y="1495" on="1"/>
        <pt x="1067" y="1159" on="1"/>
        <pt x="420" y="1159" on="1"/>
        <pt x="356" y="805" on="1"/>
        <pt x="391" y="859" on="0"/>
        <pt x="592" y="932" on="0"/>
        <pt x="719" y="932" on="1"/>
        <pt x="929" y="932" on="0"/>
        <pt x="1167" y="699" on="0"/>
        <pt x="1167" y="467" on="1"/>
        <pt x="1167" y="208" on="0"/>
        <pt x="905" y="-20" on="0"/>
        <pt x="659" y="-20" on="1"/>
        <pt x="471" y="-20" on="0"/>
        <pt x="184" y="150" on="0"/>
      </contour>
    </TTGlyph>
    <TTGlyph name="four" xMin="158" yMin="0" xMax="1171" yMax="1495">
      <contour>
        <pt x="158" y="371" on="1"/>
        <pt x="158" y="528" on="1"/>
        <pt x="868" y="528" on="1"/>
        <pt x="868" y="1262" on="1"/>
        <pt x="438" y="528" on="1"/>
        <pt x="158" y="528" on="1"/>
        <pt x="666" y="1495" on="1"/>
        <pt x="1014" y="1495" on="1"/>
        <pt x="1014" y="528" on="1"/>
        <pt x="1171" y="528" on="1"/>
        <pt x="1171" y="371" on="1"/>
        <pt x="1014" y="371" on="1"/>
        <pt x="1014" y="0" on="1"/>
        <pt x="868" y="0" on="1"/>
        <pt x="868" y="371" on="1"/>
      </contour>
    </TTGlyph>
    <TTGlyph name="g" xMin="102" yMin="-498" xMax="1217" yMax="1147">
      <contour>
        <pt x="102" y="-248" on="1"/>
        <pt x="154" y="-70" on="1"/>
        <pt x="208" y="-150" on="0"/>
        <pt x="449" y="-246" on="0"/>
        <pt x="600" y="-246" on="1"/>
        <pt x="756" y="-246" on="0"/>
        <pt x="907" y="-164" on="0"/>
        <pt x="907" y="-104" on="1"/>
        <pt x="907" y="-62" on="0"/>
        <pt x="827" y="-6" on="0"/>
        <pt x="768" y="-6" on="1"/>
        <pt x="712" y="-6" on="0"/>
        <pt x="461" y="-35" on="0"/>
        <pt x="389" y="-35" on="1"/>
        <pt x="274" y="-35" on="0"/>
        <pt x="145" y="110" on="0"/>
        <pt x="143" y="205" on="1"/>
        <pt x="143" y="210" on="0"/>
        <pt x="143" y="215" on="1"/>
        <pt x="143" y="266" on="0"/>
        <pt x="162" y="314" on="1"/>
        <pt x="184" y="366" on="0"/>
        <pt x="231" y="401" on="1"/>
        <pt x="145" y="493" on="0"/>
        <pt x="145" y="664" on="1"/>
        <pt x="145" y="797" on="0"/>
        <pt x="204" y="987" on="0"/>
        <pt x="319" y="1097" on="0"/>
        <pt x="470" y="1147" on="0"/>
        <pt x="569" y="1147" on="1"/>
        <pt x="810" y="1147" on="0"/>
        <pt x="913" y="1008" on="1"/>
        <pt x="974" y="1130" on="0"/>
        <pt x="1150" y="1130" on="1"/>
        <pt x="1182" y="1130" on="0"/>
        <pt x="1217" y="1126" on="1"/>
        <pt x="1143" y="866" on="1"/>
        <pt x="1132" y="869" on="0"/>
        <pt x="1096" y="878" on="0"/>
        <pt x="1008" y="878" on="0"/>
        <pt x="979" y="862" on="1"/>
        <pt x="1001" y="776" on="0"/>
        <pt x="1001" y="668" on="1"/>
        <pt x="1001" y="577" on="0"/>
        <pt x="946" y="437" on="0"/>
        <pt x="861" y="354" on="0"/>
        <pt x="743" y="300" on="0"/>
        <pt x="630" y="281" on="0"/>
        <pt x="569" y="281" on="1"/>
        <pt x="449" y="281" on="0"/>
        <pt x="365" y="313" on="1"/>
        <pt x="300" y="280" on="0"/>
        <pt x="303" y="225" on="1"/>
        <pt x="304" y="174" on="0"/>
        <pt x="358" y="123" on="0"/>
        <pt x="403" y="123" on="1"/>
        <pt x="465" y="123" on="0"/>
        <pt x="715" y="159" on="0"/>
        <pt x="788" y="160" on="1"/>
        <pt x="790" y="160" on="0"/>
        <pt x="792" y="160" on="1"/>
        <pt x="932" y="160" on="0"/>
        <pt x="1003" y="85" on="1"/>
        <pt x="1075" y="9" on="0"/>
        <pt x="1075" y="-125" on="1"/>
        <pt x="1075" y="-179" on="0"/>
        <pt x="1039" y="-284" on="0"/>
        <pt x="961" y="-381" on="0"/>
        <pt x="849" y="-454" on="0"/>
        <pt x="684" y="-498" on="0"/>
        <pt x="586" y="-498" on="1"/>
        <pt x="419" y="-498" on="0"/>
        <pt x="140" y="-354" on="0"/>
      </contour>
      <contour>
        <pt x="281" y="657" on="1"/>
        <pt x="281" y="574" on="0"/>
        <pt x="427" y="457" on="0"/>
        <pt x="569" y="457" on="1"/>
        <pt x="708" y="457" on="0"/>
        <pt x="866" y="580" on="0"/>
        <pt x="866" y="657" on="1"/>
        <pt x="864" y="748" on="0"/>
        <pt x="716" y="848" on="0"/>
        <pt x="569" y="848" on="1"/>
        <pt x="284" y="848" on="0"/>
      </contour>
    </TTGlyph>
    <TTGlyph name="germandbls" xMin="115" yMin="0" xMax="1038" yMax="1516">
      <contour>
        <pt x="115" y="0" on="1"/>
        <pt x="115" y="1104" on="1"/>
        <pt x="115" y="1300" on="0"/>
        <pt x="346" y="1516" on="0"/>
        <pt x="530" y="1516" on="1"/>
        <pt x="745" y="1516" on="0"/>
        <pt x="993" y="1274" on="0"/>
        <pt x="993" y="1067" on="1"/>
        <pt x="993" y="949" on="0"/>
        <pt x="879" y="782" on="0"/>
        <pt x="774" y="764" on="1"/>
        <pt x="903" y="747" on="0"/>
        <pt x="1038" y="555" on="0"/>
        <pt x="1038" y="399" on="1"/>
        <pt x="1038" y="220" on="0"/>
        <pt x="786" y="0" on="0"/>
        <pt x="551" y="0" on="1"/>
        <pt x="369" y="0" on="1"/>
        <pt x="369" y="256" on="1"/>
        <pt x="571" y="256" on="1"/>
        <pt x="906" y="256" on="0"/>
        <pt x="909" y="459" on="1"/>
        <pt x="911" y="550" on="0"/>
        <pt x="740" y="664" on="0"/>
        <pt x="571" y="664" on="1"/>
        <pt x="365" y="664" on="1"/>
        <pt x="365" y="840" on="1"/>
        <pt x="571" y="840" on="1"/>
        <pt x="724" y="840" on="0"/>
        <pt x="872" y="936" on="0"/>
        <pt x="874" y="1016" on="1"/>
        <pt x="876" y="1089" on="0"/>
        <pt x="713" y="1190" on="0"/>
        <pt x="565" y="1190" on="1"/>
        <pt x="397" y="1190" on="0"/>
        <pt x="248" y="1098" on="0"/>
        <pt x="248" y="1006" on="1"/>
        <pt x="248" y="0" on="1"/>
      </contour>
    </TTGlyph>
    <TTGlyph name="grave" xMin="256" yMin="1255" xMax="831" yMax="1597">
      <contour>
        <pt x="256" y="1597" on="1"/>
        <pt x="366" y="1619" on="0"/>
        <pt x="605" y="1558" on="0"/>
        <pt x="796" y="1403" on="0"/>
        <pt x="831" y="1300" on="1"/>
        <pt x="807" y="1255" on="1"/>
        <pt x="725" y="1349" on="0"/>
        <pt x="384" y="1400" on="0"/>
        <pt x="266" y="1339" on="1"/>
      </contour>
    </TTGlyph>
    <TTGlyph name="greater" xMin="123" yMin="164" xMax="963" yMax="1147">
      <contour>
        <pt x="123" y="164" on="1"/>
        <pt x="123" y="418" on="1"/>
        <pt x="850" y="616" on="1"/>
        <pt x="123" y="860" on="1"/>
        <pt x="123" y="1147" on="1"/>
        <pt x="963" y="715" on="1"/>
        <pt x="963" y="514" on="1"/>
      </contour>
    </TTGlyph>
    <TTGlyph name="guillemotleft" xMin="41" yMin="-20" xMax="780" yMax="1167">
      <contour>
        <pt x="41" y="555" on="1"/>
        <pt x="371" y="1167" on="1"/>
        <pt x="371" y="737" on="1"/>
        <pt x="143" y="555" on="1"/>
        <pt x="356" y="418" on="1"/>
        <pt x="356" y="-20" on="1"/>
      </contour>
      <contour>
        <pt x="451" y="555" on="1"/>
        <pt x="780" y="1167" on="1"/>
        <pt x="780" y="737" on="1"/>
        <pt x="553" y="555" on="1"/>
        <pt x="766" y="418" on="1"/>
        <pt x="766" y="-20" on="1"/>
      </contour>
    </TTGlyph>
    <TTGlyph name="guillemotright" xMin="2" yMin="-20" xMax="741" yMax="1167">
      <contour>
        <pt x="2" y="737" on="1"/>
        <pt x="2" y="1167" on="1"/>
        <pt x="332" y="555" on="1"/>
        <pt x="16" y="-20" on="1"/>
        <pt x="16" y="418" on="1"/>
        <pt x="229" y="555" on="1"/>
      </contour>
      <contour>
        <pt x="412" y="737" on="1"/>
        <pt x="412" y="1167" on="1"/>
        <pt x="741" y="555" on="1"/>
        <pt x="426" y="-20" on="1"/>
        <pt x="426" y="418" on="1"/>
        <pt x="639" y="555" on="1"/>
      </contour>
    </TTGlyph>
    <TTGlyph name="guilsinglleft" xMin="41" yMin="-20" xMax="371" yMax="1167">
      <contour>
        <pt x="41" y="555" on="1"/>
        <pt x="371" y="1167" on="1"/>
        <pt x="371" y="737" on="1"/>
        <pt x="143" y="555" on="1"/>
        <pt x="356" y="418" on="1"/>
        <pt x="356" y="-20" on="1"/>
      </contour>
    </TTGlyph>
    <TTGlyph name="guilsinglright" xMin="115" yMin="-20" xMax="444" yMax="1167">
      <contour>
        <pt x="115" y="737" on="1"/>
        <pt x="115" y="1167" on="1"/>
        <pt x="444" y="555" on="1"/>
        <pt x="129" y="-20" on="1"/>
        <pt x="129" y="418" on="1"/>
        <pt x="342" y="555" on="1"/>
      </contour>
    </TTGlyph>
    <TTGlyph name="h" xMin="119" yMin="0" xMax="967" yMax="1597">
      <contour>
        <pt x="119" y="0" on="1"/>
        <pt x="119" y="1597" on="1"/>
        <pt x="250" y="1597" on="1"/>
        <pt x="250" y="936" on="1"/>
        <pt x="293" y="1037" on="0"/>
        <pt x="479" y="1147" on="0"/>
        <pt x="606" y="1147" on="1"/>
        <pt x="734" y="1147" on="0"/>
        <pt x="888" y="1052" on="0"/>
        <pt x="967" y="821" on="0"/>
        <pt x="967" y="623" on="1"/>
        <pt x="967" y="0" on="1"/>
        <pt x="838" y="0" on="1"/>
        <pt x="838" y="494" on="1"/>
        <pt x="838" y="795" on="0"/>
        <pt x="571" y="795" on="1"/>
        <pt x="325" y="795" on="0"/>
        <pt x="250" y="592" on="1"/>
        <pt x="250" y="0" on="1"/>
      </contour>
    </TTGlyph>
    <TTGlyph name="hyphen" xMin="72" yMin="524" xMax="625" yMax="676">
      <contour>
        <pt x="72" y="524" on="1"/>
        <pt x="72" y="676" on="1"/>
        <pt x="625" y="676" on="1"/>
        <pt x="625" y="524" on="1"/>
      </contour>
    </TTGlyph>
    <TTGlyph name="i" xMin="113" yMin="0" xMax="512" yMax="1618">
      <contour>
        <pt x="113" y="750" on="1"/>
        <pt x="113" y="1085" on="1"/>
        <pt x="502" y="1085" on="1"/>
        <pt x="502" y="0" on="1"/>
        <pt x="369" y="0" on="1"/>
        <pt x="369" y="750" on="1"/>
      </contour>
      <contour>
        <pt x="152" y="1452" on="1"/>
        <pt x="152" y="1539" on="0"/>
        <pt x="242" y="1618" on="0"/>
        <pt x="336" y="1618" on="1"/>
        <pt x="512" y="1618" on="0"/>
        <pt x="512" y="1452" on="1"/>
        <pt x="512" y="1367" on="0"/>
        <pt x="418" y="1280" on="0"/>
        <pt x="336" y="1280" on="1"/>
        <pt x="152" y="1280" on="0"/>
      </contour>
    </TTGlyph>
    <TTGlyph name="iacute" xMin="8" yMin="0" xMax="584" yMax="1597">
      <contour>
        <pt x="8" y="1300" on="1"/>
        <pt x="43" y="1402" on="0"/>
        <pt x="235" y="1556" on="0"/>
        <pt x="475" y="1618" on="0"/>
        <pt x="584" y="1597" on="1"/>
        <pt x="573" y="1339" on="1"/>
        <pt x="454" y="1400" on="0"/>
        <pt x="115" y="1349" on="0"/>
        <pt x="33" y="1255" on="1"/>
      </contour>
      <contour>
        <pt x="102" y="756" on="1"/>
        <pt x="102" y="1104" on="1"/>
        <pt x="492" y="1104" on="1"/>
        <pt x="492" y="0" on="1"/>
        <pt x="358" y="0" on="1"/>
        <pt x="358" y="756" on="1"/>
      </contour>
    </TTGlyph>
    <TTGlyph name="icircumflex" xMin="-61" yMin="0" xMax="684" yMax="1638">
      <contour>
        <pt x="-61" y="1280" on="1"/>
        <pt x="-61" y="1350" on="1"/>
        <pt x="33" y="1366" on="0"/>
        <pt x="238" y="1542" on="0"/>
        <pt x="291" y="1638" on="1"/>
        <pt x="332" y="1638" on="1"/>
        <pt x="385" y="1542" on="0"/>
        <pt x="590" y="1366" on="0"/>
        <pt x="684" y="1350" on="1"/>
        <pt x="684" y="1280" on="1"/>
        <pt x="571" y="1272" on="0"/>
        <pt x="340" y="1333" on="0"/>
        <pt x="311" y="1391" on="1"/>
        <pt x="282" y="1333" on="0"/>
        <pt x="52" y="1272" on="0"/>
      </contour>
      <contour>
        <pt x="102" y="756" on="1"/>
        <pt x="102" y="1104" on="1"/>
        <pt x="492" y="1104" on="1"/>
        <pt x="492" y="0" on="1"/>
        <pt x="358" y="0" on="1"/>
        <pt x="358" y="756" on="1"/>
      </contour>
    </TTGlyph>
    <TTGlyph name="idieresis" xMin="-70" yMin="0" xMax="676" yMax="1632">
      <contour>
        <pt x="-70" y="1495" on="1"/>
        <pt x="-70" y="1566" on="0"/>
        <pt x="11" y="1632" on="0"/>
        <pt x="94" y="1632" on="1"/>
        <pt x="246" y="1632" on="0"/>
        <pt x="246" y="1495" on="1"/>
        <pt x="246" y="1430" on="0"/>
        <pt x="166" y="1364" on="0"/>
        <pt x="94" y="1364" on="1"/>
        <pt x="-70" y="1364" on="0"/>
      </contour>
      <contour>
        <pt x="102" y="756" on="1"/>
        <pt x="102" y="1104" on="1"/>
        <pt x="492" y="1104" on="1"/>
        <pt x="492" y="0" on="1"/>
        <pt x="358" y="0" on="1"/>
        <pt x="358" y="756" on="1"/>
      </contour>
      <contour>
        <pt x="360" y="1495" on="1"/>
        <pt x="360" y="1566" on="0"/>
        <pt x="441" y="1632" on="0"/>
        <pt x="524" y="1632" on="1"/>
        <pt x="676" y="1632" on="0"/>
        <pt x="676" y="1495" on="1"/>
        <pt x="676" y="1430" on="0"/>
        <pt x="596" y="1364" on="0"/>
        <pt x="524" y="1364" on="1"/>
        <pt x="360" y="1364" on="0"/>
      </contour>
    </TTGlyph>
    <TTGlyph name="igrave" xMin="10" yMin="0" xMax="586" yMax="1597">
      <contour>
        <pt x="10" y="1597" on="1"/>
        <pt x="120" y="1619" on="0"/>
        <pt x="360" y="1558" on="0"/>
        <pt x="551" y="1403" on="0"/>
        <pt x="586" y="1300" on="1"/>
        <pt x="561" y="1255" on="1"/>
        <pt x="479" y="1349" on="0"/>
        <pt x="138" y="1400" on="0"/>
        <pt x="20" y="1339" on="1"/>
      </contour>
      <contour>
        <pt x="102" y="756" on="1"/>
        <pt x="102" y="1104" on="1"/>
        <pt x="492" y="1104" on="1"/>
        <pt x="492" y="0" on="1"/>
        <pt x="358" y="0" on="1"/>
        <pt x="358" y="756" on="1"/>
      </contour>
    </TTGlyph>
    <TTGlyph name="j" xMin="-37" yMin="-430" xMax="481" yMax="1618">
      <contour>
        <pt x="-37" y="-303" on="1"/>
        <pt x="20" y="-98" on="1"/>
        <pt x="53" y="-134" on="0"/>
        <pt x="97" y="-150" on="1"/>
        <pt x="136" y="-164" on="0"/>
        <pt x="173" y="-164" on="1"/>
        <pt x="177" y="-164" on="0"/>
        <pt x="182" y="-164" on="1"/>
        <pt x="260" y="-161" on="0"/>
        <pt x="338" y="-78" on="0"/>
        <pt x="338" y="23" on="1"/>
        <pt x="338" y="754" on="1"/>
        <pt x="82" y="754" on="1"/>
        <pt x="82" y="1106" on="1"/>
        <pt x="471" y="1106" on="1"/>
        <pt x="471" y="-137" on="1"/>
        <pt x="471" y="-278" on="0"/>
        <pt x="341" y="-430" on="0"/>
        <pt x="221" y="-430" on="1"/>
        <pt x="127" y="-430" on="0"/>
        <pt x="-4" y="-357" on="0"/>
      </contour>
      <contour>
        <pt x="121" y="1452" on="1"/>
        <pt x="121" y="1539" on="0"/>
        <pt x="211" y="1618" on="0"/>
        <pt x="305" y="1618" on="1"/>
        <pt x="481" y="1618" on="0"/>
        <pt x="481" y="1452" on="1"/>
        <pt x="481" y="1367" on="0"/>
        <pt x="387" y="1280" on="0"/>
        <pt x="305" y="1280" on="1"/>
        <pt x="121" y="1280" on="0"/>
      </contour>
    </TTGlyph>
    <TTGlyph name="k" xMin="125" yMin="0" xMax="1036" yMax="1597">
      <contour>
        <pt x="125" y="0" on="1"/>
        <pt x="125" y="1597" on="1"/>
        <pt x="256" y="1597" on="1"/>
        <pt x="256" y="686" on="1"/>
        <pt x="629" y="1126" on="1"/>
        <pt x="997" y="1126" on="1"/>
        <pt x="553" y="635" on="1"/>
        <pt x="1036" y="0" on="1"/>
        <pt x="866" y="0" on="1"/>
        <pt x="461" y="532" on="1"/>
        <pt x="256" y="305" on="1"/>
        <pt x="256" y="0" on="1"/>
      </contour>
    </TTGlyph>
    <TTGlyph name="l" xMin="86" yMin="-20" xMax="809" yMax="1597">
      <contour>
        <pt x="86" y="1290" on="1"/>
        <pt x="86" y="1597" on="1"/>
        <pt x="406" y="1597" on="1"/>
        <pt x="406" y="461" on="1"/>
        <pt x="406" y="365" on="0"/>
        <pt x="483" y="266" on="0"/>
        <pt x="569" y="266" on="1"/>
        <pt x="691" y="266" on="0"/>
        <pt x="752" y="330" on="1"/>
        <pt x="809" y="106" on="1"/>
        <pt x="723" y="-20" on="0"/>
        <pt x="532" y="-20" on="1"/>
        <pt x="396" y="-20" on="0"/>
        <pt x="266" y="135" on="0"/>
        <pt x="266" y="305" on="1"/>
        <pt x="266" y="1290" on="1"/>
      </contour>
    </TTGlyph>
    <TTGlyph name="less" xMin="123" yMin="164" xMax="963" yMax="1147">
      <contour>
        <pt x="123" y="514" on="1"/>
        <pt x="123" y="715" on="1"/>
        <pt x="963" y="1147" on="1"/>
        <pt x="963" y="860" on="1"/>
        <pt x="236" y="616" on="1"/>
        <pt x="963" y="418" on="1"/>
        <pt x="963" y="164" on="1"/>
      </contour>
    </TTGlyph>
    <TTGlyph name="logicalnot" xMin="143" yMin="348" xMax="942" yMax="1014">
      <contour>
        <pt x="143" y="750" on="1"/>
        <pt x="143" y="1014" on="1"/>
        <pt x="942" y="1014" on="1"/>
        <pt x="942" y="348" on="1"/>
        <pt x="784" y="348" on="1"/>
        <pt x="784" y="750" on="1"/>
      </contour>
    </TTGlyph>
    <TTGlyph name="m" xMin="113" yMin="0" xMax="1587" yMax="1147">
      <contour>
        <pt x="113" y="0" on="1"/>
        <pt x="113" y="1126" on="1"/>
        <pt x="246" y="1126" on="1"/>
        <pt x="246" y="948" on="1"/>
        <pt x="284" y="1043" on="0"/>
        <pt x="438" y="1147" on="0"/>
        <pt x="539" y="1147" on="1"/>
        <pt x="680" y="1147" on="0"/>
        <pt x="838" y="1033" on="0"/>
        <pt x="874" y="899" on="1"/>
        <pt x="916" y="1016" on="0"/>
        <pt x="1105" y="1147" on="0"/>
        <pt x="1219" y="1147" on="1"/>
        <pt x="1352" y="1147" on="0"/>
        <pt x="1509" y="1051" on="0"/>
        <pt x="1587" y="821" on="0"/>
        <pt x="1587" y="621" on="1"/>
        <pt x="1587" y="0" on="1"/>
        <pt x="1458" y="0" on="1"/>
        <pt x="1458" y="494" on="1"/>
        <pt x="1458" y="651" on="0"/>
        <pt x="1340" y="795" on="0"/>
        <pt x="1208" y="795" on="1"/>
        <pt x="984" y="795" on="0"/>
        <pt x="913" y="586" on="1"/>
        <pt x="913" y="0" on="1"/>
        <pt x="784" y="0" on="1"/>
        <pt x="784" y="494" on="1"/>
        <pt x="784" y="658" on="0"/>
        <pt x="668" y="795" on="0"/>
        <pt x="522" y="795" on="1"/>
        <pt x="427" y="795" on="0"/>
        <pt x="282" y="696" on="0"/>
        <pt x="246" y="600" on="1"/>
        <pt x="246" y="0" on="1"/>
      </contour>
    </TTGlyph>
    <TTGlyph name="macron" xMin="186" yMin="1333" xMax="899" yMax="1536">
      <contour>
        <pt x="186" y="1333" on="1"/>
        <pt x="186" y="1536" on="1"/>
        <pt x="899" y="1536" on="1"/>
        <pt x="899" y="1333" on="1"/>
      </contour>
    </TTGlyph>
    <TTGlyph name="multiply" xMin="86" yMin="53" xMax="999" yMax="1085">
      <contour>
        <pt x="86" y="209" on="1"/>
        <pt x="422" y="621" on="1"/>
        <pt x="106" y="993" on="1"/>
        <pt x="207" y="1085" on="1"/>
        <pt x="510" y="727" on="1"/>
        <pt x="803" y="1085" on="1"/>
        <pt x="956" y="963" on="1"/>
        <pt x="645" y="565" on="1"/>
        <pt x="999" y="147" on="1"/>
        <pt x="901" y="53" on="1"/>
        <pt x="559" y="457" on="1"/>
        <pt x="250" y="61" on="1"/>
      </contour>
    </TTGlyph>
    <TTGlyph name="n" xMin="113" yMin="0" xMax="973" yMax="1147">
      <contour>
        <pt x="113" y="0" on="1"/>
        <pt x="113" y="1126" on="1"/>
        <pt x="246" y="1126" on="1"/>
        <pt x="246" y="942" on="1"/>
        <pt x="290" y="1041" on="0"/>
        <pt x="467" y="1147" on="0"/>
        <pt x="584" y="1147" on="1"/>
        <pt x="724" y="1147" on="0"/>
        <pt x="890" y="1051" on="0"/>
        <pt x="973" y="821" on="0"/>
        <pt x="973" y="621" on="1"/>
        <pt x="973" y="0" on="1"/>
        <pt x="844" y="0" on="1"/>
        <pt x="844" y="494" on="1"/>
        <pt x="844" y="652" on="0"/>
        <pt x="717" y="797" on="0"/>
        <pt x="573" y="797" on="1"/>
        <pt x="324" y="797" on="0"/>
        <pt x="246" y="594" on="1"/>
        <pt x="246" y="0" on="1"/>
      </contour>
    </TTGlyph>
    <TTGlyph name="nine" xMin="143" yMin="-20" xMax="1147" yMax="1516">
      <contour>
        <pt x="143" y="1032" on="1"/>
        <pt x="143" y="1250" on="0"/>
        <pt x="407" y="1516" on="0"/>
        <pt x="639" y="1516" on="1"/>
        <pt x="1147" y="1516" on="0"/>
        <pt x="1147" y="903" on="1"/>
        <pt x="1147" y="686" on="0"/>
        <pt x="1101" y="364" on="0"/>
        <pt x="1020" y="157" on="0"/>
        <pt x="894" y="30" on="0"/>
        <pt x="748" y="-20" on="0"/>
        <pt x="653" y="-20" on="1"/>
        <pt x="360" y="-20" on="0"/>
        <pt x="246" y="143" on="1"/>
        <pt x="295" y="387" on="1"/>
        <pt x="353" y="324" on="0"/>
        <pt x="516" y="260" on="0"/>
        <pt x="639" y="260" on="1"/>
        <pt x="1008" y="260" on="0"/>
        <pt x="1024" y="698" on="1"/>
        <pt x="904" y="512" on="0"/>
        <pt x="627" y="512" on="1"/>
        <pt x="402" y="512" on="0"/>
        <pt x="143" y="783" on="0"/>
      </contour>
      <contour>
        <pt x="272" y="969" on="1"/>
        <pt x="272" y="851" on="0"/>
        <pt x="441" y="735" on="0"/>
        <pt x="639" y="735" on="1"/>
        <pt x="841" y="735" on="0"/>
        <pt x="1020" y="861" on="0"/>
        <pt x="1018" y="969" on="1"/>
        <pt x="1016" y="1078" on="0"/>
        <pt x="831" y="1184" on="0"/>
        <pt x="639" y="1184" on="1"/>
        <pt x="446" y="1184" on="0"/>
        <pt x="272" y="1065" on="0"/>
      </contour>
    </TTGlyph>
    <TTGlyph name="ntilde" xMin="92" yMin="0" xMax="952" yMax="1618">
      <contour>
        <pt x="92" y="0" on="1"/>
        <pt x="92" y="1126" on="1"/>
        <pt x="225" y="1126" on="1"/>
        <pt x="225" y="942" on="1"/>
        <pt x="269" y="1041" on="0"/>
        <pt x="446" y="1147" on="0"/>
        <pt x="563" y="1147" on="1"/>
        <pt x="703" y="1147" on="0"/>
        <pt x="869" y="1051" on="0"/>
        <pt x="952" y="821" on="0"/>
        <pt x="952" y="621" on="1"/>
        <pt x="952" y="0" on="1"/>
        <pt x="823" y="0" on="1"/>
        <pt x="823" y="494" on="1"/>
        <pt x="823" y="652" on="0"/>
        <pt x="696" y="797" on="0"/>
        <pt x="553" y="797" on="1"/>
        <pt x="303" y="797" on="0"/>
        <pt x="225" y="594" on="1"/>
        <pt x="225" y="0" on="1"/>
      </contour>
      <contour>
        <pt x="158" y="1391" on="1"/>
        <pt x="201" y="1514" on="0"/>
        <pt x="403" y="1643" on="0"/>
        <pt x="526" y="1610" on="1"/>
        <pt x="645" y="1580" on="0"/>
        <pt x="844" y="1585" on="0"/>
        <pt x="874" y="1618" on="1"/>
        <pt x="889" y="1591" on="1"/>
        <pt x="838" y="1462" on="0"/>
        <pt x="625" y="1346" on="0"/>
        <pt x="520" y="1382" on="1"/>
        <pt x="390" y="1421" on="0"/>
        <pt x="209" y="1406" on="0"/>
        <pt x="172" y="1364" on="1"/>
      </contour>
    </TTGlyph>
    <TTGlyph name="numbersign" xMin="51" yMin="-102" xMax="1034" yMax="1229">
      <contour>
        <pt x="51" y="158" on="1"/>
        <pt x="106" y="412" on="1"/>
        <pt x="229" y="412" on="1"/>
        <pt x="279" y="702" on="1"/>
        <pt x="141" y="702" on="1"/>
        <pt x="199" y="1006" on="1"/>
        <pt x="332" y="1006" on="1"/>
        <pt x="371" y="1229" on="1"/>
        <pt x="494" y="1229" on="1"/>
        <pt x="455" y="1006" on="1"/>
        <pt x="776" y="1006" on="1"/>
        <pt x="815" y="1229" on="1"/>
        <pt x="938" y="1229" on="1"/>
        <pt x="899" y="1006" on="1"/>
        <pt x="1034" y="1006" on="1"/>
        <pt x="977" y="702" on="1"/>
        <pt x="846" y="702" on="1"/>
        <pt x="797" y="412" on="1"/>
        <pt x="936" y="412" on="1"/>
        <pt x="895" y="158" on="1"/>
        <pt x="752" y="158" on="1"/>
        <pt x="707" y="-102" on="1"/>
        <pt x="578" y="-102" on="1"/>
        <pt x="625" y="158" on="1"/>
        <pt x="307" y="158" on="1"/>
        <pt x="262" y="-102" on="1"/>
        <pt x="139" y="-102" on="1"/>
        <pt x="184" y="158" on="1"/>
      </contour>
      <contour>
        <pt x="352" y="412" on="1"/>
        <pt x="670" y="412" on="1"/>
        <pt x="721" y="702" on="1"/>
        <pt x="401" y="702" on="1"/>
      </contour>
    </TTGlyph>
    <TTGlyph name="o" xMin="72" yMin="-20" xMax="1014" yMax="1147">
      <contour>
        <pt x="72" y="543" on="1"/>
        <pt x="72" y="856" on="0"/>
        <pt x="322" y="1147" on="0"/>
        <pt x="543" y="1147" on="1"/>
        <pt x="765" y="1147" on="0"/>
        <pt x="1014" y="857" on="0"/>
        <pt x="1014" y="543" on="1"/>
        <pt x="1014" y="260" on="0"/>
        <pt x="759" y="-20" on="0"/>
        <pt x="543" y="-20" on="1"/>
        <pt x="439" y="-20" on="0"/>
        <pt x="270" y="47" on="0"/>
        <pt x="142" y="181" on="0"/>
        <pt x="72" y="399" on="0"/>
      </contour>
      <contour>
        <pt x="193" y="543" on="1"/>
        <pt x="193" y="540" on="0"/>
        <pt x="193" y="537" on="1"/>
        <pt x="194" y="453" on="0"/>
        <pt x="220" y="390" on="1"/>
        <pt x="248" y="325" on="0"/>
        <pt x="346" y="253" on="0"/>
        <pt x="468" y="219" on="0"/>
        <pt x="618" y="219" on="0"/>
        <pt x="740" y="253" on="0"/>
        <pt x="790" y="289" on="1"/>
        <pt x="838" y="325" on="0"/>
        <pt x="866" y="390" on="1"/>
        <pt x="893" y="453" on="0"/>
        <pt x="893" y="537" on="1"/>
        <pt x="893" y="540" on="0"/>
        <pt x="893" y="543" on="1"/>
        <pt x="891" y="670" on="0"/>
        <pt x="711" y="823" on="0"/>
        <pt x="543" y="823" on="1"/>
        <pt x="376" y="823" on="0"/>
        <pt x="195" y="670" on="0"/>
      </contour>
    </TTGlyph>
    <TTGlyph name="oacute" xMin="51" yMin="-20" xMax="993" yMax="1597">
      <contour>
        <pt x="51" y="543" on="1"/>
        <pt x="51" y="856" on="0"/>
        <pt x="301" y="1147" on="0"/>
        <pt x="522" y="1147" on="1"/>
        <pt x="744" y="1147" on="0"/>
        <pt x="993" y="857" on="0"/>
        <pt x="993" y="543" on="1"/>
        <pt x="993" y="260" on="0"/>
        <pt x="738" y="-20" on="0"/>
        <pt x="522" y="-20" on="1"/>
        <pt x="418" y="-20" on="0"/>
        <pt x="249" y="47" on="0"/>
        <pt x="121" y="181" on="0"/>
        <pt x="51" y="399" on="0"/>
      </contour>
      <contour>
        <pt x="172" y="543" on="1"/>
        <pt x="171" y="455" on="0"/>
        <pt x="226" y="325" on="0"/>
        <pt x="325" y="253" on="0"/>
        <pt x="447" y="219" on="0"/>
        <pt x="597" y="219" on="0"/>
        <pt x="719" y="253" on="0"/>
        <pt x="818" y="325" on="0"/>
        <pt x="873" y="455" on="0"/>
        <pt x="872" y="543" on="1"/>
        <pt x="870" y="670" on="0"/>
        <pt x="690" y="823" on="0"/>
        <pt x="522" y="823" on="1"/>
        <pt x="355" y="823" on="0"/>
        <pt x="174" y="670" on="0"/>
      </contour>
      <contour>
        <pt x="233" y="1300" on="1"/>
        <pt x="268" y="1402" on="0"/>
        <pt x="460" y="1556" on="0"/>
        <pt x="700" y="1618" on="0"/>
        <pt x="809" y="1597" on="1"/>
        <pt x="799" y="1339" on="1"/>
        <pt x="680" y="1400" on="0"/>
        <pt x="340" y="1349" on="0"/>
        <pt x="258" y="1255" on="1"/>
      </contour>
    </TTGlyph>
    <TTGlyph name="ocircumflex" xMin="51" yMin="-20" xMax="993" yMax="1638">
      <contour>
        <pt x="51" y="543" on="1"/>
        <pt x="51" y="856" on="0"/>
        <pt x="301" y="1147" on="0"/>
        <pt x="522" y="1147" on="1"/>
        <pt x="744" y="1147" on="0"/>
        <pt x="993" y="857" on="0"/>
        <pt x="993" y="543" on="1"/>
        <pt x="993" y="260" on="0"/>
        <pt x="738" y="-20" on="0"/>
        <pt x="522" y="-20" on="1"/>
        <pt x="418" y="-20" on="0"/>
        <pt x="249" y="47" on="0"/>
        <pt x="121" y="181" on="0"/>
        <pt x="51" y="399" on="0"/>
      </contour>
      <contour>
        <pt x="164" y="1280" on="1"/>
        <pt x="164" y="1350" on="1"/>
        <pt x="258" y="1366" on="0"/>
        <pt x="463" y="1542" on="0"/>
        <pt x="516" y="1638" on="1"/>
        <pt x="557" y="1638" on="1"/>
        <pt x="610" y="1542" on="0"/>
        <pt x="815" y="1366" on="0"/>
        <pt x="909" y="1350" on="1"/>
        <pt x="909" y="1280" on="1"/>
        <pt x="796" y="1272" on="0"/>
        <pt x="566" y="1333" on="0"/>
        <pt x="537" y="1391" on="1"/>
        <pt x="508" y="1333" on="0"/>
        <pt x="277" y="1272" on="0"/>
      </contour>
      <contour>
        <pt x="172" y="543" on="1"/>
        <pt x="171" y="455" on="0"/>
        <pt x="226" y="325" on="0"/>
        <pt x="325" y="253" on="0"/>
        <pt x="447" y="219" on="0"/>
        <pt x="597" y="219" on="0"/>
        <pt x="719" y="253" on="0"/>
        <pt x="818" y="325" on="0"/>
        <pt x="873" y="455" on="0"/>
        <pt x="872" y="543" on="1"/>
        <pt x="870" y="670" on="0"/>
        <pt x="690" y="823" on="0"/>
        <pt x="522" y="823" on="1"/>
        <pt x="355" y="823" on="0"/>
        <pt x="174" y="670" on="0"/>
      </contour>
    </TTGlyph>
    <TTGlyph name="odieresis" xMin="51" yMin="-20" xMax="993" yMax="1632">
      <contour>
        <pt x="51" y="543" on="1"/>
        <pt x="51" y="856" on="0"/>
        <pt x="301" y="1147" on="0"/>
        <pt x="522" y="1147" on="1"/>
        <pt x="744" y="1147" on="0"/>
        <pt x="993" y="857" on="0"/>
        <pt x="993" y="543" on="1"/>
        <pt x="993" y="260" on="0"/>
        <pt x="738" y="-20" on="0"/>
        <pt x="522" y="-20" on="1"/>
        <pt x="418" y="-20" on="0"/>
        <pt x="249" y="47" on="0"/>
        <pt x="121" y="181" on="0"/>
        <pt x="51" y="399" on="0"/>
      </contour>
      <contour>
        <pt x="156" y="1364" on="0"/>
        <pt x="156" y="1495" on="1"/>
        <pt x="156" y="1566" on="0"/>
        <pt x="236" y="1632" on="0"/>
        <pt x="319" y="1632" on="1"/>
        <pt x="471" y="1632" on="0"/>
        <pt x="471" y="1495" on="1"/>
        <pt x="471" y="1430" on="0"/>
        <pt x="391" y="1364" on="0"/>
        <pt x="319" y="1364" on="1"/>
      </contour>
      <contour>
        <pt x="172" y="543" on="1"/>
        <pt x="171" y="455" on="0"/>
        <pt x="226" y="325" on="0"/>
        <pt x="325" y="253" on="0"/>
        <pt x="447" y="219" on="0"/>
        <pt x="597" y="219" on="0"/>
        <pt x="719" y="253" on="0"/>
        <pt x="818" y="325" on="0"/>
        <pt x="873" y="455" on="0"/>
        <pt x="872" y="543" on="1"/>
        <pt x="870" y="670" on="0"/>
        <pt x="690" y="823" on="0"/>
        <pt x="522" y="823" on="1"/>
        <pt x="355" y="823" on="0"/>
        <pt x="174" y="670" on="0"/>
      </contour>
      <contour>
        <pt x="586" y="1495" on="1"/>
        <pt x="586" y="1566" on="0"/>
        <pt x="667" y="1632" on="0"/>
        <pt x="750" y="1632" on="1"/>
        <pt x="901" y="1632" on="0"/>
        <pt x="901" y="1495" on="1"/>
        <pt x="901" y="1430" on="0"/>
        <pt x="822" y="1364" on="0"/>
        <pt x="750" y="1364" on="1"/>
        <pt x="586" y="1364" on="0"/>
      </contour>
    </TTGlyph>
    <TTGlyph name="oe" xMin="59" yMin="-20" xMax="1815" yMax="1147">
      <contour>
        <pt x="59" y="543" on="1"/>
        <pt x="59" y="856" on="0"/>
        <pt x="309" y="1147" on="0"/>
        <pt x="530" y="1147" on="1"/>
        <pt x="843" y="1147" on="0"/>
        <pt x="948" y="877" on="1"/>
        <pt x="1005" y="1015" on="0"/>
        <pt x="1219" y="1147" on="0"/>
        <pt x="1354" y="1147" on="1"/>
        <pt x="1571" y="1147" on="0"/>
        <pt x="1815" y="814" on="0"/>
        <pt x="1815" y="475" on="1"/>
        <pt x="1018" y="475" on="1"/>
        <pt x="1038" y="342" on="0"/>
        <pt x="1210" y="209" on="0"/>
        <pt x="1354" y="207" on="1"/>
        <pt x="1484" y="206" on="0"/>
        <pt x="1633" y="266" on="0"/>
        <pt x="1679" y="330" on="1"/>
        <pt x="1776" y="258" on="1"/>
        <pt x="1723" y="135" on="0"/>
        <pt x="1502" y="-20" on="0"/>
        <pt x="1358" y="-20" on="1"/>
        <pt x="1211" y="-20" on="0"/>
        <pt x="1004" y="117" on="0"/>
        <pt x="950" y="242" on="1"/>
        <pt x="894" y="110" on="0"/>
        <pt x="677" y="-20" on="0"/>
        <pt x="530" y="-20" on="1"/>
        <pt x="426" y="-20" on="0"/>
        <pt x="257" y="47" on="0"/>
        <pt x="129" y="181" on="0"/>
        <pt x="59" y="399" on="0"/>
      </contour>
      <contour>
        <pt x="180" y="543" on="1"/>
        <pt x="179" y="455" on="0"/>
        <pt x="234" y="325" on="0"/>
        <pt x="333" y="253" on="0"/>
        <pt x="455" y="219" on="0"/>
        <pt x="605" y="219" on="0"/>
        <pt x="727" y="253" on="0"/>
        <pt x="827" y="325" on="0"/>
        <pt x="882" y="455" on="0"/>
        <pt x="881" y="543" on="1"/>
        <pt x="879" y="670" on="0"/>
        <pt x="698" y="823" on="0"/>
        <pt x="530" y="823" on="1"/>
        <pt x="363" y="823" on="0"/>
        <pt x="182" y="670" on="0"/>
      </contour>
      <contour>
        <pt x="1018" y="608" on="1"/>
        <pt x="1681" y="608" on="1"/>
        <pt x="1681" y="707" on="0"/>
        <pt x="1493" y="856" on="0"/>
        <pt x="1343" y="856" on="1"/>
        <pt x="1224" y="856" on="0"/>
        <pt x="1039" y="722" on="0"/>
      </contour>
    </TTGlyph>
    <TTGlyph name="ograve" xMin="51" yMin="-20" xMax="993" yMax="1597">
      <contour>
        <pt x="51" y="543" on="1"/>
        <pt x="51" y="856" on="0"/>
        <pt x="301" y="1147" on="0"/>
        <pt x="522" y="1147" on="1"/>
        <pt x="744" y="1147" on="0"/>
        <pt x="993" y="857" on="0"/>
        <pt x="993" y="543" on="1"/>
        <pt x="993" y="260" on="0"/>
        <pt x="738" y="-20" on="0"/>
        <pt x="522" y="-20" on="1"/>
        <pt x="418" y="-20" on="0"/>
        <pt x="249" y="47" on="0"/>
        <pt x="121" y="181" on="0"/>
        <pt x="51" y="399" on="0"/>
      </contour>
      <contour>
        <pt x="172" y="543" on="1"/>
        <pt x="171" y="455" on="0"/>
        <pt x="226" y="325" on="0"/>
        <pt x="325" y="253" on="0"/>
        <pt x="447" y="219" on="0"/>
        <pt x="597" y="219" on="0"/>
        <pt x="719" y="253" on="0"/>
        <pt x="818" y="325" on="0"/>
        <pt x="873" y="455" on="0"/>
        <pt x="872" y="543" on="1"/>
        <pt x="870" y="670" on="0"/>
        <pt x="690" y="823" on="0"/>
        <pt x="522" y="823" on="1"/>
        <pt x="355" y="823" on="0"/>
        <pt x="174" y="670" on="0"/>
      </contour>
      <contour>
        <pt x="236" y="1597" on="1"/>
        <pt x="346" y="1619" on="0"/>
        <pt x="585" y="1558" on="0"/>
        <pt x="776" y="1403" on="0"/>
        <pt x="811" y="1300" on="1"/>
        <pt x="786" y="1255" on="1"/>
        <pt x="704" y="1349" on="0"/>
        <pt x="364" y="1400" on="0"/>
        <pt x="246" y="1339" on="1"/>
      </contour>
    </TTGlyph>
    <TTGlyph name="one" xMin="143" yMin="0" xMax="655" yMax="1495">
      <contour>
        <pt x="143" y="926" on="1"/>
        <pt x="143" y="1296" on="1"/>
        <pt x="189" y="1296" on="0"/>
        <pt x="326" y="1348" on="0"/>
        <pt x="446" y="1444" on="0"/>
        <pt x="455" y="1495" on="1"/>
        <pt x="655" y="1495" on="1"/>
        <pt x="655" y="0" on="1"/>
        <pt x="512" y="0" on="1"/>
        <pt x="512" y="1100" on="1"/>
        <pt x="476" y="1035" on="0"/>
        <pt x="231" y="926" on="0"/>
      </contour>
    </TTGlyph>
    <TTGlyph name="ordfeminine" xMin="41" yMin="737" xMax="618" yMax="1507">
      <contour>
        <pt x="41" y="961" on="1"/>
        <pt x="41" y="1070" on="0"/>
        <pt x="186" y="1192" on="0"/>
        <pt x="313" y="1192" on="1"/>
        <pt x="455" y="1192" on="0"/>
        <pt x="530" y="1141" on="1"/>
        <pt x="524" y="1236" on="0"/>
        <pt x="430" y="1321" on="0"/>
        <pt x="334" y="1321" on="1"/>
        <pt x="180" y="1321" on="0"/>
        <pt x="115" y="1241" on="1"/>
        <pt x="109" y="1415" on="1"/>
        <pt x="186" y="1507" on="0"/>
        <pt x="348" y="1507" on="1"/>
        <pt x="490" y="1507" on="0"/>
        <pt x="618" y="1361" on="0"/>
        <pt x="618" y="1178" on="1"/>
        <pt x="618" y="752" on="1"/>
        <pt x="561" y="752" on="1"/>
        <pt x="543" y="799" on="1"/>
        <pt x="475" y="737" on="0"/>
        <pt x="328" y="737" on="1"/>
        <pt x="188" y="737" on="0"/>
        <pt x="41" y="859" on="0"/>
      </contour>
      <contour>
        <pt x="145" y="985" on="1"/>
        <pt x="145" y="943" on="0"/>
        <pt x="252" y="883" on="0"/>
        <pt x="328" y="883" on="1"/>
        <pt x="470" y="883" on="0"/>
        <pt x="530" y="940" on="1"/>
        <pt x="530" y="1034" on="1"/>
        <pt x="452" y="1092" on="0"/>
        <pt x="338" y="1092" on="1"/>
        <pt x="244" y="1092" on="0"/>
        <pt x="145" y="1036" on="0"/>
      </contour>
    </TTGlyph>
    <TTGlyph name="ordmasculine" xMin="25" yMin="737" xMax="651" yMax="1507">
      <contour>
        <pt x="25" y="1108" on="1"/>
        <pt x="25" y="1315" on="0"/>
        <pt x="192" y="1507" on="0"/>
        <pt x="484" y="1507" on="0"/>
        <pt x="651" y="1315" on="0"/>
        <pt x="651" y="1108" on="1"/>
        <pt x="651" y="922" on="0"/>
        <pt x="480" y="737" on="0"/>
        <pt x="196" y="737" on="0"/>
        <pt x="25" y="922" on="0"/>
      </contour>
      <contour>
        <pt x="109" y="1108" on="1"/>
        <pt x="108" y="996" on="0"/>
        <pt x="234" y="895" on="0"/>
        <pt x="442" y="895" on="0"/>
        <pt x="568" y="996" on="0"/>
        <pt x="567" y="1108" on="1"/>
        <pt x="565" y="1193" on="0"/>
        <pt x="450" y="1294" on="0"/>
        <pt x="338" y="1294" on="1"/>
        <pt x="228" y="1294" on="0"/>
        <pt x="111" y="1193" on="0"/>
      </contour>
    </TTGlyph>
    <TTGlyph name="oslash" xMin="51" yMin="-123" xMax="993" yMax="1214">
      <contour>
        <pt x="51" y="543" on="1"/>
        <pt x="51" y="856" on="0"/>
        <pt x="301" y="1147" on="0"/>
        <pt x="522" y="1147" on="1"/>
        <pt x="664" y="1147" on="0"/>
        <pt x="766" y="1090" on="1"/>
        <pt x="834" y="1214" on="1"/>
        <pt x="993" y="1188" on="1"/>
        <pt x="883" y="983" on="1"/>
        <pt x="993" y="833" on="0"/>
        <pt x="993" y="543" on="1"/>
        <pt x="993" y="260" on="0"/>
        <pt x="738" y="-20" on="0"/>
        <pt x="522" y="-20" on="1"/>
        <pt x="437" y="-20" on="0"/>
        <pt x="360" y="2" on="1"/>
        <pt x="293" y="-123" on="1"/>
        <pt x="133" y="-96" on="1"/>
        <pt x="225" y="76" on="1"/>
        <pt x="51" y="216" on="0"/>
      </contour>
      <contour>
        <pt x="172" y="543" on="1"/>
        <pt x="169" y="336" on="0"/>
        <pt x="324" y="260" on="1"/>
        <pt x="621" y="815" on="1"/>
        <pt x="580" y="823" on="0"/>
        <pt x="522" y="823" on="1"/>
        <pt x="355" y="823" on="0"/>
        <pt x="174" y="670" on="0"/>
      </contour>
      <contour>
        <pt x="477" y="221" on="1"/>
        <pt x="491" y="219" on="0"/>
        <pt x="522" y="219" on="1"/>
        <pt x="597" y="219" on="0"/>
        <pt x="719" y="253" on="0"/>
        <pt x="818" y="325" on="0"/>
        <pt x="873" y="455" on="0"/>
        <pt x="872" y="543" on="1"/>
        <pt x="869" y="686" on="0"/>
        <pt x="764" y="760" on="1"/>
      </contour>
    </TTGlyph>
    <TTGlyph name="otilde" xMin="51" yMin="-20" xMax="993" yMax="1618">
      <contour>
        <pt x="51" y="543" on="1"/>
        <pt x="51" y="856" on="0"/>
        <pt x="301" y="1147" on="0"/>
        <pt x="522" y="1147" on="1"/>
        <pt x="744" y="1147" on="0"/>
        <pt x="993" y="857" on="0"/>
        <pt x="993" y="543" on="1"/>
        <pt x="993" y="260" on="0"/>
        <pt x="738" y="-20" on="0"/>
        <pt x="522" y="-20" on="1"/>
        <pt x="418" y="-20" on="0"/>
        <pt x="249" y="47" on="0"/>
        <pt x="121" y="181" on="0"/>
        <pt x="51" y="399" on="0"/>
      </contour>
      <contour>
        <pt x="158" y="1391" on="1"/>
        <pt x="201" y="1514" on="0"/>
        <pt x="403" y="1643" on="0"/>
        <pt x="526" y="1610" on="1"/>
        <pt x="645" y="1580" on="0"/>
        <pt x="844" y="1585" on="0"/>
        <pt x="874" y="1618" on="1"/>
        <pt x="889" y="1591" on="1"/>
        <pt x="838" y="1462" on="0"/>
        <pt x="625" y="1346" on="0"/>
        <pt x="520" y="1382" on="1"/>
        <pt x="390" y="1421" on="0"/>
        <pt x="209" y="1406" on="0"/>
        <pt x="172" y="1364" on="1"/>
      </contour>
      <contour>
        <pt x="172" y="543" on="1"/>
        <pt x="171" y="455" on="0"/>
        <pt x="226" y="325" on="0"/>
        <pt x="325" y="253" on="0"/>
        <pt x="447" y="219" on="0"/>
        <pt x="597" y="219" on="0"/>
        <pt x="719" y="253" on="0"/>
        <pt x="818" y="325" on="0"/>
        <pt x="873" y="455" on="0"/>
        <pt x="872" y="543" on="1"/>
        <pt x="870" y="670" on="0"/>
        <pt x="690" y="823" on="0"/>
        <pt x="522" y="823" on="1"/>
        <pt x="355" y="823" on="0"/>
        <pt x="174" y="670" on="0"/>
      </contour>
    </TTGlyph>
    <TTGlyph name="p" xMin="113" yMin="-410" xMax="1006" yMax="1147">
      <contour>
        <pt x="113" y="-410" on="1"/>
        <pt x="113" y="1126" on="1"/>
        <pt x="246" y="1126" on="1"/>
        <pt x="246" y="946" on="1"/>
        <pt x="294" y="1047" on="0"/>
        <pt x="476" y="1147" on="0"/>
        <pt x="580" y="1147" on="1"/>
        <pt x="1006" y="1147" on="0"/>
        <pt x="1006" y="528" on="1"/>
        <pt x="1006" y="260" on="0"/>
        <pt x="763" y="-20" on="0"/>
        <pt x="567" y="-20" on="1"/>
        <pt x="380" y="-20" on="0"/>
        <pt x="246" y="131" on="1"/>
        <pt x="246" y="-410" on="1"/>
      </contour>
      <contour>
        <pt x="246" y="387" on="1"/>
        <pt x="283" y="310" on="0"/>
        <pt x="454" y="223" on="0"/>
        <pt x="559" y="221" on="1"/>
        <pt x="565" y="221" on="0"/>
        <pt x="570" y="221" on="1"/>
        <pt x="719" y="221" on="0"/>
        <pt x="800" y="298" on="1"/>
        <pt x="883" y="377" on="0"/>
        <pt x="883" y="541" on="1"/>
        <pt x="883" y="674" on="0"/>
        <pt x="711" y="827" on="0"/>
        <pt x="565" y="827" on="1"/>
        <pt x="402" y="827" on="0"/>
        <pt x="246" y="698" on="0"/>
        <pt x="246" y="586" on="1"/>
      </contour>
    </TTGlyph>
    <TTGlyph name="paragraph" xMin="143" yMin="0" xMax="1167" yMax="1536">
      <contour>
        <pt x="143" y="1024" on="1"/>
        <pt x="143" y="1281" on="0"/>
        <pt x="457" y="1536" on="0"/>
        <pt x="737" y="1536" on="1"/>
        <pt x="1167" y="1536" on="1"/>
        <pt x="1167" y="0" on="1"/>
        <pt x="1024" y="0" on="1"/>
        <pt x="1024" y="1214" on="1"/>
        <pt x="881" y="1214" on="1"/>
        <pt x="881" y="0" on="1"/>
        <pt x="737" y="0" on="1"/>
        <pt x="737" y="553" on="1"/>
        <pt x="456" y="553" on="0"/>
        <pt x="143" y="797" on="0"/>
      </contour>
    </TTGlyph>
    <TTGlyph name="parenleft" xMin="82" yMin="-430" xMax="557" yMax="1659">
      <contour>
        <pt x="82" y="551" on="1"/>
        <pt x="82" y="1024" on="0"/>
        <pt x="326" y="1574" on="0"/>
        <pt x="557" y="1659" on="1"/>
        <pt x="518" y="1274" on="1"/>
        <pt x="198" y="1109" on="0"/>
        <pt x="195" y="555" on="1"/>
        <pt x="195" y="347" on="0"/>
        <pt x="333" y="61" on="0"/>
        <pt x="487" y="-18" on="1"/>
        <pt x="543" y="-430" on="1"/>
        <pt x="317" y="-350" on="0"/>
        <pt x="82" y="148" on="0"/>
      </contour>
    </TTGlyph>
    <TTGlyph name="parenright" xMin="221" yMin="-430" xMax="696" yMax="1659">
      <contour>
        <pt x="221" y="1659" on="1"/>
        <pt x="452" y="1574" on="0"/>
        <pt x="696" y="1024" on="0"/>
        <pt x="696" y="551" on="1"/>
        <pt x="696" y="147" on="0"/>
        <pt x="462" y="-350" on="0"/>
        <pt x="236" y="-430" on="1"/>
        <pt x="291" y="-18" on="1"/>
        <pt x="446" y="61" on="0"/>
        <pt x="584" y="347" on="0"/>
        <pt x="584" y="555" on="1"/>
        <pt x="582" y="821" on="0"/>
        <pt x="423" y="1190" on="0"/>
        <pt x="260" y="1274" on="1"/>
      </contour>
    </TTGlyph>
    <TTGlyph name="percent" xMin="102" yMin="-184" xMax="1444" yMax="1638">
      <contour>
        <pt x="102" y="1266" on="1"/>
        <pt x="103" y="1411" on="0"/>
        <pt x="252" y="1556" on="0"/>
        <pt x="377" y="1556" on="1"/>
        <pt x="453" y="1556" on="0"/>
        <pt x="574" y="1498" on="0"/>
        <pt x="654" y="1363" on="0"/>
        <pt x="655" y="1266" on="1"/>
        <pt x="654" y="1120" on="0"/>
        <pt x="506" y="975" on="0"/>
        <pt x="381" y="975" on="1"/>
        <pt x="325" y="975" on="0"/>
        <pt x="227" y="1010" on="0"/>
        <pt x="149" y="1078" on="0"/>
        <pt x="103" y="1192" on="0"/>
      </contour>
      <contour>
        <pt x="123" y="-184" on="1"/>
        <pt x="1233" y="1638" on="1"/>
        <pt x="1423" y="1638" on="1"/>
        <pt x="313" y="-184" on="1"/>
      </contour>
      <contour>
        <pt x="205" y="1255" on="1"/>
        <pt x="206" y="1195" on="0"/>
        <pt x="303" y="1137" on="0"/>
        <pt x="381" y="1137" on="1"/>
        <pt x="550" y="1137" on="0"/>
        <pt x="555" y="1255" on="1"/>
        <pt x="552" y="1314" on="0"/>
        <pt x="454" y="1376" on="0"/>
        <pt x="377" y="1376" on="1"/>
        <pt x="208" y="1376" on="0"/>
      </contour>
      <contour>
        <pt x="891" y="270" on="1"/>
        <pt x="892" y="416" on="0"/>
        <pt x="1040" y="561" on="0"/>
        <pt x="1165" y="561" on="1"/>
        <pt x="1221" y="561" on="0"/>
        <pt x="1319" y="526" on="0"/>
        <pt x="1397" y="458" on="0"/>
        <pt x="1443" y="344" on="0"/>
        <pt x="1444" y="270" on="1"/>
        <pt x="1443" y="125" on="0"/>
        <pt x="1294" y="-20" on="0"/>
        <pt x="1169" y="-20" on="1"/>
        <pt x="1093" y="-20" on="0"/>
        <pt x="972" y="38" on="0"/>
        <pt x="892" y="173" on="0"/>
      </contour>
      <contour>
        <pt x="993" y="260" on="1"/>
        <pt x="994" y="200" on="0"/>
        <pt x="1091" y="141" on="0"/>
        <pt x="1169" y="141" on="1"/>
        <pt x="1338" y="141" on="0"/>
        <pt x="1343" y="260" on="1"/>
        <pt x="1340" y="319" on="0"/>
        <pt x="1242" y="381" on="0"/>
        <pt x="1165" y="381" on="1"/>
        <pt x="996" y="381" on="0"/>
      </contour>
    </TTGlyph>
    <TTGlyph name="period" xMin="162" yMin="-10" xMax="514" yMax="287">
      <contour>
        <pt x="162" y="135" on="1"/>
        <pt x="162" y="214" on="0"/>
        <pt x="252" y="287" on="0"/>
        <pt x="344" y="287" on="1"/>
        <pt x="514" y="287" on="0"/>
        <pt x="514" y="135" on="1"/>
        <pt x="514" y="63" on="0"/>
        <pt x="424" y="-10" on="0"/>
        <pt x="344" y="-10" on="1"/>
        <pt x="162" y="-10" on="0"/>
      </contour>
    </TTGlyph>
    <TTGlyph name="periodcentered" xMin="141" yMin="420" xMax="494" yMax="717">
      <contour>
        <pt x="141" y="565" on="1"/>
        <pt x="141" y="643" on="0"/>
        <pt x="232" y="717" on="0"/>
        <pt x="324" y="717" on="1"/>
        <pt x="494" y="717" on="0"/>
        <pt x="494" y="565" on="1"/>
        <pt x="494" y="493" on="0"/>
        <pt x="404" y="420" on="0"/>
        <pt x="324" y="420" on="1"/>
        <pt x="141" y="420" on="0"/>
      </contour>
    </TTGlyph>
    <TTGlyph name="plus" xMin="143" yMin="164" xMax="942" yMax="1126">
      <contour>
        <pt x="143" y="545" on="1"/>
        <pt x="143" y="772" on="1"/>
        <pt x="457" y="772" on="1"/>
        <pt x="457" y="1126" on="1"/>
        <pt x="616" y="1126" on="1"/>
        <pt x="616" y="772" on="1"/>
        <pt x="942" y="772" on="1"/>
        <pt x="942" y="545" on="1"/>
        <pt x="616" y="545" on="1"/>
        <pt x="616" y="164" on="1"/>
        <pt x="457" y="164" on="1"/>
        <pt x="457" y="545" on="1"/>
      </contour>
    </TTGlyph>
    <TTGlyph name="plusminus" xMin="127" yMin="143" xMax="938" yMax="1126">
      <contour>
        <pt x="127" y="143" on="1"/>
        <pt x="127" y="367" on="1"/>
        <pt x="918" y="367" on="1"/>
        <pt x="918" y="143" on="1"/>
      </contour>
      <contour>
        <pt x="147" y="670" on="1"/>
        <pt x="147" y="893" on="1"/>
        <pt x="451" y="893" on="1"/>
        <pt x="451" y="1126" on="1"/>
        <pt x="608" y="1126" on="1"/>
        <pt x="608" y="893" on="1"/>
        <pt x="938" y="893" on="1"/>
        <pt x="938" y="670" on="1"/>
        <pt x="608" y="670" on="1"/>
        <pt x="608" y="471" on="1"/>
        <pt x="451" y="471" on="1"/>
        <pt x="451" y="670" on="1"/>
      </contour>
    </TTGlyph>
    <TTGlyph name="q" xMin="80" yMin="-410" xMax="973" yMax="1147">
      <contour>
        <pt x="80" y="539" on="1"/>
        <pt x="80" y="1147" on="0"/>
        <pt x="508" y="1147" on="1"/>
        <pt x="609" y="1147" on="0"/>
        <pt x="792" y="1045" on="0"/>
        <pt x="840" y="944" on="1"/>
        <pt x="840" y="1126" on="1"/>
        <pt x="973" y="1126" on="1"/>
        <pt x="973" y="-410" on="1"/>
        <pt x="840" y="-410" on="1"/>
        <pt x="840" y="131" on="1"/>
        <pt x="710" y="-20" on="0"/>
        <pt x="520" y="-20" on="1"/>
        <pt x="320" y="-20" on="0"/>
        <pt x="80" y="260" on="0"/>
      </contour>
      <contour>
        <pt x="203" y="532" on="1"/>
        <pt x="203" y="528" on="0"/>
        <pt x="203" y="525" on="1"/>
        <pt x="203" y="385" on="0"/>
        <pt x="280" y="304" on="1"/>
        <pt x="358" y="221" on="0"/>
        <pt x="508" y="221" on="1"/>
        <pt x="748" y="221" on="0"/>
        <pt x="840" y="387" on="1"/>
        <pt x="840" y="571" on="1"/>
        <pt x="838" y="696" on="0"/>
        <pt x="690" y="825" on="0"/>
        <pt x="520" y="825" on="1"/>
        <pt x="369" y="825" on="0"/>
        <pt x="203" y="671" on="0"/>
      </contour>
    </TTGlyph>
    <TTGlyph name="question" xMin="86" yMin="-20" xMax="999" yMax="1511">
      <contour>
        <pt x="86" y="1169" on="1"/>
        <pt x="169" y="1511" on="0"/>
        <pt x="551" y="1511" on="1"/>
        <pt x="761" y="1511" on="0"/>
        <pt x="999" y="1273" on="0"/>
        <pt x="999" y="1059" on="1"/>
        <pt x="999" y="680" on="0"/>
        <pt x="653" y="633" on="1"/>
        <pt x="611" y="627" on="0"/>
        <pt x="551" y="613" on="0"/>
        <pt x="483" y="585" on="0"/>
        <pt x="446" y="535" on="0"/>
        <pt x="446" y="500" on="1"/>
        <pt x="446" y="446" on="0"/>
        <pt x="494" y="356" on="1"/>
        <pt x="391" y="340" on="1"/>
        <pt x="299" y="455" on="0"/>
        <pt x="299" y="551" on="1"/>
        <pt x="299" y="713" on="0"/>
        <pt x="465" y="874" on="0"/>
        <pt x="633" y="893" on="1"/>
        <pt x="766" y="907" on="0"/>
        <pt x="877" y="982" on="0"/>
        <pt x="877" y="1044" on="1"/>
        <pt x="877" y="1198" on="0"/>
        <pt x="551" y="1198" on="1"/>
        <pt x="289" y="1198" on="0"/>
        <pt x="211" y="1049" on="1"/>
      </contour>
      <contour>
        <pt x="354" y="94" on="1"/>
        <pt x="354" y="238" on="0"/>
        <pt x="500" y="238" on="1"/>
        <pt x="637" y="238" on="0"/>
        <pt x="637" y="94" on="1"/>
        <pt x="637" y="37" on="0"/>
        <pt x="565" y="-20" on="0"/>
        <pt x="500" y="-20" on="1"/>
        <pt x="354" y="-20" on="0"/>
      </contour>
    </TTGlyph>
    <TTGlyph name="questiondown" xMin="86" yMin="-430" xMax="999" yMax="1143">
      <contour>
        <pt x="86" y="-88" on="1"/>
        <pt x="211" y="33" on="1"/>
        <pt x="249" y="-40" on="0"/>
        <pt x="424" y="-117" on="0"/>
        <pt x="551" y="-117" on="1"/>
        <pt x="877" y="-117" on="0"/>
        <pt x="877" y="37" on="1"/>
        <pt x="877" y="99" on="0"/>
        <pt x="766" y="174" on="0"/>
        <pt x="633" y="188" on="1"/>
        <pt x="299" y="226" on="0"/>
        <pt x="299" y="551" on="1"/>
        <pt x="299" y="647" on="0"/>
        <pt x="391" y="762" on="1"/>
        <pt x="494" y="745" on="1"/>
        <pt x="446" y="655" on="0"/>
        <pt x="446" y="602" on="1"/>
        <pt x="446" y="556" on="0"/>
        <pt x="515" y="488" on="0"/>
        <pt x="602" y="456" on="0"/>
        <pt x="653" y="449" on="1"/>
        <pt x="999" y="402" on="0"/>
        <pt x="999" y="23" on="1"/>
        <pt x="999" y="-191" on="0"/>
        <pt x="761" y="-430" on="0"/>
        <pt x="551" y="-430" on="1"/>
        <pt x="169" y="-430" on="0"/>
      </contour>
      <contour>
        <pt x="354" y="1028" on="1"/>
        <pt x="354" y="1143" on="0"/>
        <pt x="500" y="1143" on="1"/>
        <pt x="565" y="1143" on="0"/>
        <pt x="637" y="1085" on="0"/>
        <pt x="637" y="1028" on="1"/>
        <pt x="637" y="885" on="0"/>
        <pt x="500" y="885" on="1"/>
        <pt x="354" y="885" on="0"/>
      </contour>
    </TTGlyph>
    <TTGlyph name="quotedbl" xMin="41" yMin="1018" xMax="696" yMax="1597">
      <contour>
        <pt x="41" y="1597" on="1"/>
        <pt x="307" y="1597" on="1"/>
        <pt x="221" y="1018" on="1"/>
        <pt x="102" y="1018" on="1"/>
      </contour>
      <contour>
        <pt x="430" y="1597" on="1"/>
        <pt x="696" y="1597" on="1"/>
        <pt x="610" y="1018" on="1"/>
        <pt x="492" y="1018" on="1"/>
      </contour>
    </TTGlyph>
    <TTGlyph name="quotedblbase" xMin="12" yMin="-424" xMax="784" yMax="184">
      <contour>
        <pt x="12" y="-395" on="1"/>
        <pt x="61" y="-355" on="0"/>
        <pt x="130" y="-209" on="0"/>
        <pt x="158" y="-48" on="0"/>
        <pt x="145" y="121" on="0"/>
        <pt x="117" y="184" on="1"/>
        <pt x="375" y="184" on="1"/>
        <pt x="394" y="65" on="0"/>
        <pt x="322" y="-193" on="0"/>
        <pt x="158" y="-392" on="0"/>
        <pt x="53" y="-424" on="1"/>
      </contour>
      <contour>
        <pt x="422" y="-395" on="1"/>
        <pt x="471" y="-355" on="0"/>
        <pt x="540" y="-209" on="0"/>
        <pt x="567" y="-48" on="0"/>
        <pt x="554" y="121" on="0"/>
        <pt x="526" y="184" on="1"/>
        <pt x="784" y="184" on="1"/>
        <pt x="803" y="65" on="0"/>
        <pt x="732" y="-192" on="0"/>
        <pt x="568" y="-392" on="0"/>
        <pt x="463" y="-424" on="1"/>
      </contour>
    </TTGlyph>
    <TTGlyph name="quotedblleft" xMin="47" yMin="928" xMax="819" yMax="1536">
      <contour>
        <pt x="47" y="928" on="1"/>
        <pt x="28" y="1047" on="0"/>
        <pt x="100" y="1305" on="0"/>
        <pt x="264" y="1504" on="0"/>
        <pt x="369" y="1536" on="1"/>
        <pt x="410" y="1507" on="1"/>
        <pt x="361" y="1467" on="0"/>
        <pt x="292" y="1321" on="0"/>
        <pt x="264" y="1160" on="0"/>
        <pt x="277" y="991" on="0"/>
        <pt x="305" y="928" on="1"/>
      </contour>
      <contour>
        <pt x="457" y="928" on="1"/>
        <pt x="438" y="1047" on="0"/>
        <pt x="509" y="1304" on="0"/>
        <pt x="673" y="1504" on="0"/>
        <pt x="778" y="1536" on="1"/>
        <pt x="819" y="1507" on="1"/>
        <pt x="770" y="1467" on="0"/>
        <pt x="701" y="1321" on="0"/>
        <pt x="674" y="1160" on="0"/>
        <pt x="687" y="991" on="0"/>
        <pt x="715" y="928" on="1"/>
      </contour>
    </TTGlyph>
    <TTGlyph name="quotedblright" xMin="33" yMin="928" xMax="805" yMax="1536">
      <contour>
        <pt x="33" y="956" on="1"/>
        <pt x="82" y="996" on="0"/>
        <pt x="151" y="1142" on="0"/>
        <pt x="178" y="1304" on="0"/>
        <pt x="165" y="1473" on="0"/>
        <pt x="137" y="1536" on="1"/>
        <pt x="395" y="1536" on="1"/>
        <pt x="414" y="1417" on="0"/>
        <pt x="343" y="1160" on="0"/>
        <pt x="179" y="960" on="0"/>
        <pt x="74" y="928" on="1"/>
      </contour>
      <contour>
        <pt x="442" y="956" on="1"/>
        <pt x="491" y="996" on="0"/>
        <pt x="560" y="1142" on="0"/>
        <pt x="588" y="1304" on="0"/>
        <pt x="575" y="1473" on="0"/>
        <pt x="547" y="1536" on="1"/>
        <pt x="805" y="1536" on="1"/>
        <pt x="824" y="1417" on="0"/>
        <pt x="752" y="1159" on="0"/>
        <pt x="588" y="960" on="0"/>
        <pt x="483" y="928" on="1"/>
      </contour>
    </TTGlyph>
    <TTGlyph name="quoteleft" xMin="57" yMin="928" xMax="420" yMax="1536">
      <contour>
        <pt x="57" y="928" on="1"/>
        <pt x="38" y="1047" on="0"/>
        <pt x="110" y="1305" on="0"/>
        <pt x="274" y="1504" on="0"/>
        <pt x="379" y="1536" on="1"/>
        <pt x="420" y="1507" on="1"/>
        <pt x="371" y="1467" on="0"/>
        <pt x="302" y="1321" on="0"/>
        <pt x="274" y="1160" on="0"/>
        <pt x="287" y="991" on="0"/>
        <pt x="315" y="928" on="1"/>
      </contour>
    </TTGlyph>
    <TTGlyph name="quoteright" xMin="51" yMin="928" xMax="414" yMax="1536">
      <contour>
        <pt x="51" y="956" on="1"/>
        <pt x="100" y="996" on="0"/>
        <pt x="169" y="1142" on="0"/>
        <pt x="197" y="1304" on="0"/>
        <pt x="184" y="1473" on="0"/>
        <pt x="156" y="1536" on="1"/>
        <pt x="414" y="1536" on="1"/>
        <pt x="433" y="1417" on="0"/>
        <pt x="361" y="1159" on="0"/>
        <pt x="197" y="960" on="0"/>
        <pt x="92" y="928" on="1"/>
      </contour>
    </TTGlyph>
    <TTGlyph name="quotesinglbase" xMin="31" yMin="-424" xMax="393" yMax="184">
      <contour>
        <pt x="31" y="-395" on="1"/>
        <pt x="80" y="-355" on="0"/>
        <pt x="149" y="-209" on="0"/>
        <pt x="176" y="-48" on="0"/>
        <pt x="163" y="121" on="0"/>
        <pt x="135" y="184" on="1"/>
        <pt x="393" y="184" on="1"/>
        <pt x="412" y="65" on="0"/>
        <pt x="341" y="-192" on="0"/>
        <pt x="177" y="-392" on="0"/>
        <pt x="72" y="-424" on="1"/>
      </contour>
    </TTGlyph>
    <TTGlyph name="quotesingle" xMin="51" yMin="1018" xMax="317" yMax="1597">
      <contour>
        <pt x="51" y="1597" on="1"/>
        <pt x="317" y="1597" on="1"/>
        <pt x="231" y="1018" on="1"/>
        <pt x="113" y="1018" on="1"/>
      </contour>
    </TTGlyph>
    <TTGlyph name="r" xMin="133" yMin="0" xMax="809" yMax="1147">
      <contour>
        <pt x="133" y="772" on="1"/>
        <pt x="133" y="1126" on="1"/>
        <pt x="307" y="1126" on="1"/>
        <pt x="377" y="967" on="1"/>
        <pt x="410" y="1054" on="0"/>
        <pt x="542" y="1147" on="0"/>
        <pt x="678" y="1147" on="0"/>
        <pt x="763" y="1110" on="0"/>
        <pt x="809" y="1071" on="1"/>
        <pt x="731" y="731" on="1"/>
        <pt x="712" y="771" on="0"/>
        <pt x="634" y="807" on="0"/>
        <pt x="565" y="807" on="1"/>
        <pt x="488" y="807" on="0"/>
        <pt x="391" y="689" on="0"/>
        <pt x="391" y="584" on="1"/>
        <pt x="391" y="0" on="1"/>
        <pt x="256" y="0" on="1"/>
        <pt x="256" y="772" on="1"/>
      </contour>
    </TTGlyph>
</ttFont>
